<svg width="294" height="643" viewBox="0 0 294 643" fill="none" xmlns="http://www.w3.org/2000/svg">
<rect x="246.335" y="630.816" width="46" height="14" rx="7" transform="rotate(-25.0551 246.335 630.816)" fill="#A259FF" stroke="#303030"/>
<path d="M271 38.5C276.799 38.5 281.5 33.799 281.5 28C281.5 22.201 276.799 17.5 271 17.5C265.201 17.5 260.5 22.201 260.5 28C260.5 33.799 265.201 38.5 271 38.5Z" fill="#DFF93E" stroke="black"/>
<path d="M28.3818 592.112L31.8597 603.014C32.1681 603.981 32.881 604.767 33.8136 605.167L44.3803 609.703C46.3989 610.569 46.3989 613.431 44.3803 614.297L33.8136 618.833C32.881 619.233 32.1681 620.019 31.8597 620.986L28.3818 631.888C27.6416 634.209 24.3584 634.209 23.6182 631.888L20.1403 620.986C19.8319 620.019 19.119 619.233 18.1864 618.833L7.61968 614.297C5.60114 613.431 5.60114 610.569 7.61968 609.703L18.1864 605.167C19.119 604.767 19.8319 603.981 20.1403 603.014L23.6182 592.112C24.3584 589.791 27.6416 589.791 28.3818 592.112Z" fill="#CFE2FF" stroke="#303030"/>
<rect x="-0.187307" y="0.681848" width="26.3016" height="8.30935" rx="4.15467" transform="matrix(0.869154 -0.494541 -0.494541 -0.869154 5.31269 121.436)" fill="#FF8577" stroke="#303030"/>
<path d="M21.879 397.252L21.7081 389.646C21.6751 388.179 19.7723 387.627 18.9595 388.849L14.7458 395.184C14.6656 395.304 14.537 395.384 14.3934 395.402L7.26268 396.323C5.96283 396.49 5.48811 398.127 6.49655 398.964L12.0287 403.557C12.1401 403.649 12.2059 403.786 12.2092 403.93L12.3801 411.536C12.4131 413.004 14.3159 413.555 15.1287 412.334L19.3424 405.999C19.4226 405.878 19.5511 405.799 19.6947 405.78L26.8255 404.86C28.1254 404.692 28.6001 403.055 27.5916 402.218L22.0595 397.626C21.9481 397.533 21.8823 397.397 21.879 397.252Z" fill="#CFE2FF" stroke="#303030"/>
<circle cx="64.5" cy="9.5" r="9" fill="#C7B9FF" stroke="black"/>
<rect x="184.193" y="407.361" width="36.8998" height="11.3711" rx="5.68553" transform="rotate(19.6974 184.193 407.361)" fill="#699BF7" stroke="#303030"/>
<path d="M235.189 123.023L228.985 118.746C228.02 118.081 226.772 119.051 227.178 120.15L229.792 127.219C229.812 127.273 229.808 127.333 229.78 127.384L226.41 133.528C225.904 134.449 226.744 135.529 227.762 135.267L234.547 133.517C234.603 133.502 234.663 133.513 234.71 133.545L240.915 137.822C241.88 138.487 243.128 137.517 242.722 136.418L240.108 129.35C240.088 129.296 240.092 129.235 240.12 129.184L243.49 123.041C243.996 122.119 243.156 121.039 242.138 121.302L235.353 123.052C235.297 123.066 235.237 123.056 235.189 123.023Z" fill="#37A954" stroke="#303030"/>
</svg>
