<svg width="42" height="46" viewBox="0 0 42 46" fill="none" xmlns="http://www.w3.org/2000/svg">
<path d="M22.4291 3.4156L25.907 14.3184C26.3035 15.5615 27.2201 16.5713 28.4192 17.086L38.9859 21.6216C40.197 22.1415 40.197 23.8585 38.9859 24.3784L28.4192 28.914C27.2201 29.4287 26.3035 30.4385 25.907 31.6816L22.4291 42.5844C21.985 43.9766 20.015 43.9766 19.5709 42.5844L16.093 31.6816C15.6965 30.4385 14.7799 29.4287 13.5808 28.914L3.01412 24.3784C1.80299 23.8585 1.80299 22.1415 3.01411 21.6216L13.5808 17.086C14.7799 16.5713 15.6965 15.5615 16.093 14.3184L19.5709 3.41559C20.015 2.02341 21.985 2.02341 22.4291 3.4156Z" stroke="#303030" stroke-width="3"/>
</svg>
