<svg width="48" height="65" viewBox="0 0 48 65" fill="none" xmlns="http://www.w3.org/2000/svg">
<rect x="7.63698" y="4.09521" width="8" height="24" transform="rotate(-20 7.63698 4.09521)" fill="#699BF7" stroke="#303030"/>
<rect x="30.8455" y="1.35963" width="8" height="24" transform="rotate(20 30.8455 1.35963)" fill="#699BF7" stroke="#303030"/>
<g filter="url(#filter0_d_186_287)">
<circle cx="23.5" cy="40.0034" r="22.5" fill="#AB7427"/>
<circle cx="23.5" cy="40.0034" r="23" stroke="#303030"/>
</g>
<path d="M28.8968 35.2074C28.8968 35.9914 28.7288 36.6714 28.3928 37.2474C28.0728 37.8234 27.6328 38.2954 27.0728 38.6634C26.5288 39.0314 25.9048 39.3034 25.2008 39.4794V39.5514C26.5768 39.7114 27.6168 40.1274 28.3208 40.7994C29.0408 41.4714 29.4008 42.3754 29.4008 43.5114C29.4008 44.5034 29.1528 45.3994 28.6568 46.1994C28.1768 46.9834 27.4248 47.6074 26.4008 48.0714C25.3928 48.5194 24.0888 48.7434 22.4888 48.7434C21.5448 48.7434 20.6648 48.6634 19.8488 48.5034C19.0328 48.3434 18.2648 48.1114 17.5448 47.8074V44.7354C18.2808 45.1034 19.0488 45.3834 19.8488 45.5754C20.6648 45.7674 21.4168 45.8634 22.1048 45.8634C23.4008 45.8634 24.3048 45.6394 24.8168 45.1914C25.3448 44.7434 25.6088 44.1114 25.6088 43.2954C25.6088 42.8154 25.4888 42.4154 25.2488 42.0954C25.0088 41.7594 24.5848 41.5114 23.9768 41.3514C23.3848 41.1754 22.5528 41.0874 21.4808 41.0874H20.1848V38.3034H21.5048C22.5608 38.3034 23.3608 38.2074 23.9048 38.0154C24.4648 37.8074 24.8408 37.5354 25.0328 37.1994C25.2408 36.8474 25.3448 36.4474 25.3448 35.9994C25.3448 35.3914 25.1528 34.9194 24.7688 34.5834C24.4008 34.2314 23.7768 34.0554 22.8968 34.0554C22.3528 34.0554 21.8568 34.1274 21.4088 34.2714C20.9608 34.3994 20.5528 34.5594 20.1848 34.7514C19.8328 34.9434 19.5208 35.1274 19.2488 35.3034L17.5688 32.8074C18.0168 32.4874 18.5128 32.1994 19.0568 31.9434C19.6168 31.6874 20.2328 31.4874 20.9048 31.3434C21.5768 31.1994 22.3288 31.1274 23.1608 31.1274C24.9208 31.1274 26.3128 31.4874 27.3368 32.2074C28.3768 32.9114 28.8968 33.9114 28.8968 35.2074Z" fill="black"/>
<defs>
<filter id="filter0_d_186_287" x="0" y="16.5034" width="48" height="48" filterUnits="userSpaceOnUse" color-interpolation-filters="sRGB">
<feFlood flood-opacity="0" result="BackgroundImageFix"/>
<feColorMatrix in="SourceAlpha" type="matrix" values="0 0 0 0 0 0 0 0 0 0 0 0 0 0 0 0 0 0 127 0" result="hardAlpha"/>
<feOffset dx="1" dy="1"/>
<feComposite in2="hardAlpha" operator="out"/>
<feColorMatrix type="matrix" values="0 0 0 0 0.188235 0 0 0 0 0.188235 0 0 0 0 0.188235 0 0 0 1 0"/>
<feBlend mode="normal" in2="BackgroundImageFix" result="effect1_dropShadow_186_287"/>
<feBlend mode="normal" in="SourceGraphic" in2="effect1_dropShadow_186_287" result="shape"/>
</filter>
</defs>
</svg>
