<svg width="30" height="30" viewBox="0 0 30 30" fill="none" xmlns="http://www.w3.org/2000/svg">
<circle cx="15" cy="15" r="14" fill="#FF8577" stroke="#303030" stroke-width="2"/>
<path d="M16.5788 17.734H14.4368L13.9868 9.148H17.0288L16.5788 17.734ZM13.9508 20.74C13.9508 20.188 14.1008 19.804 14.4008 19.588C14.7008 19.36 15.0668 19.246 15.4988 19.246C15.9188 19.246 16.2788 19.36 16.5788 19.588C16.8788 19.804 17.0288 20.188 17.0288 20.74C17.0288 21.268 16.8788 21.652 16.5788 21.892C16.2788 22.12 15.9188 22.234 15.4988 22.234C15.0668 22.234 14.7008 22.12 14.4008 21.892C14.1008 21.652 13.9508 21.268 13.9508 20.74Z" fill="#303030"/>
</svg>
