<svg width="1728" height="1004" viewBox="0 0 1728 1004" fill="none" xmlns="http://www.w3.org/2000/svg">
<circle cx="207" cy="238" r="8.5" fill="#37A954" stroke="black" stroke-width="3"/>
<circle cx="1398" cy="705" r="13.5" fill="#C7B9FF" stroke="black" stroke-width="3"/>
<rect x="301.994" y="459.78" width="42" height="10" rx="5" transform="rotate(-25.0551 301.994 459.78)" fill="#A259FF" stroke="#303030" stroke-width="3"/>
<rect x="1525.9" y="309.783" width="42" height="10" rx="5" transform="rotate(12.1948 1525.9 309.783)" fill="#FF8577" stroke="#303030" stroke-width="3"/>
<rect x="1625.36" y="775.067" width="42" height="10" rx="5" transform="rotate(31.9551 1625.36 775.067)" fill="#DFF93E" stroke="#303030" stroke-width="3"/>
<rect x="219.017" y="762.07" width="42" height="10" rx="5" transform="rotate(-26.9782 219.017 762.07)" fill="#699BF7" stroke="#303030" stroke-width="3"/>
<path d="M1356.57 410.416C1357.02 409.023 1358.98 409.023 1359.43 410.416L1362.91 421.318C1363.3 422.562 1364.22 423.571 1365.42 424.086L1375.99 428.622C1377.2 429.141 1377.2 430.859 1375.99 431.378L1365.42 435.914C1364.22 436.429 1363.3 437.438 1362.91 438.682L1359.43 449.584C1358.98 450.977 1357.02 450.977 1356.57 449.584L1353.09 438.682C1352.7 437.438 1351.78 436.429 1350.58 435.914L1340.01 431.378C1338.8 430.859 1338.8 429.141 1340.01 428.622L1350.58 424.086C1351.78 423.571 1352.7 422.562 1353.09 421.318L1356.57 410.416Z" fill="#CFE2FF" stroke="#303030" stroke-width="3"/>
<path d="M116.571 584.416C117.015 583.023 118.985 583.023 119.429 584.416L122.907 595.318C123.304 596.562 124.22 597.571 125.419 598.086L135.986 602.622C137.197 603.141 137.197 604.859 135.986 605.378L125.419 609.914C124.22 610.429 123.304 611.438 122.907 612.682L119.429 623.584C118.985 624.977 117.015 624.977 116.571 623.584L113.093 612.682C112.696 611.438 111.78 610.429 110.581 609.914L100.014 605.378C98.803 604.859 98.803 603.141 100.014 602.622L110.581 598.086C111.78 597.571 112.696 596.562 113.093 595.318L116.571 584.416Z" fill="#37A954" stroke="#303030" stroke-width="3"/>
<circle cx="1640.64" cy="994" r="8.5" fill="#37A954" stroke="black" stroke-width="3"/>
<circle cx="1050.64" cy="876" r="13.5" fill="#C7B9FF" stroke="black" stroke-width="3"/>
<rect x="73.9941" y="936.864" width="42" height="10" rx="5" transform="rotate(-25.0551 73.9941 936.864)" fill="#A259FF" stroke="#303030" stroke-width="3"/>
<rect x="459.531" y="927.783" width="42" height="10" rx="5" transform="rotate(12.1948 459.531 927.783)" fill="#FF8577" stroke="#303030" stroke-width="3"/>
<rect x="1174.99" y="893.067" width="42" height="10" rx="5" transform="rotate(31.9551 1174.99 893.067)" fill="#DFF93E" stroke="#303030" stroke-width="3"/>
<rect x="1521.65" y="935.07" width="42" height="10" rx="5" transform="rotate(-26.9782 1521.65 935.07)" fill="#699BF7" stroke="#303030" stroke-width="3"/>
<path d="M607.206 906.416C607.65 905.023 609.62 905.023 610.064 906.416L613.542 917.318C613.939 918.562 614.855 919.571 616.054 920.086L626.621 924.622C627.832 925.141 627.832 926.859 626.621 927.378L616.054 931.914C614.855 932.429 613.939 933.438 613.542 934.682L610.064 945.584C609.62 946.977 607.65 946.977 607.206 945.584L603.728 934.682C603.332 933.438 602.415 932.429 601.216 931.914L590.649 927.378C589.438 926.859 589.438 925.141 590.649 924.622L601.216 920.086C602.415 919.571 603.332 918.562 603.728 917.318L607.206 906.416Z" fill="#CFE2FF" stroke="#303030" stroke-width="3"/>
<path d="M1356.21 897.416C1356.65 896.023 1358.62 896.023 1359.06 897.416L1362.54 908.318C1362.94 909.562 1363.86 910.571 1365.05 911.086L1375.62 915.622C1376.83 916.141 1376.83 917.859 1375.62 918.378L1365.05 922.914C1363.86 923.429 1362.94 924.438 1362.54 925.682L1359.06 936.584C1358.62 937.977 1356.65 937.977 1356.21 936.584L1352.73 925.682C1352.33 924.438 1351.42 923.429 1350.22 922.914L1339.65 918.378C1338.44 917.859 1338.44 916.141 1339.65 915.622L1350.22 911.086C1351.42 910.571 1352.33 909.562 1352.73 908.318L1356.21 897.416Z" fill="#37A954" stroke="#303030" stroke-width="3"/>
<circle cx="1641" cy="133" r="8.5" fill="#37A954" stroke="black" stroke-width="3"/>
<circle cx="1051" cy="15" r="13.5" fill="#C7B9FF" stroke="black" stroke-width="3"/>
<rect x="74.3593" y="75.8638" width="42" height="10" rx="5" transform="rotate(-25.0551 74.3593 75.8638)" fill="#A259FF" stroke="#303030" stroke-width="3"/>
<rect x="459.896" y="66.783" width="42" height="10" rx="5" transform="rotate(12.1948 459.896 66.783)" fill="#FF8577" stroke="#303030" stroke-width="3"/>
<rect x="1175.36" y="32.0666" width="42" height="10" rx="5" transform="rotate(31.9551 1175.36 32.0666)" fill="#DFF93E" stroke="#303030" stroke-width="3"/>
<rect x="1522.02" y="74.0704" width="42" height="10" rx="5" transform="rotate(-26.9782 1522.02 74.0704)" fill="#699BF7" stroke="#303030" stroke-width="3"/>
<path d="M607.571 45.4156C608.016 44.0234 609.985 44.0234 610.43 45.4156L613.907 56.3184C614.304 57.5615 615.221 58.5713 616.42 59.086L626.986 63.6216C628.197 64.1415 628.197 65.8585 626.986 66.3784L616.42 70.914C615.221 71.4287 614.304 72.4385 613.907 73.6816L610.43 84.5844C609.985 85.9766 608.016 85.9766 607.571 84.5844L604.094 73.6816C603.697 72.4385 602.78 71.4287 601.581 70.914L591.015 66.3784C589.803 65.8585 589.803 64.1415 591.015 63.6216L601.581 59.086C602.78 58.5713 603.697 57.5615 604.094 56.3184L607.571 45.4156Z" fill="#CFE2FF" stroke="#303030" stroke-width="3"/>
<path d="M1356.57 36.4156C1357.02 35.0234 1358.99 35.0234 1359.43 36.4156L1362.91 47.3184C1363.3 48.5615 1364.22 49.5713 1365.42 50.086L1375.99 54.6216C1377.2 55.1415 1377.2 56.8585 1375.99 57.3784L1365.42 61.914C1364.22 62.4287 1363.3 63.4385 1362.91 64.6816L1359.43 75.5844C1358.99 76.9766 1357.02 76.9766 1356.57 75.5844L1353.09 64.6816C1352.7 63.4385 1351.78 62.4287 1350.58 61.914L1340.01 57.3784C1338.8 56.8585 1338.8 55.1415 1340.01 54.6216L1350.58 50.086C1351.78 49.5713 1352.7 48.5615 1353.09 47.3184L1356.57 36.4156Z" fill="#37A954" stroke="#303030" stroke-width="3"/>
<circle cx="1493.64" cy="636" r="8.5" fill="#37A954" stroke="black" stroke-width="3"/>
<circle cx="903.635" cy="518" r="13.5" fill="#C7B9FF" stroke="black" stroke-width="3"/>
<rect x="312.531" y="569.783" width="42" height="10" rx="5" transform="rotate(12.1948 312.531 569.783)" fill="#FF8577" stroke="#303030" stroke-width="3"/>
<rect x="1027.99" y="535.067" width="42" height="10" rx="5" transform="rotate(31.9551 1027.99 535.067)" fill="#DFF93E" stroke="#303030" stroke-width="3"/>
<rect x="1374.65" y="577.07" width="42" height="10" rx="5" transform="rotate(-26.9782 1374.65 577.07)" fill="#699BF7" stroke="#303030" stroke-width="3"/>
<path d="M460.206 548.416C460.65 547.023 462.62 547.023 463.064 548.416L466.542 559.318C466.939 560.562 467.855 561.571 469.054 562.086L479.621 566.622C480.832 567.141 480.832 568.859 479.621 569.378L469.054 573.914C467.855 574.429 466.939 575.438 466.542 576.682L463.064 587.584C462.62 588.977 460.65 588.977 460.206 587.584L456.728 576.682C456.332 575.438 455.415 574.429 454.216 573.914L443.649 569.378C442.438 568.859 442.438 567.141 443.649 566.622L454.216 562.086C455.415 561.571 456.332 560.562 456.728 559.318L460.206 548.416Z" fill="#CFE2FF" stroke="#303030" stroke-width="3"/>
<path d="M1209.21 539.416C1209.65 538.023 1211.62 538.023 1212.06 539.416L1215.54 550.318C1215.94 551.562 1216.86 552.571 1218.05 553.086L1228.62 557.622C1229.83 558.141 1229.83 559.859 1228.62 560.378L1218.05 564.914C1216.86 565.429 1215.94 566.438 1215.54 567.682L1212.06 578.584C1211.62 579.977 1209.65 579.977 1209.21 578.584L1205.73 567.682C1205.33 566.438 1204.42 565.429 1203.22 564.914L1192.65 560.378C1191.44 559.859 1191.44 558.141 1192.65 557.622L1203.22 553.086C1204.42 552.571 1205.33 551.562 1205.73 550.318L1209.21 539.416Z" fill="#37A954" stroke="#303030" stroke-width="3"/>
<circle cx="1585.64" cy="253" r="13.5" fill="#C7B9FF" stroke="black" stroke-width="3"/>
<rect x="608.994" y="313.864" width="42" height="10" rx="5" transform="rotate(-25.0551 608.994 313.864)" fill="#A259FF" stroke="#303030" stroke-width="3"/>
<rect x="994.531" y="304.783" width="42" height="10" rx="5" transform="rotate(12.1948 994.531 304.783)" fill="#FF8577" stroke="#303030" stroke-width="3"/>
<rect x="1709.99" y="270.067" width="42" height="10" rx="5" transform="rotate(31.9551 1709.99 270.067)" fill="#DFF93E" stroke="#303030" stroke-width="3"/>
<path d="M1142.21 283.416C1142.65 282.023 1144.62 282.023 1145.06 283.416L1148.54 294.318C1148.94 295.562 1149.86 296.571 1151.05 297.086L1161.62 301.622C1162.83 302.141 1162.83 303.859 1161.62 304.378L1151.05 308.914C1149.86 309.429 1148.94 310.438 1148.54 311.682L1145.06 322.584C1144.62 323.977 1142.65 323.977 1142.21 322.584L1138.73 311.682C1138.33 310.438 1137.42 309.429 1136.22 308.914L1125.65 304.378C1124.44 303.859 1124.44 302.141 1125.65 301.622L1136.22 297.086C1137.42 296.571 1138.33 295.562 1138.73 294.318L1142.21 283.416Z" fill="#CFE2FF" stroke="#303030" stroke-width="3"/>
</svg>
