<svg width="48" height="65" viewBox="0 0 48 65" fill="none" xmlns="http://www.w3.org/2000/svg">
<rect x="7.63698" y="4.09521" width="8" height="24" transform="rotate(-20 7.63698 4.09521)" fill="#699BF7" stroke="#303030"/>
<rect x="30.8455" y="1.35963" width="8" height="24" transform="rotate(20 30.8455 1.35963)" fill="#699BF7" stroke="#303030"/>
<g filter="url(#filter0_d_186_279)">
<circle cx="23.5" cy="40.0034" r="22.5" fill="#FFC700"/>
<circle cx="23.5" cy="40.0034" r="23" stroke="#303030"/>
</g>
<path d="M27.5448 48.5039H23.9208V38.5919C23.9208 38.3199 23.9208 37.9839 23.9208 37.5839C23.9368 37.1839 23.9528 36.7679 23.9688 36.3359C23.9848 35.9039 24.0008 35.5199 24.0168 35.1839C23.9368 35.2799 23.7608 35.4559 23.4888 35.7119C23.2328 35.9519 22.9928 36.1679 22.7688 36.3599L20.8008 37.9439L19.0488 35.7599L24.5688 31.3679H27.5448V48.5039Z" fill="black"/>
<defs>
<filter id="filter0_d_186_279" x="0" y="16.5034" width="48" height="48" filterUnits="userSpaceOnUse" color-interpolation-filters="sRGB">
<feFlood flood-opacity="0" result="BackgroundImageFix"/>
<feColorMatrix in="SourceAlpha" type="matrix" values="0 0 0 0 0 0 0 0 0 0 0 0 0 0 0 0 0 0 127 0" result="hardAlpha"/>
<feOffset dx="1" dy="1"/>
<feComposite in2="hardAlpha" operator="out"/>
<feColorMatrix type="matrix" values="0 0 0 0 0.188235 0 0 0 0 0.188235 0 0 0 0 0.188235 0 0 0 1 0"/>
<feBlend mode="normal" in2="BackgroundImageFix" result="effect1_dropShadow_186_279"/>
<feBlend mode="normal" in="SourceGraphic" in2="effect1_dropShadow_186_279" result="shape"/>
</filter>
</defs>
</svg>
