<svg width="40" height="40" viewBox="0 0 40 40" fill="none" xmlns="http://www.w3.org/2000/svg">
<path d="M20.4082 16.3638V24.1092H31.3916C30.9093 26.6001 29.462 28.7093 27.2913 30.1275L33.9147 35.1639C37.7738 31.6731 40.0001 26.5458 40.0001 20.4549C40.0001 19.0367 39.8703 17.673 39.6291 16.364L20.4082 16.3638Z" fill="#4285F4"/>
<path d="M8.97027 23.8066L7.47644 24.9273L2.18872 28.9636C5.54682 35.4908 12.4295 39.9999 20.4073 39.9999C25.9174 39.9999 30.537 38.2181 33.9138 35.1636L27.2904 30.1272C25.4722 31.3272 23.153 32.0546 20.4073 32.0546C15.1011 32.0546 10.5928 28.5455 8.97861 23.8182L8.97027 23.8066Z" fill="#34A853"/>
<path d="M2.18886 11.0366C0.797455 13.7274 -0.000244141 16.7638 -0.000244141 20.0001C-0.000244141 23.2364 0.797455 26.2729 2.18886 28.9637C2.18886 28.9817 8.97941 23.8 8.97941 23.8C8.57124 22.6 8.32998 21.3274 8.32998 19.9999C8.32998 18.6725 8.57124 17.3998 8.97941 16.1998L2.18886 11.0366Z" fill="#FBBC05"/>
<path d="M20.4077 7.96363C23.4133 7.96363 26.0849 8.98179 28.2185 10.9454L34.0627 5.21825C30.519 1.98194 25.918 0 20.4077 0C12.4299 0 5.54682 4.4909 2.18872 11.0364L8.97906 16.2C10.5931 11.4727 15.1015 7.96363 20.4077 7.96363Z" fill="#EA4335"/>
</svg>
