<svg width="207" height="62" viewBox="0 0 207 62" fill="none" xmlns="http://www.w3.org/2000/svg">
<path d="M36.3489 22.4943C36.1557 21.7784 35.8716 21.1477 35.4966 20.6023C35.1216 20.0455 34.6614 19.5739 34.1159 19.1875C33.5705 18.8011 32.9455 18.5114 32.2409 18.3182C31.5364 18.1136 30.7637 18.0114 29.9227 18.0114C28.2296 18.0114 26.7637 18.4205 25.525 19.2386C24.2977 20.0568 23.3489 21.25 22.6784 22.8182C22.008 24.375 21.6727 26.267 21.6727 28.4943C21.6727 30.733 21.9966 32.642 22.6443 34.2216C23.2921 35.8011 24.2296 37.0057 25.4568 37.8352C26.6841 38.6648 28.1727 39.0795 29.9227 39.0795C31.4682 39.0795 32.775 38.8295 33.8432 38.3295C34.9227 37.8182 35.7409 37.0966 36.2977 36.1648C36.8546 35.233 37.133 34.1364 37.133 32.875L38.7012 33.0625H30.2125V26.9091H45.2637V31.5284C45.2637 34.6534 44.5989 37.3295 43.2693 39.5568C41.9512 41.7841 40.133 43.4943 37.8148 44.6875C35.508 45.8807 32.8546 46.4773 29.8546 46.4773C26.525 46.4773 23.5989 45.7557 21.0762 44.3125C18.5534 42.8693 16.5875 40.8125 15.1784 38.142C13.7693 35.4602 13.0648 32.2784 13.0648 28.5966C13.0648 25.733 13.4909 23.1932 14.3432 20.9773C15.1955 18.75 16.383 16.8636 17.9057 15.3182C19.4398 13.7727 21.2125 12.6023 23.2239 11.8068C25.2466 11.0114 27.4227 10.6136 29.7523 10.6136C31.775 10.6136 33.6557 10.9034 35.3943 11.483C37.1443 12.0625 38.6898 12.8807 40.0307 13.9375C41.383 14.9943 42.4796 16.25 43.3205 17.7045C44.1614 19.1591 44.6841 20.7557 44.8887 22.4943H36.3489ZM62.4583 46.4943C59.7083 46.4943 57.3446 45.9318 55.3673 44.8068C53.4014 43.6705 51.8844 42.0909 50.8162 40.0682C49.7594 38.0341 49.231 35.6761 49.231 32.9943C49.231 30.3011 49.7594 27.9432 50.8162 25.9205C51.8844 23.8864 53.4014 22.3068 55.3673 21.1818C57.3446 20.0455 59.7083 19.4773 62.4583 19.4773C65.2083 19.4773 67.5662 20.0455 69.5321 21.1818C71.5094 22.3068 73.0264 23.8864 74.0833 25.9205C75.1514 27.9432 75.6855 30.3011 75.6855 32.9943C75.6855 35.6761 75.1514 38.0341 74.0833 40.0682C73.0264 42.0909 71.5094 43.6705 69.5321 44.8068C67.5662 45.9318 65.2083 46.4943 62.4583 46.4943ZM62.5094 40.2045C63.5094 40.2045 64.356 39.8977 65.0492 39.2841C65.7423 38.6705 66.2708 37.8182 66.6344 36.7273C67.0094 35.6364 67.1969 34.375 67.1969 32.9432C67.1969 31.4886 67.0094 30.2159 66.6344 29.125C66.2708 28.0341 65.7423 27.1818 65.0492 26.5682C64.356 25.9545 63.5094 25.6477 62.5094 25.6477C61.4753 25.6477 60.6003 25.9545 59.8844 26.5682C59.1798 27.1818 58.6401 28.0341 58.2651 29.125C57.9014 30.2159 57.7196 31.4886 57.7196 32.9432C57.7196 34.375 57.9014 35.6364 58.2651 36.7273C58.6401 37.8182 59.1798 38.6705 59.8844 39.2841C60.6003 39.8977 61.4753 40.2045 62.5094 40.2045ZM94.7338 19.8182V25.9545H78.2168V19.8182H94.7338ZM81.677 13.5455H90.0122V37.767C90.0122 38.2784 90.0918 38.6932 90.2509 39.0114C90.4213 39.3182 90.6656 39.5398 90.9838 39.6761C91.302 39.8011 91.6827 39.8636 92.1259 39.8636C92.4441 39.8636 92.7793 39.8352 93.1316 39.7784C93.4952 39.7102 93.7679 39.6534 93.9497 39.608L95.2111 45.625C94.8134 45.7386 94.2509 45.8807 93.5236 46.0511C92.8077 46.2216 91.9497 46.3295 90.9497 46.375C88.9952 46.4659 87.3191 46.2386 85.9213 45.6932C84.535 45.1364 83.4725 44.2727 82.7338 43.1023C82.0066 41.9318 81.6543 40.4602 81.677 38.6875V13.5455ZM110.927 46.4943C108.166 46.4943 105.796 45.9261 103.819 44.7898C101.853 43.6534 100.342 42.0739 99.285 40.0511C98.2281 38.017 97.6997 35.6648 97.6997 32.9943C97.6997 30.3125 98.2281 27.9602 99.285 25.9375C100.353 23.9034 101.87 22.3182 103.836 21.1818C105.813 20.0455 108.171 19.4773 110.91 19.4773C113.33 19.4773 115.438 19.9148 117.234 20.7898C119.041 21.6648 120.45 22.9034 121.461 24.5057C122.484 26.0966 123.024 27.9659 123.08 30.1136H115.291C115.132 28.7727 114.677 27.7216 113.927 26.9602C113.188 26.1989 112.222 25.8182 111.029 25.8182C110.063 25.8182 109.217 26.0909 108.49 26.6364C107.762 27.1705 107.194 27.9659 106.785 29.0227C106.387 30.0682 106.188 31.3636 106.188 32.9091C106.188 34.4545 106.387 35.7614 106.785 36.8295C107.194 37.8864 107.762 38.6875 108.49 39.233C109.217 39.767 110.063 40.0341 111.029 40.0341C111.802 40.0341 112.484 39.8693 113.075 39.5398C113.677 39.2102 114.171 38.7273 114.558 38.0909C114.944 37.4432 115.188 36.6591 115.291 35.7386H123.08C123.001 37.8977 122.461 39.7841 121.461 41.3977C120.472 43.0114 119.08 44.267 117.285 45.1648C115.501 46.0511 113.382 46.4943 110.927 46.4943ZM135.681 31.0682V46H127.346V11.0909H135.409V24.625H135.698C136.289 23.0114 137.255 21.75 138.596 20.8409C139.948 19.9318 141.602 19.4773 143.556 19.4773C145.397 19.4773 146.999 19.8864 148.363 20.7045C149.727 21.5114 150.784 22.6534 151.534 24.1307C152.295 25.608 152.67 27.3352 152.659 29.3125V46H144.323V30.9489C144.335 29.4943 143.971 28.358 143.232 27.5398C142.494 26.7216 141.454 26.3125 140.113 26.3125C139.238 26.3125 138.465 26.5057 137.795 26.892C137.136 27.267 136.619 27.8068 136.244 28.5114C135.88 29.2159 135.693 30.0682 135.681 31.0682ZM165.242 46.4432C163.572 46.4432 162.089 46.1648 160.793 45.608C159.509 45.0398 158.492 44.1875 157.742 43.0511C157.004 41.9034 156.634 40.4659 156.634 38.7386C156.634 37.2841 156.89 36.0568 157.401 35.0568C157.913 34.0568 158.617 33.2443 159.515 32.6193C160.413 31.9943 161.447 31.5227 162.617 31.2045C163.788 30.875 165.038 30.6534 166.367 30.5398C167.856 30.4034 169.055 30.2614 169.964 30.1136C170.873 29.9545 171.532 29.733 171.941 29.4489C172.362 29.1534 172.572 28.7386 172.572 28.2045V28.1193C172.572 27.2443 172.271 26.5682 171.668 26.0909C171.066 25.6136 170.254 25.375 169.231 25.375C168.129 25.375 167.242 25.6136 166.572 26.0909C165.901 26.5682 165.475 27.2273 165.293 28.0682L157.606 27.7955C157.833 26.2045 158.418 24.7841 159.362 23.5341C160.316 22.2727 161.623 21.2841 163.282 20.5682C164.953 19.8409 166.958 19.4773 169.299 19.4773C170.97 19.4773 172.509 19.6761 173.918 20.0739C175.328 20.4602 176.555 21.0284 177.6 21.7784C178.646 22.517 179.453 23.4261 180.021 24.5057C180.6 25.5852 180.89 26.8182 180.89 28.2045V46H173.049V42.3523H172.845C172.379 43.2386 171.782 43.9886 171.055 44.6023C170.339 45.2159 169.492 45.6761 168.515 45.983C167.549 46.2898 166.458 46.4432 165.242 46.4432ZM167.816 40.9886C168.714 40.9886 169.521 40.8068 170.237 40.4432C170.964 40.0795 171.543 39.5795 171.975 38.9432C172.407 38.2955 172.623 37.5455 172.623 36.6932V34.2045C172.384 34.3295 172.095 34.4432 171.754 34.5455C171.424 34.6477 171.061 34.7443 170.663 34.8352C170.265 34.9261 169.856 35.0057 169.436 35.0739C169.015 35.142 168.612 35.2045 168.225 35.2614C167.441 35.3864 166.771 35.5795 166.214 35.8409C165.668 36.1023 165.248 36.4432 164.953 36.8636C164.668 37.2727 164.526 37.7614 164.526 38.3295C164.526 39.1932 164.833 39.8523 165.447 40.3068C166.072 40.7614 166.862 40.9886 167.816 40.9886ZM195.788 11.0909L195.004 35.3125H187.998L187.214 11.0909H195.788ZM191.492 46.4943C190.276 46.4943 189.231 46.0625 188.356 45.1989C187.492 44.3352 187.061 43.2898 187.061 42.0625C187.061 40.858 187.492 39.8295 188.356 38.9773C189.231 38.1136 190.276 37.6818 191.492 37.6818C192.663 37.6818 193.691 38.1136 194.578 38.9773C195.475 39.8295 195.924 40.858 195.924 42.0625C195.924 42.8807 195.714 43.625 195.293 44.2955C194.884 44.9659 194.345 45.5 193.674 45.8977C193.015 46.2955 192.288 46.4943 191.492 46.4943Z" fill="black"/>
<path d="M36.3489 22.4943L34.4179 23.0154L34.817 24.4943H36.3489V22.4943ZM35.4966 20.6023L33.8377 21.7195L33.8431 21.7274L33.8485 21.7353L35.4966 20.6023ZM32.2409 18.3182L31.6833 20.2389L31.6977 20.243L31.7121 20.247L32.2409 18.3182ZM25.525 19.2386L24.4227 17.5698L24.4156 17.5745L25.525 19.2386ZM22.6784 22.8182L24.5153 23.6093L24.5174 23.6044L22.6784 22.8182ZM22.6443 34.2216L24.4948 33.4628L22.6443 34.2216ZM25.4568 37.8352L26.5768 36.1782H26.5768L25.4568 37.8352ZM33.8432 38.3295L34.6911 40.1409L34.6994 40.137L33.8432 38.3295ZM36.2977 36.1648L34.5809 35.1389L36.2977 36.1648ZM37.133 32.875L37.3704 30.8891L35.133 30.6216V32.875H37.133ZM38.7012 33.0625V35.0625L38.9386 31.0766L38.7012 33.0625ZM30.2125 33.0625H28.2125V35.0625H30.2125V33.0625ZM30.2125 26.9091V24.9091H28.2125V26.9091H30.2125ZM45.2637 26.9091H47.2637V24.9091H45.2637V26.9091ZM43.2693 39.5568L41.552 38.5317L41.5482 38.5382L43.2693 39.5568ZM37.8148 44.6875L36.8995 42.9092L36.8959 42.9111L37.8148 44.6875ZM21.0762 44.3125L22.0693 42.5765L21.0762 44.3125ZM15.1784 38.142L13.4079 39.0723L13.4096 39.0754L15.1784 38.142ZM14.3432 20.9773L16.2099 21.6952L16.2111 21.692L14.3432 20.9773ZM17.9057 15.3182L16.4863 13.9092L16.481 13.9145L17.9057 15.3182ZM23.2239 11.8068L22.4919 9.94556L22.4884 9.94698L23.2239 11.8068ZM35.3943 11.483L34.7619 13.3803L34.7656 13.3815L35.3943 11.483ZM40.0307 13.9375L38.7927 15.5083L38.7992 15.5133L40.0307 13.9375ZM43.3205 17.7045L41.589 18.7056L41.589 18.7056L43.3205 17.7045ZM44.8887 22.4943V24.4943H47.1377L46.875 22.2606L44.8887 22.4943ZM38.2798 21.9733C38.0347 21.0649 37.6624 20.2222 37.1447 19.4692L33.8485 21.7353C34.0808 22.0733 34.2767 22.4919 34.4179 23.0154L38.2798 21.9733ZM37.1555 19.4851C36.646 18.7285 36.0157 18.0822 35.272 17.5555L32.9599 20.8195C33.3071 21.0655 33.5972 21.3624 33.8377 21.7195L37.1555 19.4851ZM35.272 17.5555C34.5194 17.0224 33.6782 16.6385 32.7698 16.3894L31.7121 20.247C32.2127 20.3843 32.6215 20.5799 32.9599 20.8195L35.272 17.5555ZM32.7985 16.3975C31.8886 16.1333 30.9254 16.0114 29.9227 16.0114V20.0114C30.602 20.0114 31.1842 20.094 31.6833 20.2389L32.7985 16.3975ZM29.9227 16.0114C27.8944 16.0114 26.0327 16.5063 24.4227 17.5698L26.6273 20.9074C27.4946 20.3346 28.5648 20.0114 29.9227 20.0114V16.0114ZM24.4156 17.5745C22.8169 18.6403 21.6382 20.1637 20.8394 22.032L24.5174 23.6044C25.0596 22.3363 25.7786 21.4733 26.6344 20.9027L24.4156 17.5745ZM20.8415 22.0271C20.0354 23.899 19.6727 26.0763 19.6727 28.4943H23.6727C23.6727 26.4578 23.9805 24.851 24.5153 23.6093L20.8415 22.0271ZM19.6727 28.4943C19.6727 30.9162 20.0219 33.0978 20.7939 34.9804L24.4948 33.4628C23.9713 32.1863 23.6727 30.5497 23.6727 28.4943H19.6727ZM20.7939 34.9804C21.5678 36.8677 22.7352 38.4096 24.3368 39.4922L26.5768 36.1782C25.7239 35.6017 25.0163 34.7346 24.4948 33.4628L20.7939 34.9804ZM24.3368 39.4922C25.9512 40.5834 27.8475 41.0795 29.9227 41.0795V37.0795C28.498 37.0795 27.417 36.7461 26.5768 36.1782L24.3368 39.4922ZM29.9227 41.0795C31.6741 41.0795 33.2886 40.7974 34.6911 40.1409L32.9953 36.5182C32.2615 36.8617 31.2623 37.0795 29.9227 37.0795V41.0795ZM34.6994 40.137C36.0994 39.4738 37.2343 38.4964 38.0146 37.1907L34.5809 35.1389C34.2475 35.6968 33.7461 36.1625 32.987 36.5221L34.6994 40.137ZM38.0146 37.1907C38.785 35.9015 39.133 34.4383 39.133 32.875H35.133C35.133 33.8344 34.9242 34.5644 34.5809 35.1389L38.0146 37.1907ZM36.8955 34.8609L38.4637 35.0484L38.9386 31.0766L37.3704 30.8891L36.8955 34.8609ZM38.7012 31.0625H30.2125V35.0625H38.7012V31.0625ZM32.2125 33.0625V26.9091H28.2125V33.0625H32.2125ZM30.2125 28.9091H45.2637V24.9091H30.2125V28.9091ZM43.2637 26.9091V31.5284H47.2637V26.9091H43.2637ZM43.2637 31.5284C43.2637 34.3666 42.662 36.6723 41.552 38.5317L44.9866 40.5819C46.5358 37.9867 47.2637 34.9403 47.2637 31.5284H43.2637ZM41.5482 38.5382C40.4233 40.4389 38.8855 41.887 36.8995 42.9092L38.7301 46.4658C41.3804 45.1016 43.479 43.1293 44.9905 40.5755L41.5482 38.5382ZM36.8959 42.9111C34.9143 43.9361 32.5846 44.4773 29.8546 44.4773V48.4773C33.1245 48.4773 36.1017 47.8253 38.7336 46.4639L36.8959 42.9111ZM29.8546 44.4773C26.8219 44.4773 24.2479 43.8228 22.0693 42.5765L20.083 46.0485C22.9499 47.6886 26.2281 48.4773 29.8546 48.4773V44.4773ZM22.0693 42.5765C19.8893 41.3294 18.1865 39.5571 16.9473 37.2087L13.4096 39.0754C14.9886 42.0679 17.2176 44.4092 20.083 46.0485L22.0693 42.5765ZM16.9489 37.2118C15.7197 34.8723 15.0648 32.0234 15.0648 28.5966H11.0648C11.0648 32.5335 11.819 36.0481 13.4079 39.0723L16.9489 37.2118ZM15.0648 28.5966C15.0648 25.9292 15.4618 23.6402 16.2099 21.6952L12.4765 20.2593C11.52 22.7462 11.0648 25.5367 11.0648 28.5966H15.0648ZM16.2111 21.692C16.9746 19.6968 18.0198 18.052 19.3303 16.7219L16.481 13.9145C14.7462 15.6753 13.4163 17.8032 12.4753 20.2625L16.2111 21.692ZM19.3251 16.7272C20.6662 15.3762 22.2065 14.3599 23.9594 13.6667L22.4884 9.94698C20.2186 10.8446 18.2134 12.1693 16.4863 13.9092L19.3251 16.7272ZM23.9558 13.6681C25.7291 12.9707 27.6551 12.6136 29.7523 12.6136V8.61364C27.1904 8.61364 24.7641 9.05202 22.4919 9.94557L23.9558 13.6681ZM29.7523 12.6136C31.5822 12.6136 33.2472 12.8754 34.7619 13.3803L36.0268 9.58559C34.0642 8.9314 31.9678 8.61364 29.7523 8.61364V12.6136ZM34.7656 13.3815C36.3126 13.8939 37.6483 14.6064 38.7927 15.5083L41.2687 12.3667C39.7312 11.155 37.976 10.2311 36.0231 9.58436L34.7656 13.3815ZM38.7992 15.5133C39.9539 16.4158 40.8792 17.4777 41.589 18.7056L45.0519 16.7035C44.08 15.0223 42.812 13.5728 41.2622 12.3617L38.7992 15.5133ZM41.589 18.7056C42.2879 19.9144 42.7283 21.2482 42.9024 22.728L46.875 22.2606C46.64 20.2631 46.0349 18.4037 45.0519 16.7035L41.589 18.7056ZM44.8887 20.4943H36.3489V24.4943H44.8887V20.4943ZM55.3673 44.8068L54.3664 46.5384L54.3783 46.5451L55.3673 44.8068ZM50.8162 40.0682L49.0414 40.9903L49.0477 41.0021L50.8162 40.0682ZM50.8162 25.9205L49.0455 24.9906L49.0436 24.9943L50.8162 25.9205ZM55.3673 21.1818L56.3607 22.9177L56.3639 22.9158L55.3673 21.1818ZM69.5321 21.1818L68.5312 22.9134L68.5431 22.9201L69.5321 21.1818ZM74.0833 25.9205L72.3085 26.8426L72.3147 26.8544L74.0833 25.9205ZM74.0833 40.0682L72.3126 39.1383L72.3106 39.142L74.0833 40.0682ZM69.5321 44.8068L70.5255 46.5427L70.5287 46.5408L69.5321 44.8068ZM65.0492 39.2841L63.7235 37.7866V37.7866L65.0492 39.2841ZM66.6344 36.7273L64.743 36.0771L64.74 36.086L64.737 36.0948L66.6344 36.7273ZM66.6344 29.125L64.737 29.7575L64.74 29.7663L64.743 29.7752L66.6344 29.125ZM65.0492 26.5682L66.3748 25.0707V25.0707L65.0492 26.5682ZM59.8844 26.5682L58.5828 25.0497L58.5768 25.0548L58.5708 25.06L59.8844 26.5682ZM58.2651 29.125L56.3737 28.4748L56.3707 28.4837L56.3677 28.4925L58.2651 29.125ZM58.2651 36.7273L56.3677 37.3597L56.3707 37.3686L56.3737 37.3774L58.2651 36.7273ZM59.8844 39.2841L58.5708 40.7923L58.5768 40.7975L58.5828 40.8026L59.8844 39.2841ZM62.4583 44.4943C59.9828 44.4943 57.9751 43.9895 56.3564 43.0685L54.3783 46.5451C56.7141 47.8741 59.4337 48.4943 62.4583 48.4943V44.4943ZM56.3682 43.0753C54.7307 42.1287 53.4786 40.8268 52.5848 39.1342L49.0477 41.0021C50.2902 43.355 52.0722 45.2122 54.3665 46.5384L56.3682 43.0753ZM52.591 39.1461C51.7054 37.4416 51.231 35.4097 51.231 32.9943H47.231C47.231 35.9426 47.8134 38.6266 49.0415 40.9903L52.591 39.1461ZM51.231 32.9943C51.231 30.5657 51.7061 28.5362 52.5888 26.8466L49.0436 24.9943C47.8127 27.3502 47.231 30.0366 47.231 32.9943H51.231ZM52.5869 26.8503C53.4807 25.1483 54.7304 23.8507 56.3607 22.9177L54.374 19.4459C52.0725 20.763 50.2881 22.6244 49.0455 24.9906L52.5869 26.8503ZM56.3639 22.9158C57.9812 21.9864 59.9861 21.4773 62.4583 21.4773V17.4773C59.4305 17.4773 56.7081 18.1045 54.3708 19.4478L56.3639 22.9158ZM62.4583 21.4773C64.9309 21.4773 66.9278 21.9865 68.5312 22.9134L70.533 19.4503C68.2046 18.1044 65.4856 17.4773 62.4583 17.4773V21.4773ZM68.5431 22.9201C70.1825 23.8529 71.428 25.1478 72.3085 26.8425L75.858 24.9984C74.6249 22.6249 72.8363 20.7607 70.5212 19.4435L68.5431 22.9201ZM72.3147 26.8544C73.2061 28.5422 73.6855 30.5689 73.6855 32.9943H77.6855C77.6855 30.0333 77.0968 27.3441 75.8518 24.9865L72.3147 26.8544ZM73.6855 32.9943C73.6855 35.4065 73.2068 37.4355 72.3126 39.1383L75.854 40.998C77.0961 38.6327 77.6855 35.9458 77.6855 32.9943H73.6855ZM72.3106 39.142C71.4301 40.8273 70.1822 42.1264 68.5356 43.0728L70.5287 46.5408C72.8366 45.2145 74.6228 43.3545 75.8559 40.9943L72.3106 39.142ZM68.5388 43.0709C66.9339 43.9893 64.9341 44.4943 62.4583 44.4943V48.4943C65.4824 48.4943 68.1985 47.8743 70.5255 46.5427L68.5388 43.0709ZM62.5094 42.2045C63.9554 42.2045 65.2854 41.7461 66.3748 40.7816L63.7235 37.7866C63.4266 38.0494 63.0634 38.2045 62.5094 38.2045V42.2045ZM66.3748 40.7816C67.388 39.8847 68.0836 38.7043 68.5318 37.3597L64.737 36.0948C64.4579 36.9321 64.0967 37.4562 63.7235 37.7866L66.3748 40.7816ZM68.5258 37.3774C68.9876 36.0338 69.1969 34.545 69.1969 32.9432H65.1969C65.1969 34.205 65.0311 35.2389 64.743 36.0771L68.5258 37.3774ZM69.1969 32.9432C69.1969 31.3225 68.9886 29.8214 68.5258 28.4748L64.743 29.7752C65.0301 30.6104 65.1969 31.6547 65.1969 32.9432H69.1969ZM68.5318 28.4925C68.0836 27.148 67.388 25.9675 66.3748 25.0707L63.7235 28.0657C64.0967 28.3961 64.4579 28.9202 64.737 29.7575L68.5318 28.4925ZM66.3748 25.0707C65.2854 24.1062 63.9554 23.6477 62.5094 23.6477V27.6477C63.0634 27.6477 63.4266 27.8029 63.7235 28.0657L66.3748 25.0707ZM62.5094 23.6477C61.0475 23.6477 59.6972 24.0945 58.5828 25.0497L61.186 28.0867C61.5034 27.8146 61.9031 27.6477 62.5094 27.6477V23.6477ZM58.5708 25.06C57.5463 25.9523 56.8362 27.1294 56.3737 28.4748L60.1564 29.7752C60.444 28.9388 60.8134 28.4113 61.198 28.0763L58.5708 25.06ZM56.3677 28.4925C55.9208 29.8332 55.7196 31.3279 55.7196 32.9432H59.7196C59.7196 31.6493 59.882 30.5986 60.1624 29.7575L56.3677 28.4925ZM55.7196 32.9432C55.7196 34.5395 55.9218 36.022 56.3677 37.3597L60.1624 36.0948C59.8811 35.2508 59.7196 34.2105 59.7196 32.9432H55.7196ZM56.3737 37.3774C56.8362 38.7228 57.5463 39.9 58.5708 40.7923L61.198 37.7759C60.8134 37.441 60.444 36.9135 60.1564 36.0771L56.3737 37.3774ZM58.5828 40.8026C59.6972 41.7578 61.0475 42.2045 62.5094 42.2045V38.2045C61.9031 38.2045 61.5034 38.0377 61.186 37.7656L58.5828 40.8026ZM94.7338 19.8182H96.7338V17.8182H94.7338V19.8182ZM94.7338 25.9545V27.9545H96.7338V25.9545H94.7338ZM78.2168 25.9545H76.2168V27.9545H78.2168V25.9545ZM78.2168 19.8182V17.8182H76.2168V19.8182H78.2168ZM81.677 13.5455V11.5455H79.677V13.5455H81.677ZM90.0122 13.5455H92.0122V11.5455H90.0122V13.5455ZM90.2509 39.0114L88.462 39.9058L88.4815 39.9447L88.5026 39.9827L90.2509 39.0114ZM90.9838 39.6761L90.196 41.5144L90.2241 41.5265L90.2525 41.5376L90.9838 39.6761ZM93.1316 39.7784L93.45 41.7529L93.4751 41.7488L93.5001 41.7442L93.1316 39.7784ZM93.9497 39.608L95.9072 39.1976L95.4808 37.1636L93.4647 37.6677L93.9497 39.608ZM95.2111 45.625L95.7605 47.548L97.5505 47.0366L97.1685 45.2147L95.2111 45.625ZM93.5236 46.0511L93.0672 44.1039L93.0604 44.1055L93.5236 46.0511ZM90.9497 46.375L90.8589 44.3771L90.8568 44.3772L90.9497 46.375ZM85.9213 45.6932L85.1759 47.5491L85.1851 47.5528L85.1942 47.5563L85.9213 45.6932ZM82.7338 43.1023L81.035 44.1578L81.0425 44.1696L82.7338 43.1023ZM81.677 38.6875L83.6768 38.7131L83.677 38.7003V38.6875H81.677ZM92.7338 19.8182V25.9545H96.7338V19.8182H92.7338ZM94.7338 23.9545H78.2168V27.9545H94.7338V23.9545ZM80.2168 25.9545V19.8182H76.2168V25.9545H80.2168ZM78.2168 21.8182H94.7338V17.8182H78.2168V21.8182ZM81.677 15.5455H90.0122V11.5455H81.677V15.5455ZM88.0122 13.5455V37.767H92.0122V13.5455H88.0122ZM88.0122 37.767C88.0122 38.4625 88.1169 39.2155 88.462 39.9058L92.0397 38.1169C92.0556 38.1488 92.0476 38.1451 92.0361 38.0849C92.0245 38.0244 92.0122 37.9217 92.0122 37.767H88.0122ZM88.5026 39.9827C88.885 40.6711 89.4643 41.2009 90.196 41.5144L91.7717 37.8378C91.8062 37.8526 91.8555 37.8808 91.9056 37.9262C91.9554 37.9714 91.9851 38.0148 91.9992 38.0401L88.5026 39.9827ZM90.2525 41.5376C90.8614 41.7768 91.503 41.8636 92.1259 41.8636V37.8636C91.8624 37.8636 91.7426 37.8254 91.7151 37.8146L90.2525 41.5376ZM92.1259 41.8636C92.5626 41.8636 93.0049 41.8247 93.45 41.7529L92.8131 37.8039C92.5537 37.8458 92.3255 37.8636 92.1259 37.8636V41.8636ZM93.5001 41.7442C93.873 41.6742 94.1933 41.6086 94.4348 41.5482L93.4647 37.6677C93.3426 37.6982 93.1173 37.7462 92.763 37.8127L93.5001 41.7442ZM91.9923 40.0183L93.2536 46.0353L97.1685 45.2147L95.9072 39.1976L91.9923 40.0183ZM94.6617 43.702C94.3099 43.8024 93.7838 43.936 93.0672 44.1039L93.98 47.9984C94.718 47.8254 95.3168 47.6748 95.7605 47.548L94.6617 43.702ZM93.0604 44.1055C92.5014 44.2386 91.7749 44.3354 90.8589 44.3771L91.0406 48.3729C92.1245 48.3237 93.114 48.2046 93.9868 47.9967L93.0604 44.1055ZM90.8568 44.3772C89.1007 44.4588 87.7188 44.2477 86.6484 43.83L85.1942 47.5563C86.9193 48.2295 88.8897 48.473 91.0427 48.3728L90.8568 44.3772ZM86.6667 43.8373C85.638 43.4241 84.9212 42.8208 84.4252 42.0349L81.0425 44.1696C82.0238 45.7246 83.4319 46.8486 85.1759 47.5491L86.6667 43.8373ZM84.4326 42.0467C83.9571 41.2815 83.6576 40.2122 83.6768 38.7131L79.6772 38.6619C79.6509 40.7083 80.056 42.5821 81.0351 44.1578L84.4326 42.0467ZM83.677 38.6875V13.5455H79.677V38.6875H83.677ZM103.819 44.7898L102.818 46.5213L102.822 46.5238L103.819 44.7898ZM99.285 40.0511L97.5102 40.9732L97.5123 40.9773L99.285 40.0511ZM99.285 25.9375L97.5143 25.0076L97.5123 25.0113L99.285 25.9375ZM103.836 21.1818L102.84 19.4478L102.835 19.4503L103.836 21.1818ZM117.234 20.7898L116.358 22.5876L116.362 22.5898L117.234 20.7898ZM121.461 24.5057L119.77 25.5732L119.774 25.5802L119.779 25.5872L121.461 24.5057ZM123.08 30.1136V32.1136H125.134L125.08 30.0607L123.08 30.1136ZM115.291 30.1136L113.305 30.3493L113.514 32.1136H115.291V30.1136ZM113.927 26.9602L112.492 28.3529L112.497 28.3583L112.502 28.3638L113.927 26.9602ZM108.49 26.6364L109.673 28.2484L109.681 28.2424L109.69 28.2364L108.49 26.6364ZM106.785 29.0227L104.92 28.3007L104.916 28.3116L106.785 29.0227ZM106.785 36.8295L104.911 37.5274L104.915 37.5395L104.92 37.5515L106.785 36.8295ZM108.49 39.233L107.29 40.833L107.298 40.839L107.306 40.845L108.49 39.233ZM113.075 39.5398L112.115 37.7852L112.108 37.7891L112.101 37.793L113.075 39.5398ZM114.558 38.0909L116.267 39.1289L116.271 39.1222L116.275 39.1155L114.558 38.0909ZM115.291 35.7386V33.7386H113.501L113.303 35.5178L115.291 35.7386ZM123.08 35.7386L125.079 35.8123L125.155 33.7386H123.08V35.7386ZM121.461 41.3977L119.761 40.3442L119.756 40.3529L121.461 41.3977ZM117.285 45.1648L118.175 46.9559L118.179 46.9536L117.285 45.1648ZM110.927 44.4943C108.442 44.4943 106.432 43.9845 104.816 43.0557L102.822 46.5238C105.161 47.8678 107.889 48.4943 110.927 48.4943V44.4943ZM104.82 43.0582C103.184 42.1127 101.94 40.8133 101.058 39.125L97.5123 40.9773C98.7439 43.3344 100.522 45.1941 102.818 46.5213L104.82 43.0582ZM101.06 39.1291C100.174 37.4234 99.6997 35.3968 99.6997 32.9943H95.6997C95.6997 35.9327 96.2827 38.6107 97.5102 40.9732L101.06 39.1291ZM99.6997 32.9943C99.6997 30.5786 100.174 28.5544 101.058 26.8637L97.5123 25.0113C96.282 27.3661 95.6997 30.0464 95.6997 32.9943H99.6997ZM101.056 26.8674C101.95 25.1637 103.202 23.8582 104.837 22.9134L102.835 19.4503C100.538 20.7781 98.756 22.6431 97.5143 25.0076L101.056 26.8674ZM104.833 22.9158C106.451 21.9857 108.451 21.4773 110.91 21.4773V17.4773C107.892 17.4773 105.176 18.1052 102.84 19.4478L104.833 22.9158ZM110.91 21.4773C113.09 21.4773 114.887 21.8709 116.358 22.5876L118.11 18.9919C115.99 17.9587 113.571 17.4773 110.91 17.4773V21.4773ZM116.362 22.5898C117.854 23.3121 118.97 24.306 119.77 25.5732L123.152 23.4381C121.93 21.5009 120.228 20.0174 118.106 18.9897L116.362 22.5898ZM119.779 25.5872C120.578 26.8305 121.033 28.3334 121.081 30.1665L125.08 30.0607C125.015 27.5984 124.39 25.3626 123.143 23.4242L119.779 25.5872ZM123.08 28.1136H115.291V32.1136H123.08V28.1136ZM117.277 29.878C117.079 28.2143 116.488 26.7096 115.352 25.5567L112.502 28.3638C112.866 28.7336 113.184 29.3312 113.305 30.3493L117.277 29.878ZM115.362 25.5676C114.199 24.3679 112.689 23.8182 111.029 23.8182V27.8182C111.756 27.8182 112.178 28.0299 112.492 28.3529L115.362 25.5676ZM111.029 23.8182C109.659 23.8182 108.385 24.2145 107.29 25.0364L109.69 28.2364C110.048 27.9673 110.467 27.8182 111.029 27.8182V23.8182ZM107.306 25.0244C106.201 25.8355 105.431 26.979 104.92 28.3007L108.65 29.7447C108.957 28.9528 109.323 28.5055 109.673 28.2484L107.306 25.0244ZM104.916 28.3116C104.405 29.6528 104.188 31.2068 104.188 32.9091H108.188C108.188 31.5204 108.369 30.4836 108.654 29.7339L104.916 28.3116ZM104.188 32.9091C104.188 34.6135 104.406 36.1721 104.911 37.5274L108.659 36.1317C108.368 35.3506 108.188 34.2956 108.188 32.9091H104.188ZM104.92 37.5515C105.431 38.8718 106.197 40.0134 107.29 40.833L109.69 37.633C109.328 37.3616 108.957 36.901 108.65 36.1076L104.92 37.5515ZM107.306 40.845C108.401 41.6493 109.669 42.0341 111.029 42.0341V38.0341C110.457 38.0341 110.033 37.8848 109.673 37.6209L107.306 40.845ZM111.029 42.0341C112.094 42.0341 113.12 41.8045 114.049 41.2865L112.101 37.793C111.848 37.9341 111.51 38.0341 111.029 38.0341V42.0341ZM114.035 41.2943C114.971 40.7818 115.714 40.0397 116.267 39.1289L112.848 37.053C112.628 37.4149 112.383 37.6386 112.115 37.7852L114.035 41.2943ZM116.275 39.1155C116.838 38.1729 117.152 37.1008 117.278 35.9595L113.303 35.5178C113.225 36.2173 113.051 36.7135 112.84 37.0664L116.275 39.1155ZM115.291 37.7386H123.08V33.7386H115.291V37.7386ZM121.082 35.665C121.013 37.5258 120.554 39.0646 119.761 40.3442L123.161 42.4513C124.368 40.5036 124.989 38.2697 125.079 35.8123L121.082 35.665ZM119.756 40.3529C118.975 41.6279 117.873 42.6349 116.391 43.3759L118.179 46.9536C120.288 45.8992 121.97 44.3948 123.166 42.4426L119.756 40.3529ZM116.395 43.3736C114.944 44.0944 113.143 44.4943 110.927 44.4943V48.4943C113.62 48.4943 116.057 48.0078 118.175 46.9559L116.395 43.3736ZM135.681 31.0682L133.681 31.0455L133.681 31.0568V31.0682H135.681ZM135.681 46V48H137.681V46H135.681ZM127.346 46H125.346V48H127.346V46ZM127.346 11.0909V9.09091H125.346V11.0909H127.346ZM135.409 11.0909H137.409V9.09091H135.409V11.0909ZM135.409 24.625H133.409V26.625H135.409V24.625ZM135.698 24.625V26.625H137.096L137.576 25.3127L135.698 24.625ZM138.596 20.8409L137.48 19.1811L137.474 19.1855L138.596 20.8409ZM148.363 20.7045L147.334 22.4196L147.345 22.4258L148.363 20.7045ZM151.534 24.1307L149.75 25.0361L149.756 25.0469L151.534 24.1307ZM152.659 29.3125L150.659 29.301V29.3125H152.659ZM152.659 46V48H154.659V46H152.659ZM144.323 46H142.323V48H144.323V46ZM144.323 30.9489L142.323 30.9332L142.323 30.9411V30.9489H144.323ZM143.232 27.5398L141.748 28.88L143.232 27.5398ZM137.795 26.892L138.784 28.6304L138.794 28.6249L137.795 26.892ZM136.244 28.5114L134.478 27.5717L134.472 27.5828L134.467 27.5941L136.244 28.5114ZM133.681 31.0682V46H137.681V31.0682H133.681ZM135.681 44H127.346V48H135.681V44ZM129.346 46V11.0909H125.346V46H129.346ZM127.346 13.0909H135.409V9.09091H127.346V13.0909ZM133.409 11.0909V24.625H137.409V11.0909H133.409ZM135.409 26.625H135.698V22.625H135.409V26.625ZM137.576 25.3127C138.032 24.0675 138.746 23.1553 139.718 22.4963L137.474 19.1855C135.764 20.3447 134.546 21.9552 133.82 23.9373L137.576 25.3127ZM139.712 22.5007C140.673 21.8544 141.919 21.4773 143.556 21.4773V17.4773C141.285 17.4773 139.223 18.0092 137.48 19.1811L139.712 22.5007ZM143.556 21.4773C145.093 21.4773 146.328 21.8156 147.334 22.4195L149.392 18.9896C147.671 17.9571 145.702 17.4773 143.556 17.4773V21.4773ZM147.345 22.4258C148.366 23.0299 149.164 23.8817 149.75 25.0361L153.317 23.2253C152.403 21.4251 151.088 19.9929 149.382 18.9833L147.345 22.4258ZM149.756 25.0469C150.344 26.1877 150.668 27.5854 150.659 29.301L154.659 29.324C154.671 27.085 154.246 25.0282 153.311 23.2144L149.756 25.0469ZM150.659 29.3125V46H154.659V29.3125H150.659ZM152.659 44H144.323V48H152.659V44ZM146.323 46V30.9489H142.323V46H146.323ZM146.323 30.9645C146.337 29.1732 145.887 27.4952 144.717 26.1996L141.748 28.88C142.056 29.2207 142.332 29.8155 142.323 30.9332L146.323 30.9645ZM144.717 26.1996C143.518 24.872 141.887 24.3125 140.113 24.3125V28.3125C141.021 28.3125 141.469 28.5712 141.748 28.88L144.717 26.1996ZM140.113 24.3125C138.934 24.3125 137.809 24.5759 136.796 25.1592L138.794 28.6249C139.122 28.4355 139.542 28.3125 140.113 28.3125V24.3125ZM136.806 25.1537C135.8 25.7261 135.021 26.5512 134.478 27.5717L138.009 29.4511C138.216 29.0625 138.472 28.808 138.784 28.6304L136.806 25.1537ZM134.467 27.5941C133.928 28.6382 133.695 29.8133 133.681 31.0455L137.681 31.0909C137.69 30.3231 137.833 29.7936 138.021 29.4286L134.467 27.5941ZM160.793 45.608L159.984 47.4369L159.994 47.4412L160.004 47.4454L160.793 45.608ZM157.742 43.0511L156.061 44.1335L156.067 44.1432L156.073 44.1528L157.742 43.0511ZM157.401 35.0568L155.621 34.1462L157.401 35.0568ZM159.515 32.6193L160.658 34.2607L159.515 32.6193ZM162.617 31.2045L163.142 33.1345L163.151 33.1321L163.159 33.1297L162.617 31.2045ZM166.367 30.5398L166.538 32.5325L166.55 32.5314L166.367 30.5398ZM169.964 30.1136L170.285 32.0877L170.297 32.0858L170.309 32.0837L169.964 30.1136ZM171.941 29.4489L173.082 31.0916L173.091 31.0852L171.941 29.4489ZM171.668 26.0909L172.911 24.5234L171.668 26.0909ZM166.572 26.0909L165.412 24.4616V24.4616L166.572 26.0909ZM165.293 28.0682L165.223 30.0669L166.895 30.1262L167.248 28.4908L165.293 28.0682ZM157.606 27.7955L155.626 27.5126L155.311 29.7153L157.535 29.7942L157.606 27.7955ZM159.362 23.5341L157.767 22.3272L157.765 22.3295L159.362 23.5341ZM163.282 20.5682L164.075 22.4045L164.08 22.4019L163.282 20.5682ZM173.918 20.0739L173.375 21.9987L173.382 22.0007L173.39 22.0027L173.918 20.0739ZM177.6 21.7784L176.434 23.4035L176.44 23.4077L176.446 23.4119L177.6 21.7784ZM180.021 24.5057L178.251 25.4372L178.255 25.4444L178.259 25.4517L180.021 24.5057ZM180.89 46V48H182.89V46H180.89ZM173.049 46H171.049V48H173.049V46ZM173.049 42.3523H175.049V40.3523H173.049V42.3523ZM172.845 42.3523V40.3523H171.636L171.074 41.4217L172.845 42.3523ZM171.055 44.6023L169.765 43.0737L169.759 43.0787L169.753 43.0838L171.055 44.6023ZM168.515 45.983L167.916 44.0748L167.91 44.0768L168.515 45.983ZM170.237 40.4432L169.342 38.6543L169.331 38.66L170.237 40.4432ZM171.975 38.9432L173.63 40.0662L173.635 40.0594L173.639 40.0526L171.975 38.9432ZM172.623 34.2045H174.623V30.8992L171.695 32.4329L172.623 34.2045ZM171.754 34.5455L171.179 32.6298L171.17 32.6325L171.161 32.6353L171.754 34.5455ZM169.436 35.0739L169.756 37.0481V37.0481L169.436 35.0739ZM168.225 35.2614L167.934 33.2826L167.922 33.2844L167.91 33.2863L168.225 35.2614ZM166.214 35.8409L165.364 34.0304L165.357 34.0338L165.35 34.0373L166.214 35.8409ZM164.953 36.8636L163.316 35.7137L163.31 35.7228L164.953 36.8636ZM165.447 40.3068L164.256 41.9139L164.263 41.9191L164.271 41.9243L165.447 40.3068ZM165.242 44.4432C163.794 44.4432 162.588 44.2022 161.583 43.7705L160.004 47.4454C161.59 48.1274 163.35 48.4432 165.242 48.4432V44.4432ZM161.603 43.779C160.657 43.3607 159.944 42.7556 159.412 41.9495L156.073 44.1528C157.041 45.6194 158.361 46.7188 159.984 47.4369L161.603 43.779ZM159.424 41.9688C158.942 41.2196 158.634 40.1834 158.634 38.7386H154.634C154.634 40.7484 155.065 42.5872 156.061 44.1335L159.424 41.9688ZM158.634 38.7386C158.634 37.5104 158.851 36.6148 159.182 35.9674L155.621 34.1462C154.929 35.4989 154.634 37.0578 154.634 38.7386H158.634ZM159.182 35.9674C159.548 35.2515 160.037 34.693 160.658 34.2607L158.372 30.9779C157.198 31.7956 156.277 32.8621 155.621 34.1462L159.182 35.9674ZM160.658 34.2607C161.348 33.78 162.169 33.3991 163.142 33.1345L162.093 29.2746C160.725 29.6463 159.477 30.2086 158.372 30.9779L160.658 34.2607ZM163.159 33.1297C164.197 32.8375 165.322 32.6364 166.538 32.5325L166.197 28.547C164.754 28.6704 163.378 28.9125 162.075 29.2794L163.159 33.1297ZM166.55 32.5314C168.06 32.3931 169.311 32.2461 170.285 32.0877L169.643 28.1395C168.799 28.2767 167.652 28.4137 166.185 28.5481L166.55 32.5314ZM170.309 32.0837C171.301 31.9101 172.309 31.6284 173.082 31.0916L170.8 27.8061C170.803 27.8041 170.784 27.818 170.732 27.8425C170.68 27.8669 170.606 27.8978 170.503 27.9324C170.294 28.0026 170.004 28.0762 169.619 28.1436L170.309 32.0837ZM173.091 31.0852C174.069 30.3982 174.572 29.3596 174.572 28.2045H170.572C170.572 28.2068 170.572 28.1868 170.58 28.1501C170.588 28.1125 170.604 28.0644 170.63 28.012C170.688 27.8973 170.762 27.833 170.791 27.8125L173.091 31.0852ZM174.572 28.2045V28.1193H170.572V28.2045H174.572ZM174.572 28.1193C174.572 26.7293 174.062 25.4358 172.911 24.5234L170.426 27.6584C170.48 27.7005 170.572 27.7593 170.572 28.1193H174.572ZM172.911 24.5234C171.853 23.6856 170.555 23.375 169.231 23.375V27.375C169.952 27.375 170.279 27.5417 170.426 27.6584L172.911 24.5234ZM169.231 23.375C167.852 23.375 166.519 23.6735 165.412 24.4616L167.732 27.7202C167.966 27.5538 168.405 27.375 169.231 27.375V23.375ZM165.412 24.4616C164.316 25.242 163.621 26.3417 163.339 27.6455L167.248 28.4908C167.33 28.1129 167.487 27.8943 167.732 27.7202L165.412 24.4616ZM165.364 26.0694L157.677 25.7967L157.535 29.7942L165.223 30.0669L165.364 26.0694ZM159.586 28.0783C159.767 26.813 160.224 25.7115 160.958 24.7387L157.765 22.3295C156.613 23.8567 155.9 25.5961 155.626 27.5126L159.586 28.0783ZM160.956 24.741C161.674 23.7925 162.687 23.0032 164.075 22.4045L162.49 18.7318C160.559 19.5649 158.958 20.753 157.767 22.3272L160.956 24.741ZM164.08 22.4019C165.438 21.8108 167.158 21.4773 169.299 21.4773V17.4773C166.759 17.4773 164.467 17.871 162.484 18.7344L164.08 22.4019ZM169.299 21.4773C170.811 21.4773 172.166 21.6573 173.375 21.9987L174.462 18.1491C172.853 17.695 171.128 17.4773 169.299 17.4773V21.4773ZM173.39 22.0027C174.601 22.3348 175.606 22.8091 176.434 23.4035L178.766 20.1533C177.504 19.2477 176.054 18.5857 174.447 18.1451L173.39 22.0027ZM176.446 23.4119C177.247 23.9776 177.837 24.6508 178.251 25.4372L181.791 23.5742C181.068 22.2015 180.044 21.0565 178.754 20.145L176.446 23.4119ZM178.259 25.4517C178.662 26.2039 178.89 27.1044 178.89 28.2045H182.89C182.89 26.532 182.538 24.9665 181.783 23.5597L178.259 25.4517ZM178.89 28.2045V46H182.89V28.2045H178.89ZM180.89 44H173.049V48H180.89V44ZM175.049 46V42.3523H171.049V46H175.049ZM173.049 40.3523H172.845V44.3523H173.049V40.3523ZM171.074 41.4217C170.722 42.0917 170.285 42.6351 169.765 43.0737L172.345 46.1309C173.279 45.3421 174.035 44.3855 174.615 43.2828L171.074 41.4217ZM169.753 43.0838C169.26 43.5066 168.658 43.8419 167.916 44.0748L169.114 47.8911C170.327 47.5103 171.418 46.9252 172.356 46.1208L169.753 43.0838ZM167.91 44.0768C167.174 44.3105 166.293 44.4432 165.242 44.4432V48.4432C166.624 48.4432 167.924 48.2691 169.121 47.8891L167.91 44.0768ZM167.816 42.9886C168.991 42.9886 170.114 42.7486 171.142 42.2263L169.331 38.66C168.927 38.865 168.437 38.9886 167.816 38.9886V42.9886ZM171.131 42.232C172.147 41.7243 172.995 41.0023 173.63 40.0662L170.32 37.8202C170.092 38.1568 169.781 38.4348 169.342 38.6543L171.131 42.232ZM173.639 40.0526C174.311 39.0453 174.623 37.9013 174.623 36.6932H170.623C170.623 37.1896 170.503 37.5456 170.311 37.8338L173.639 40.0526ZM174.623 36.6932V34.2045H170.623V36.6932H174.623ZM171.695 32.4329C171.599 32.4834 171.434 32.5532 171.179 32.6298L172.328 36.4611C172.755 36.3331 173.17 36.1757 173.551 35.9762L171.695 32.4329ZM171.161 32.6353C170.888 32.7201 170.574 32.804 170.217 32.8855L171.108 36.7849C171.547 36.6847 171.961 36.5753 172.347 36.4556L171.161 32.6353ZM170.217 32.8855C169.863 32.9665 169.496 33.038 169.115 33.0997L169.756 37.0481C170.216 36.9734 170.667 36.8858 171.108 36.7849L170.217 32.8855ZM169.115 33.0997C168.704 33.1664 168.31 33.2274 167.934 33.2826L168.516 37.2401C168.913 37.1817 169.326 37.1177 169.756 37.0481L169.115 33.0997ZM167.91 33.2863C166.992 33.4327 166.132 33.6702 165.364 34.0304L167.064 37.6514C167.41 37.4889 167.89 37.34 168.54 37.2364L167.91 33.2863ZM165.35 34.0373C164.55 34.4204 163.841 34.9668 163.316 35.7137L166.589 38.0135C166.655 37.9195 166.787 37.7841 167.078 37.6445L165.35 34.0373ZM163.31 35.7228C162.761 36.5126 162.526 37.413 162.526 38.3295H166.526C166.526 38.1097 166.576 38.0329 166.595 38.0044L163.31 35.7228ZM162.526 38.3295C162.526 39.7317 163.062 41.0289 164.256 41.9139L166.637 38.6997C166.584 38.6605 166.575 38.6394 166.57 38.6275C166.56 38.6074 166.526 38.5239 166.526 38.3295H162.526ZM164.271 41.9243C165.311 42.6809 166.54 42.9886 167.816 42.9886V38.9886C167.183 38.9886 166.833 38.8419 166.623 38.6893L164.271 41.9243ZM195.788 11.0909L197.787 11.1556L197.854 9.09091H195.788V11.0909ZM195.004 35.3125V37.3125H196.94L197.003 35.3772L195.004 35.3125ZM187.998 35.3125L185.999 35.3772L186.062 37.3125H187.998V35.3125ZM187.214 11.0909V9.09091H185.148L185.215 11.1556L187.214 11.0909ZM188.356 45.1989L186.942 46.6131L186.951 46.6223L188.356 45.1989ZM188.356 38.9773L189.761 40.4008L189.761 40.4007L188.356 38.9773ZM194.578 38.9773L193.182 40.4097L193.191 40.4188L193.201 40.4277L194.578 38.9773ZM195.293 44.2955L193.599 43.2329L193.593 43.2433L193.586 43.2537L195.293 44.2955ZM193.674 45.8977L192.654 44.1776L192.647 44.1815L192.641 44.1854L193.674 45.8977ZM193.789 11.0262L193.005 35.2478L197.003 35.3772L197.787 11.1556L193.789 11.0262ZM195.004 33.3125H187.998V37.3125H195.004V33.3125ZM189.997 35.2478L189.213 11.0262L185.215 11.1556L185.999 35.3772L189.997 35.2478ZM187.214 13.0909H195.788V9.09091H187.214V13.0909ZM191.492 44.4943C190.809 44.4943 190.266 44.2742 189.761 43.7754L186.951 46.6223C188.196 47.8508 189.744 48.4943 191.492 48.4943V44.4943ZM189.77 43.7846C189.284 43.2981 189.061 42.7622 189.061 42.0625H185.061C185.061 43.8173 185.701 45.3723 186.942 46.6131L189.77 43.7846ZM189.061 42.0625C189.061 41.3974 189.275 40.8804 189.761 40.4008L186.951 37.5537C185.71 38.7787 185.061 40.3185 185.061 42.0625H189.061ZM189.761 40.4007C190.266 39.9019 190.809 39.6818 191.492 39.6818V35.6818C189.744 35.6818 188.196 36.3254 186.951 37.5538L189.761 40.4007ZM191.492 39.6818C192.109 39.6818 192.645 39.8869 193.182 40.4097L195.973 37.5448C194.737 36.3404 193.216 35.6818 191.492 35.6818V39.6818ZM193.201 40.4277C193.713 40.9142 193.924 41.4233 193.924 42.0625H197.924C197.924 40.2926 197.238 38.7449 195.955 37.5268L193.201 40.4277ZM193.924 42.0625C193.924 42.5182 193.813 42.892 193.599 43.2329L196.988 45.358C197.615 44.358 197.924 43.2432 197.924 42.0625H193.924ZM193.586 43.2537C193.346 43.6475 193.041 43.9478 192.654 44.1776L194.695 47.6178C195.648 47.0522 196.423 46.2843 197.001 45.3372L193.586 43.2537ZM192.641 44.1854C192.304 44.3884 191.936 44.4943 191.492 44.4943V48.4943C192.639 48.4943 193.726 48.2025 194.707 47.6101L192.641 44.1854Z" fill="black"/>
<path d="M32.894 22.4943C32.7009 21.7784 32.4168 21.1477 32.0418 20.6023C31.6668 20.0455 31.2065 19.5739 30.6611 19.1875C30.1156 18.8011 29.4906 18.5114 28.7861 18.3182C28.0815 18.1136 27.3088 18.0114 26.4679 18.0114C24.7747 18.0114 23.3088 18.4205 22.0702 19.2386C20.8429 20.0568 19.894 21.25 19.2236 22.8182C18.5531 24.375 18.2179 26.267 18.2179 28.4943C18.2179 30.733 18.5418 32.642 19.1895 34.2216C19.8372 35.8011 20.7747 37.0057 22.002 37.8352C23.2293 38.6648 24.7179 39.0795 26.4679 39.0795C28.0134 39.0795 29.3202 38.8295 30.3884 38.3295C31.4679 37.8182 32.2861 37.0966 32.8429 36.1648C33.3997 35.233 33.6781 34.1364 33.6781 32.875L35.2463 33.0625H26.7577V26.9091H41.8088V31.5284C41.8088 34.6534 41.144 37.3295 39.8145 39.5568C38.4963 41.7841 36.6781 43.4943 34.36 44.6875C32.0531 45.8807 29.3997 46.4773 26.3997 46.4773C23.0702 46.4773 20.144 45.7557 17.6213 44.3125C15.0986 42.8693 13.1327 40.8125 11.7236 38.142C10.3145 35.4602 9.60996 32.2784 9.60996 28.5966C9.60996 25.733 10.0361 23.1932 10.8884 20.9773C11.7406 18.75 12.9281 16.8636 14.4509 15.3182C15.985 13.7727 17.7577 12.6023 19.769 11.8068C21.7918 11.0114 23.9679 10.6136 26.2975 10.6136C28.3202 10.6136 30.2009 10.9034 31.9395 11.483C33.6895 12.0625 35.235 12.8807 36.5759 13.9375C37.9281 14.9943 39.0247 16.25 39.8656 17.7045C40.7065 19.1591 41.2293 20.7557 41.4338 22.4943H32.894ZM59.0034 46.4943C56.2534 46.4943 53.8898 45.9318 51.9125 44.8068C49.9466 43.6705 48.4296 42.0909 47.3614 40.0682C46.3046 38.0341 45.7761 35.6761 45.7761 32.9943C45.7761 30.3011 46.3046 27.9432 47.3614 25.9205C48.4296 23.8864 49.9466 22.3068 51.9125 21.1818C53.8898 20.0455 56.2534 19.4773 59.0034 19.4773C61.7534 19.4773 64.1114 20.0455 66.0773 21.1818C68.0546 22.3068 69.5716 23.8864 70.6284 25.9205C71.6966 27.9432 72.2307 30.3011 72.2307 32.9943C72.2307 35.6761 71.6966 38.0341 70.6284 40.0682C69.5716 42.0909 68.0546 43.6705 66.0773 44.8068C64.1114 45.9318 61.7534 46.4943 59.0034 46.4943ZM59.0546 40.2045C60.0546 40.2045 60.9011 39.8977 61.5943 39.2841C62.2875 38.6705 62.8159 37.8182 63.1796 36.7273C63.5546 35.6364 63.7421 34.375 63.7421 32.9432C63.7421 31.4886 63.5546 30.2159 63.1796 29.125C62.8159 28.0341 62.2875 27.1818 61.5943 26.5682C60.9011 25.9545 60.0546 25.6477 59.0546 25.6477C58.0205 25.6477 57.1455 25.9545 56.4296 26.5682C55.725 27.1818 55.1852 28.0341 54.8102 29.125C54.4466 30.2159 54.2648 31.4886 54.2648 32.9432C54.2648 34.375 54.4466 35.6364 54.8102 36.7273C55.1852 37.8182 55.725 38.6705 56.4296 39.2841C57.1455 39.8977 58.0205 40.2045 59.0546 40.2045ZM91.279 19.8182V25.9545H74.7619V19.8182H91.279ZM78.2222 13.5455H86.5574V37.767C86.5574 38.2784 86.6369 38.6932 86.796 39.0114C86.9665 39.3182 87.2108 39.5398 87.529 39.6761C87.8472 39.8011 88.2279 39.8636 88.671 39.8636C88.9892 39.8636 89.3244 39.8352 89.6767 39.7784C90.0404 39.7102 90.3131 39.6534 90.4949 39.608L91.7563 45.625C91.3585 45.7386 90.796 45.8807 90.0688 46.0511C89.3529 46.2216 88.4949 46.3295 87.4949 46.375C85.5404 46.4659 83.8642 46.2386 82.4665 45.6932C81.0801 45.1364 80.0176 44.2727 79.279 43.1023C78.5517 41.9318 78.1994 40.4602 78.2222 38.6875V13.5455ZM107.472 46.4943C104.711 46.4943 102.341 45.9261 100.364 44.7898C98.3983 43.6534 96.8869 42.0739 95.8301 40.0511C94.7733 38.017 94.2449 35.6648 94.2449 32.9943C94.2449 30.3125 94.7733 27.9602 95.8301 25.9375C96.8983 23.9034 98.4154 22.3182 100.381 21.1818C102.359 20.0455 104.716 19.4773 107.455 19.4773C109.876 19.4773 111.984 19.9148 113.779 20.7898C115.586 21.6648 116.995 22.9034 118.006 24.5057C119.029 26.0966 119.569 27.9659 119.626 30.1136H111.836C111.677 28.7727 111.222 27.7216 110.472 26.9602C109.734 26.1989 108.768 25.8182 107.574 25.8182C106.609 25.8182 105.762 26.0909 105.035 26.6364C104.307 27.1705 103.739 27.9659 103.33 29.0227C102.932 30.0682 102.734 31.3636 102.734 32.9091C102.734 34.4545 102.932 35.7614 103.33 36.8295C103.739 37.8864 104.307 38.6875 105.035 39.233C105.762 39.767 106.609 40.0341 107.574 40.0341C108.347 40.0341 109.029 39.8693 109.62 39.5398C110.222 39.2102 110.716 38.7273 111.103 38.0909C111.489 37.4432 111.734 36.6591 111.836 35.7386H119.626C119.546 37.8977 119.006 39.7841 118.006 41.3977C117.018 43.0114 115.626 44.267 113.83 45.1648C112.046 46.0511 109.927 46.4943 107.472 46.4943ZM132.226 31.0682V46H123.891V11.0909H131.954V24.625H132.243C132.834 23.0114 133.8 21.75 135.141 20.8409C136.493 19.9318 138.147 19.4773 140.101 19.4773C141.942 19.4773 143.545 19.8864 144.908 20.7045C146.272 21.5114 147.329 22.6534 148.079 24.1307C148.84 25.608 149.215 27.3352 149.204 29.3125V46H140.868V30.9489C140.88 29.4943 140.516 28.358 139.778 27.5398C139.039 26.7216 137.999 26.3125 136.658 26.3125C135.783 26.3125 135.011 26.5057 134.34 26.892C133.681 27.267 133.164 27.8068 132.789 28.5114C132.425 29.2159 132.238 30.0682 132.226 31.0682ZM161.788 46.4432C160.117 46.4432 158.634 46.1648 157.339 45.608C156.055 45.0398 155.038 44.1875 154.288 43.0511C153.549 41.9034 153.18 40.4659 153.18 38.7386C153.18 37.2841 153.435 36.0568 153.947 35.0568C154.458 34.0568 155.163 33.2443 156.06 32.6193C156.958 31.9943 157.992 31.5227 159.163 31.2045C160.333 30.875 161.583 30.6534 162.913 30.5398C164.401 30.4034 165.6 30.2614 166.509 30.1136C167.418 29.9545 168.077 29.733 168.486 29.4489C168.907 29.1534 169.117 28.7386 169.117 28.2045V28.1193C169.117 27.2443 168.816 26.5682 168.214 26.0909C167.611 25.6136 166.799 25.375 165.776 25.375C164.674 25.375 163.788 25.6136 163.117 26.0909C162.447 26.5682 162.02 27.2273 161.839 28.0682L154.151 27.7955C154.378 26.2045 154.964 24.7841 155.907 23.5341C156.861 22.2727 158.168 21.2841 159.827 20.5682C161.498 19.8409 163.503 19.4773 165.844 19.4773C167.515 19.4773 169.055 19.6761 170.464 20.0739C171.873 20.4602 173.1 21.0284 174.145 21.7784C175.191 22.517 175.998 23.4261 176.566 24.5057C177.145 25.5852 177.435 26.8182 177.435 28.2045V46H169.594V42.3523H169.39C168.924 43.2386 168.327 43.9886 167.6 44.6023C166.884 45.2159 166.038 45.6761 165.06 45.983C164.094 46.2898 163.003 46.4432 161.788 46.4432ZM164.361 40.9886C165.259 40.9886 166.066 40.8068 166.782 40.4432C167.509 40.0795 168.089 39.5795 168.52 38.9432C168.952 38.2955 169.168 37.5455 169.168 36.6932V34.2045C168.93 34.3295 168.64 34.4432 168.299 34.5455C167.969 34.6477 167.606 34.7443 167.208 34.8352C166.81 34.9261 166.401 35.0057 165.981 35.0739C165.56 35.142 165.157 35.2045 164.77 35.2614C163.986 35.3864 163.316 35.5795 162.759 35.8409C162.214 36.1023 161.793 36.4432 161.498 36.8636C161.214 37.2727 161.072 37.7614 161.072 38.3295C161.072 39.1932 161.378 39.8523 161.992 40.3068C162.617 40.7614 163.407 40.9886 164.361 40.9886ZM192.333 11.0909L191.549 35.3125H184.543L183.759 11.0909H192.333ZM188.038 46.4943C186.822 46.4943 185.776 46.0625 184.901 45.1989C184.038 44.3352 183.606 43.2898 183.606 42.0625C183.606 40.858 184.038 39.8295 184.901 38.9773C185.776 38.1136 186.822 37.6818 188.038 37.6818C189.208 37.6818 190.236 38.1136 191.123 38.9773C192.02 39.8295 192.469 40.858 192.469 42.0625C192.469 42.8807 192.259 43.625 191.839 44.2955C191.43 44.9659 190.89 45.5 190.219 45.8977C189.56 46.2955 188.833 46.4943 188.038 46.4943Z" fill="white"/>
<path d="M32.8941 22.4943L30.9631 23.0154L31.3622 24.4943H32.8941V22.4943ZM32.0418 20.6023L30.3829 21.7195L30.3883 21.7274L30.3937 21.7353L32.0418 20.6023ZM28.7861 18.3182L28.2285 20.2389L28.2428 20.243L28.2572 20.247L28.7861 18.3182ZM22.0702 19.2386L20.9678 17.5698L20.9608 17.5745L22.0702 19.2386ZM19.2236 22.8182L21.0605 23.6093L21.0626 23.6044L19.2236 22.8182ZM19.1895 34.2216L21.04 33.4628L19.1895 34.2216ZM22.002 37.8352L23.122 36.1782H23.122L22.002 37.8352ZM30.3884 38.3295L31.2363 40.1409L31.2445 40.137L30.3884 38.3295ZM32.8429 36.1648L31.1261 35.1389L32.8429 36.1648ZM33.6781 32.875L33.9156 30.8891L31.6781 30.6216V32.875H33.6781ZM35.2463 33.0625V35.0625L35.4838 31.0766L35.2463 33.0625ZM26.7577 33.0625H24.7577V35.0625H26.7577V33.0625ZM26.7577 26.9091V24.9091H24.7577V26.9091H26.7577ZM41.8088 26.9091H43.8088V24.9091H41.8088V26.9091ZM39.8145 39.5568L38.0972 38.5317L38.0933 38.5382L39.8145 39.5568ZM34.36 44.6875L33.4447 42.9092L33.4411 42.9111L34.36 44.6875ZM17.6213 44.3125L18.6144 42.5765L17.6213 44.3125ZM11.7236 38.142L9.9531 39.0723L9.95474 39.0754L11.7236 38.142ZM10.8884 20.9773L12.7551 21.6952L12.7563 21.692L10.8884 20.9773ZM14.4509 15.3182L13.0314 13.9092L13.0262 13.9145L14.4509 15.3182ZM19.769 11.8068L19.0371 9.94556L19.0335 9.94698L19.769 11.8068ZM31.9395 11.483L31.307 13.3803L31.3107 13.3815L31.9395 11.483ZM36.5759 13.9375L35.3379 15.5083L35.3443 15.5133L36.5759 13.9375ZM39.8656 17.7045L38.1342 18.7056L38.1342 18.7056L39.8656 17.7045ZM41.4338 22.4943V24.4943H43.6829L43.4201 22.2606L41.4338 22.4943ZM34.825 21.9733C34.5799 21.0649 34.2075 20.2222 33.6899 19.4692L30.3937 21.7353C30.626 22.0733 30.8219 22.4919 30.9631 23.0154L34.825 21.9733ZM33.7006 19.4851C33.1911 18.7285 32.5608 18.0822 31.8171 17.5555L29.5051 20.8195C29.8523 21.0655 30.1424 21.3624 30.3829 21.7195L33.7006 19.4851ZM31.8171 17.5555C31.0646 17.0224 30.2234 16.6385 29.315 16.3894L28.2572 20.247C28.7579 20.3843 29.1667 20.5799 29.5051 20.8195L31.8171 17.5555ZM29.3437 16.3975C28.4338 16.1333 27.4705 16.0114 26.4679 16.0114V20.0114C27.1471 20.0114 27.7293 20.094 28.2285 20.2389L29.3437 16.3975ZM26.4679 16.0114C24.4395 16.0114 22.5779 16.5063 20.9679 17.5698L23.1725 20.9074C24.0398 20.3346 25.1099 20.0114 26.4679 20.0114V16.0114ZM20.9608 17.5745C19.3621 18.6403 18.1834 20.1637 17.3846 22.032L21.0626 23.6044C21.6047 22.3363 22.3238 21.4733 23.1796 20.9027L20.9608 17.5745ZM17.3867 22.0271C16.5806 23.899 16.2179 26.0763 16.2179 28.4943H20.2179C20.2179 26.4578 20.5257 24.851 21.0605 23.6093L17.3867 22.0271ZM16.2179 28.4943C16.2179 30.9162 16.5671 33.0978 17.339 34.9804L21.04 33.4628C20.5165 32.1863 20.2179 30.5497 20.2179 28.4943H16.2179ZM17.339 34.9804C18.113 36.8677 19.2803 38.4096 20.882 39.4922L23.122 36.1782C22.2691 35.6017 21.5615 34.7346 21.04 33.4628L17.339 34.9804ZM20.882 39.4922C22.4964 40.5834 24.3927 41.0795 26.4679 41.0795V37.0795C25.0432 37.0795 23.9622 36.7461 23.122 36.1782L20.882 39.4922ZM26.4679 41.0795C28.2193 41.0795 29.8337 40.7974 31.2362 40.1409L29.5405 36.5182C28.8066 36.8617 27.8074 37.0795 26.4679 37.0795V41.0795ZM31.2445 40.137C32.6446 39.4738 33.7795 38.4964 34.5597 37.1907L31.1261 35.1389C30.7927 35.6968 30.2912 36.1625 29.5322 36.5221L31.2445 40.137ZM34.5597 37.1907C35.3301 35.9015 35.6781 34.4383 35.6781 32.875H31.6781C31.6781 33.8344 31.4693 34.5644 31.1261 35.1389L34.5597 37.1907ZM33.4407 34.8609L35.0089 35.0484L35.4838 31.0766L33.9156 30.8891L33.4407 34.8609ZM35.2463 31.0625H26.7577V35.0625H35.2463V31.0625ZM28.7577 33.0625V26.9091H24.7577V33.0625H28.7577ZM26.7577 28.9091H41.8088V24.9091H26.7577V28.9091ZM39.8088 26.9091V31.5284H43.8088V26.9091H39.8088ZM39.8088 31.5284C39.8088 34.3666 39.2071 36.6723 38.0972 38.5317L41.5318 40.5819C43.081 37.9867 43.8088 34.9403 43.8088 31.5284H39.8088ZM38.0933 38.5382C36.9684 40.4389 35.4307 41.887 33.4447 42.9092L35.2752 46.4658C37.9256 45.1016 40.0242 43.1293 41.5357 40.5755L38.0933 38.5382ZM33.4411 42.9111C31.4594 43.9361 29.1298 44.4773 26.3997 44.4773V48.4773C29.6697 48.4773 32.6468 47.8253 35.2788 46.4639L33.4411 42.9111ZM26.3997 44.4773C23.3671 44.4773 20.793 43.8228 18.6144 42.5765L16.6282 46.0485C19.4951 47.6886 22.7733 48.4773 26.3997 48.4773V44.4773ZM18.6144 42.5765C16.4345 41.3294 14.7316 39.5571 13.4924 37.2087L9.95474 39.0754C11.5337 42.0679 13.7627 44.4092 16.6282 46.0485L18.6144 42.5765ZM13.4941 37.2118C12.2649 34.8723 11.61 32.0234 11.61 28.5966H7.60996C7.60996 32.5335 8.36413 36.0481 9.95311 39.0723L13.4941 37.2118ZM11.61 28.5966C11.61 25.9292 12.007 23.6402 12.7551 21.6952L9.02167 20.2593C8.06518 22.7462 7.60996 25.5367 7.60996 28.5966H11.61ZM12.7563 21.692C13.5198 19.6968 14.565 18.052 15.8755 16.7219L13.0262 13.9145C11.2913 15.6753 9.96151 17.8032 9.02045 20.2625L12.7563 21.692ZM15.8703 16.7272C17.2113 15.3762 18.7516 14.3599 20.5046 13.6667L19.0335 9.94698C16.7637 10.8446 14.7586 12.1693 13.0314 13.9092L15.8703 16.7272ZM20.501 13.6681C22.2743 12.9707 24.2003 12.6136 26.2975 12.6136V8.61364C23.7355 8.61364 21.3093 9.05202 19.0371 9.94557L20.501 13.6681ZM26.2975 12.6136C28.1274 12.6136 29.7923 12.8754 31.307 13.3803L32.572 9.58559C30.6094 8.9314 28.513 8.61364 26.2975 8.61364V12.6136ZM31.3107 13.3815C32.8578 13.8939 34.1935 14.6064 35.3379 15.5083L37.8139 12.3667C36.2764 11.155 34.5212 10.2311 32.5683 9.58436L31.3107 13.3815ZM35.3443 15.5133C36.4991 16.4158 37.4243 17.4777 38.1342 18.7056L41.5971 16.7035C40.6251 15.0223 39.3572 13.5728 37.8074 12.3617L35.3443 15.5133ZM38.1342 18.7056C38.8331 19.9144 39.2734 21.2482 39.4475 22.728L43.4201 22.2606C43.1851 20.2631 42.58 18.4037 41.5971 16.7035L38.1342 18.7056ZM41.4338 20.4943H32.8941V24.4943H41.4338V20.4943ZM51.9125 44.8068L50.9116 46.5384L50.9235 46.5451L51.9125 44.8068ZM47.3614 40.0682L45.5866 40.9903L45.5928 41.0021L47.3614 40.0682ZM47.3614 25.9205L45.5907 24.9906L45.5887 24.9943L47.3614 25.9205ZM51.9125 21.1818L52.9059 22.9177L52.9091 22.9158L51.9125 21.1818ZM66.0773 21.1818L65.0764 22.9134L65.0882 22.9201L66.0773 21.1818ZM70.6284 25.9205L68.8536 26.8426L68.8599 26.8544L70.6284 25.9205ZM70.6284 40.0682L68.8577 39.1383L68.8558 39.142L70.6284 40.0682ZM66.0773 44.8068L67.0706 46.5427L67.0739 46.5408L66.0773 44.8068ZM61.5943 39.2841L60.2687 37.7866V37.7866L61.5943 39.2841ZM63.1796 36.7273L61.2882 36.0771L61.2851 36.086L61.2822 36.0948L63.1796 36.7273ZM63.1796 29.125L61.2822 29.7575L61.2851 29.7663L61.2882 29.7752L63.1796 29.125ZM61.5943 26.5682L62.92 25.0707V25.0707L61.5943 26.5682ZM56.4296 26.5682L55.128 25.0497L55.122 25.0548L55.116 25.06L56.4296 26.5682ZM54.8102 29.125L52.9189 28.4748L52.9158 28.4837L52.9129 28.4925L54.8102 29.125ZM54.8102 36.7273L52.9129 37.3597L52.9158 37.3686L52.9189 37.3774L54.8102 36.7273ZM56.4296 39.2841L55.116 40.7923L55.122 40.7975L55.128 40.8026L56.4296 39.2841ZM59.0034 44.4943C56.528 44.4943 54.5203 43.9895 52.9016 43.0685L50.9235 46.5451C53.2593 47.8741 55.9789 48.4943 59.0034 48.4943V44.4943ZM52.9134 43.0753C51.2759 42.1287 50.0237 40.8268 49.1299 39.1342L45.5928 41.0021C46.8354 43.355 48.6173 45.2122 50.9116 46.5384L52.9134 43.0753ZM49.1361 39.1461C48.2506 37.4416 47.7761 35.4097 47.7761 32.9943H43.7761C43.7761 35.9426 44.3586 38.6266 45.5866 40.9903L49.1361 39.1461ZM47.7761 32.9943C47.7761 30.5657 48.2513 28.5362 49.134 26.8466L45.5887 24.9943C44.3578 27.3502 43.7761 30.0366 43.7761 32.9943H47.7761ZM49.1321 26.8503C50.0259 25.1483 51.2755 23.8507 52.9059 22.9177L50.9192 19.4459C48.6177 20.763 46.8333 22.6244 45.5907 24.9906L49.1321 26.8503ZM52.9091 22.9158C54.5263 21.9864 56.5312 21.4773 59.0034 21.4773V17.4773C55.9756 17.4773 53.2532 18.1045 50.9159 19.4478L52.9091 22.9158ZM59.0034 21.4773C61.476 21.4773 63.473 21.9865 65.0764 22.9134L67.0782 19.4503C64.7497 18.1044 62.0308 17.4773 59.0034 17.4773V21.4773ZM65.0882 22.9201C66.7277 23.8529 67.9732 25.1478 68.8537 26.8425L72.4032 24.9984C71.1701 22.6249 69.3814 20.7607 67.0663 19.4435L65.0882 22.9201ZM68.8599 26.8544C69.7512 28.5422 70.2307 30.5689 70.2307 32.9943H74.2307C74.2307 30.0333 73.642 27.3441 72.397 24.9865L68.8599 26.8544ZM70.2307 32.9943C70.2307 35.4065 69.7519 37.4355 68.8577 39.1383L72.3991 40.998C73.6413 38.6327 74.2307 35.9458 74.2307 32.9943H70.2307ZM68.8558 39.142C67.9753 40.8273 66.7274 42.1264 65.0807 43.0728L67.0739 46.5408C69.3817 45.2145 71.1679 43.3545 72.4011 40.9943L68.8558 39.142ZM65.0839 43.0709C63.4791 43.9893 61.4793 44.4943 59.0034 44.4943V48.4943C62.0275 48.4943 64.7437 47.8743 67.0706 46.5427L65.0839 43.0709ZM59.0546 42.2045C60.5005 42.2045 61.8305 41.7461 62.92 40.7816L60.2687 37.7866C59.9718 38.0494 59.6086 38.2045 59.0546 38.2045V42.2045ZM62.92 40.7816C63.9332 39.8847 64.6288 38.7043 65.0769 37.3597L61.2822 36.0948C61.0031 36.9321 60.6419 37.4562 60.2687 37.7866L62.92 40.7816ZM65.0709 37.3774C65.5328 36.0338 65.7421 34.545 65.7421 32.9432H61.7421C61.7421 34.205 61.5763 35.2389 61.2882 36.0771L65.0709 37.3774ZM65.7421 32.9432C65.7421 31.3225 65.5338 29.8214 65.0709 28.4748L61.2882 29.7752C61.5753 30.6104 61.7421 31.6547 61.7421 32.9432H65.7421ZM65.0769 28.4925C64.6288 27.148 63.9332 25.9675 62.92 25.0707L60.2687 28.0657C60.6419 28.3961 61.0031 28.9202 61.2822 29.7575L65.0769 28.4925ZM62.92 25.0707C61.8305 24.1062 60.5005 23.6477 59.0546 23.6477V27.6477C59.6086 27.6477 59.9718 27.8029 60.2687 28.0657L62.92 25.0707ZM59.0546 23.6477C57.5927 23.6477 56.2423 24.0945 55.128 25.0497L57.7311 28.0867C58.0486 27.8146 58.4483 27.6477 59.0546 27.6477V23.6477ZM55.116 25.06C54.0915 25.9523 53.3814 27.1294 52.9189 28.4748L56.7016 29.7752C56.9891 28.9388 57.3585 28.4113 57.7431 28.0763L55.116 25.06ZM52.9129 28.4925C52.466 29.8332 52.2648 31.3279 52.2648 32.9432H56.2648C56.2648 31.6493 56.4272 30.5986 56.7076 29.7575L52.9129 28.4925ZM52.2648 32.9432C52.2648 34.5395 52.4669 36.022 52.9129 37.3597L56.7076 36.0948C56.4263 35.2508 56.2648 34.2105 56.2648 32.9432H52.2648ZM52.9189 37.3774C53.3814 38.7228 54.0915 39.9 55.116 40.7923L57.7431 37.7759C57.3585 37.441 56.9891 36.9135 56.7016 36.0771L52.9189 37.3774ZM55.128 40.8026C56.2423 41.7578 57.5927 42.2045 59.0546 42.2045V38.2045C58.4483 38.2045 58.0486 38.0377 57.7311 37.7656L55.128 40.8026ZM91.279 19.8182H93.279V17.8182H91.279V19.8182ZM91.279 25.9545V27.9545H93.279V25.9545H91.279ZM74.7619 25.9545H72.7619V27.9545H74.7619V25.9545ZM74.7619 19.8182V17.8182H72.7619V19.8182H74.7619ZM78.2222 13.5455V11.5455H76.2222V13.5455H78.2222ZM86.5574 13.5455H88.5574V11.5455H86.5574V13.5455ZM86.796 39.0114L85.0072 39.9058L85.0266 39.9447L85.0477 39.9827L86.796 39.0114ZM87.529 39.6761L86.7411 41.5144L86.7692 41.5265L86.7977 41.5376L87.529 39.6761ZM89.6767 39.7784L89.9952 41.7529L90.0203 41.7488L90.0453 41.7442L89.6767 39.7784ZM90.4949 39.608L92.4524 39.1976L92.026 37.1636L90.0098 37.6677L90.4949 39.608ZM91.7563 45.625L92.3057 47.548L94.0957 47.0366L93.7137 45.2147L91.7563 45.625ZM90.0688 46.0511L89.6124 44.1039L89.6055 44.1055L90.0688 46.0511ZM87.4949 46.375L87.4041 44.3771L87.402 44.3772L87.4949 46.375ZM82.4665 45.6932L81.7211 47.5491L81.7302 47.5528L81.7394 47.5563L82.4665 45.6932ZM79.279 43.1023L77.5802 44.1578L77.5876 44.1696L79.279 43.1023ZM78.2222 38.6875L80.222 38.7131L80.2222 38.7003V38.6875H78.2222ZM89.279 19.8182V25.9545H93.279V19.8182H89.279ZM91.279 23.9545H74.7619V27.9545H91.279V23.9545ZM76.7619 25.9545V19.8182H72.7619V25.9545H76.7619ZM74.7619 21.8182H91.279V17.8182H74.7619V21.8182ZM78.2222 15.5455H86.5574V11.5455H78.2222V15.5455ZM84.5574 13.5455V37.767H88.5574V13.5455H84.5574ZM84.5574 37.767C84.5574 38.4625 84.662 39.2155 85.0072 39.9058L88.5849 38.1169C88.6008 38.1488 88.5928 38.1451 88.5813 38.0849C88.5697 38.0244 88.5574 37.9217 88.5574 37.767H84.5574ZM85.0477 39.9827C85.4302 40.6711 86.0095 41.2009 86.7411 41.5144L88.3168 37.8378C88.3513 37.8526 88.4007 37.8808 88.4507 37.9262C88.5005 37.9714 88.5303 38.0148 88.5443 38.0401L85.0477 39.9827ZM86.7977 41.5376C87.4066 41.7768 88.0482 41.8636 88.671 41.8636V37.8636C88.4075 37.8636 88.2878 37.8254 88.2603 37.8146L86.7977 41.5376ZM88.671 41.8636C89.1078 41.8636 89.5501 41.8247 89.9952 41.7529L89.3583 37.8039C89.0988 37.8458 88.8706 37.8636 88.671 37.8636V41.8636ZM90.0453 41.7442C90.4182 41.6742 90.7384 41.6086 90.98 41.5482L90.0098 37.6677C89.8877 37.6982 89.6625 37.7462 89.3081 37.8127L90.0453 41.7442ZM88.5374 40.0183L89.7988 46.0353L93.7137 45.2147L92.4524 39.1976L88.5374 40.0183ZM91.2068 43.702C90.8551 43.8024 90.329 43.936 89.6124 44.1039L90.5251 47.9984C91.2631 47.8254 91.862 47.6748 92.3057 47.548L91.2068 43.702ZM89.6055 44.1055C89.0465 44.2386 88.3201 44.3354 87.4041 44.3771L87.5857 48.3729C88.6697 48.3237 89.6592 48.2046 90.532 47.9967L89.6055 44.1055ZM87.402 44.3772C85.6458 44.4588 84.2639 44.2477 83.1936 43.83L81.7394 47.5563C83.4645 48.2295 85.4349 48.473 87.5878 48.3728L87.402 44.3772ZM83.2119 43.8373C82.1832 43.4241 81.4663 42.8208 80.9704 42.0349L77.5876 44.1696C78.5689 45.7246 79.9771 46.8486 81.7211 47.5491L83.2119 43.8373ZM80.9778 42.0467C80.5023 41.2815 80.2028 40.2122 80.222 38.7131L76.2223 38.6619C76.1961 40.7083 76.6011 42.5821 77.5802 44.1578L80.9778 42.0467ZM80.2222 38.6875V13.5455H76.2222V38.6875H80.2222ZM100.364 44.7898L99.3633 46.5213L99.3677 46.5238L100.364 44.7898ZM95.8301 40.0511L94.0554 40.9732L94.0575 40.9773L95.8301 40.0511ZM95.8301 25.9375L94.0594 25.0076L94.0575 25.0113L95.8301 25.9375ZM100.381 21.1818L99.3847 19.4478L99.3804 19.4503L100.381 21.1818ZM113.779 20.7898L112.903 22.5876L112.907 22.5898L113.779 20.7898ZM118.006 24.5057L116.315 25.5732L116.319 25.5802L116.324 25.5872L118.006 24.5057ZM119.626 30.1136V32.1136H121.679L121.625 30.0607L119.626 30.1136ZM111.836 30.1136L109.85 30.3493L110.059 32.1136H111.836V30.1136ZM110.472 26.9602L109.037 28.3529L109.042 28.3583L109.047 28.3638L110.472 26.9602ZM105.035 26.6364L106.218 28.2484L106.227 28.2424L106.235 28.2364L105.035 26.6364ZM103.33 29.0227L101.465 28.3007L101.461 28.3116L103.33 29.0227ZM103.33 36.8295L101.456 37.5274L101.46 37.5395L101.465 37.5515L103.33 36.8295ZM105.035 39.233L103.835 40.833L103.843 40.839L103.851 40.845L105.035 39.233ZM109.62 39.5398L108.66 37.7852L108.653 37.7891L108.646 37.793L109.62 39.5398ZM111.103 38.0909L112.812 39.1289L112.816 39.1222L112.82 39.1155L111.103 38.0909ZM111.836 35.7386V33.7386H110.046L109.848 35.5178L111.836 35.7386ZM119.626 35.7386L121.624 35.8123L121.701 33.7386H119.626V35.7386ZM118.006 41.3977L116.306 40.3442L116.301 40.3529L118.006 41.3977ZM113.83 45.1648L114.72 46.9559L114.725 46.9536L113.83 45.1648ZM107.472 44.4943C104.987 44.4943 102.977 43.9845 101.361 43.0557L99.3677 46.5238C101.706 47.8678 104.435 48.4943 107.472 48.4943V44.4943ZM101.365 43.0582C99.7294 42.1127 98.4849 40.8133 97.6028 39.125L94.0575 40.9773C95.289 43.3344 97.0672 45.1941 99.3633 46.5213L101.365 43.0582ZM97.6049 39.1291C96.7187 37.4234 96.2449 35.3968 96.2449 32.9943H92.2449C92.2449 35.9327 92.8279 38.6107 94.0554 40.9732L97.6049 39.1291ZM96.2449 32.9943C96.2449 30.5786 96.7194 28.5544 97.6028 26.8637L94.0575 25.0113C92.8272 27.3661 92.2449 30.0464 92.2449 32.9943H96.2449ZM97.6008 26.8674C98.4955 25.1637 99.7475 23.8582 101.382 22.9134L99.3804 19.4503C97.0832 20.7781 95.3011 22.6431 94.0594 25.0076L97.6008 26.8674ZM101.378 22.9158C102.996 21.9857 104.996 21.4773 107.455 21.4773V17.4773C104.437 17.4773 101.721 18.1052 99.3847 19.4478L101.378 22.9158ZM107.455 21.4773C109.635 21.4773 111.432 21.8709 112.903 22.5876L114.655 18.9919C112.535 17.9587 110.116 17.4773 107.455 17.4773V21.4773ZM112.907 22.5898C114.399 23.3121 115.515 24.306 116.315 25.5732L119.698 23.4381C118.475 21.5009 116.773 20.0174 114.651 18.9897L112.907 22.5898ZM116.324 25.5872C117.123 26.8305 117.578 28.3334 117.626 30.1665L121.625 30.0607C121.56 27.5984 120.935 25.3626 119.689 23.4242L116.324 25.5872ZM119.626 28.1136H111.836V32.1136H119.626V28.1136ZM113.822 29.878C113.624 28.2143 113.033 26.7096 111.897 25.5567L109.047 28.3638C109.412 28.7336 109.729 29.3312 109.85 30.3493L113.822 29.878ZM111.908 25.5676C110.744 24.3679 109.235 23.8182 107.574 23.8182V27.8182C108.301 27.8182 108.723 28.0299 109.037 28.3529L111.908 25.5676ZM107.574 23.8182C106.205 23.8182 104.931 24.2145 103.835 25.0364L106.235 28.2364C106.593 27.9673 107.012 27.8182 107.574 27.8182V23.8182ZM103.851 25.0244C102.746 25.8355 101.977 26.979 101.465 28.3007L105.195 29.7447C105.502 28.9528 105.868 28.5055 106.218 28.2484L103.851 25.0244ZM101.461 28.3116C100.951 29.6528 100.734 31.2068 100.734 32.9091H104.734C104.734 31.5204 104.914 30.4836 105.199 29.7339L101.461 28.3116ZM100.734 32.9091C100.734 34.6135 100.951 36.1721 101.456 37.5274L105.204 36.1317C104.914 35.3506 104.734 34.2956 104.734 32.9091H100.734ZM101.465 37.5515C101.976 38.8718 102.742 40.0134 103.835 40.833L106.235 37.633C105.873 37.3616 105.502 36.901 105.195 36.1076L101.465 37.5515ZM103.851 40.845C104.946 41.6493 106.215 42.0341 107.574 42.0341V38.0341C107.003 38.0341 106.578 37.8848 106.218 37.6209L103.851 40.845ZM107.574 42.0341C108.639 42.0341 109.665 41.8045 110.594 41.2865L108.646 37.793C108.393 37.9341 108.055 38.0341 107.574 38.0341V42.0341ZM110.58 41.2943C111.516 40.7818 112.259 40.0397 112.812 39.1289L109.393 37.053C109.174 37.4149 108.928 37.6386 108.66 37.7852L110.58 41.2943ZM112.82 39.1155C113.383 38.1729 113.697 37.1008 113.824 35.9595L109.848 35.5178C109.77 36.2173 109.596 36.7135 109.385 37.0664L112.82 39.1155ZM111.836 37.7386H119.626V33.7386H111.836V37.7386ZM117.627 35.665C117.558 37.5258 117.099 39.0646 116.306 40.3442L119.706 42.4513C120.913 40.5036 121.534 38.2697 121.624 35.8123L117.627 35.665ZM116.301 40.3529C115.52 41.6279 114.418 42.6349 112.936 43.3759L114.725 46.9536C116.833 45.8992 118.516 44.3948 119.712 42.4426L116.301 40.3529ZM112.94 43.3736C111.489 44.0944 109.688 44.4943 107.472 44.4943V48.4943C110.165 48.4943 112.603 48.0078 114.72 46.9559L112.94 43.3736ZM132.226 31.0682L130.227 31.0455L130.226 31.0568V31.0682H132.226ZM132.226 46V48H134.226V46H132.226ZM123.891 46H121.891V48H123.891V46ZM123.891 11.0909V9.09091H121.891V11.0909H123.891ZM131.954 11.0909H133.954V9.09091H131.954V11.0909ZM131.954 24.625H129.954V26.625H131.954V24.625ZM132.243 24.625V26.625H133.641L134.122 25.3127L132.243 24.625ZM135.141 20.8409L134.025 19.1811L134.019 19.1855L135.141 20.8409ZM144.908 20.7045L143.879 22.4196L143.89 22.4258L144.908 20.7045ZM148.079 24.1307L146.295 25.0361L146.301 25.0469L148.079 24.1307ZM149.204 29.3125L147.204 29.301V29.3125H149.204ZM149.204 46V48H151.204V46H149.204ZM140.868 46H138.868V48H140.868V46ZM140.868 30.9489L138.869 30.9332L138.868 30.9411V30.9489H140.868ZM139.778 27.5398L138.293 28.88L139.778 27.5398ZM134.34 26.892L135.329 28.6304L135.339 28.6249L134.34 26.892ZM132.789 28.5114L131.023 27.5717L131.018 27.5828L131.012 27.5941L132.789 28.5114ZM130.226 31.0682V46H134.226V31.0682H130.226ZM132.226 44H123.891V48H132.226V44ZM125.891 46V11.0909H121.891V46H125.891ZM123.891 13.0909H131.954V9.09091H123.891V13.0909ZM129.954 11.0909V24.625H133.954V11.0909H129.954ZM131.954 26.625H132.243V22.625H131.954V26.625ZM134.122 25.3127C134.577 24.0675 135.291 23.1553 136.264 22.4963L134.019 19.1855C132.309 20.3447 131.091 21.9552 130.365 23.9373L134.122 25.3127ZM136.257 22.5007C137.218 21.8544 138.464 21.4773 140.101 21.4773V17.4773C137.83 17.4773 135.769 18.0092 134.025 19.1811L136.257 22.5007ZM140.101 21.4773C141.638 21.4773 142.873 21.8156 143.879 22.4195L145.937 18.9896C144.217 17.9571 142.247 17.4773 140.101 17.4773V21.4773ZM143.89 22.4258C144.911 23.0299 145.709 23.8817 146.295 25.0361L149.862 23.2253C148.948 21.4251 147.633 19.9929 145.927 18.9833L143.89 22.4258ZM146.301 25.0469C146.889 26.1877 147.214 27.5854 147.204 29.301L151.204 29.324C151.217 27.085 150.791 25.0282 149.856 23.2144L146.301 25.0469ZM147.204 29.3125V46H151.204V29.3125H147.204ZM149.204 44H140.868V48H149.204V44ZM142.868 46V30.9489H138.868V46H142.868ZM142.868 30.9645C142.882 29.1732 142.432 27.4952 141.262 26.1996L138.293 28.88C138.601 29.2207 138.877 29.8155 138.869 30.9332L142.868 30.9645ZM141.262 26.1996C140.064 24.872 138.432 24.3125 136.658 24.3125V28.3125C137.566 28.3125 138.014 28.5712 138.293 28.88L141.262 26.1996ZM136.658 24.3125C135.479 24.3125 134.354 24.5759 133.341 25.1592L135.339 28.6249C135.667 28.4355 136.087 28.3125 136.658 28.3125V24.3125ZM133.351 25.1537C132.345 25.7261 131.567 26.5512 131.023 27.5717L134.554 29.4511C134.761 29.0625 135.017 28.808 135.329 28.6304L133.351 25.1537ZM131.012 27.5941C130.473 28.6382 130.241 29.8133 130.227 31.0455L134.226 31.0909C134.235 30.3231 134.378 29.7936 134.566 29.4286L131.012 27.5941ZM157.339 45.608L156.529 47.4369L156.539 47.4412L156.549 47.4454L157.339 45.608ZM154.288 43.0511L152.606 44.1335L152.612 44.1432L152.618 44.1528L154.288 43.0511ZM153.947 35.0568L152.166 34.1462L153.947 35.0568ZM156.06 32.6193L157.203 34.2607L156.06 32.6193ZM159.163 31.2045L159.687 33.1345L159.696 33.1321L159.705 33.1297L159.163 31.2045ZM162.913 30.5398L163.083 32.5325L163.095 32.5314L162.913 30.5398ZM166.509 30.1136L166.83 32.0877L166.842 32.0858L166.854 32.0837L166.509 30.1136ZM168.486 29.4489L169.627 31.0916L169.636 31.0852L168.486 29.4489ZM168.214 26.0909L169.456 24.5234L168.214 26.0909ZM163.117 26.0909L161.957 24.4616V24.4616L163.117 26.0909ZM161.839 28.0682L161.768 30.0669L163.44 30.1262L163.793 28.4908L161.839 28.0682ZM154.151 27.7955L152.171 27.5126L151.857 29.7153L154.08 29.7942L154.151 27.7955ZM155.907 23.5341L154.312 22.3272L154.31 22.3295L155.907 23.5341ZM159.827 20.5682L160.62 22.4045L160.626 22.4019L159.827 20.5682ZM170.464 20.0739L169.92 21.9987L169.928 22.0007L169.935 22.0027L170.464 20.0739ZM174.145 21.7784L172.98 23.4035L172.986 23.4077L172.991 23.4119L174.145 21.7784ZM176.566 24.5057L174.796 25.4372L174.8 25.4444L174.804 25.4517L176.566 24.5057ZM177.435 46V48H179.435V46H177.435ZM169.594 46H167.594V48H169.594V46ZM169.594 42.3523H171.594V40.3523H169.594V42.3523ZM169.39 42.3523V40.3523H168.182L167.619 41.4217L169.39 42.3523ZM167.6 44.6023L166.31 43.0737L166.304 43.0787L166.298 43.0838L167.6 44.6023ZM165.06 45.983L164.461 44.0748L164.455 44.0768L165.06 45.983ZM166.782 40.4432L165.887 38.6543L165.876 38.66L166.782 40.4432ZM168.52 38.9432L170.175 40.0662L170.18 40.0594L170.185 40.0526L168.52 38.9432ZM169.168 34.2045H171.168V30.8992L168.24 32.4329L169.168 34.2045ZM168.299 34.5455L167.724 32.6298L167.715 32.6325L167.706 32.6353L168.299 34.5455ZM165.981 35.0739L166.301 37.0481V37.0481L165.981 35.0739ZM164.77 35.2614L164.479 33.2826L164.468 33.2844L164.456 33.2863L164.77 35.2614ZM162.759 35.8409L161.909 34.0304L161.902 34.0338L161.895 34.0373L162.759 35.8409ZM161.498 36.8636L159.861 35.7137L159.855 35.7228L161.498 36.8636ZM161.992 40.3068L160.802 41.9139L160.809 41.9191L160.816 41.9243L161.992 40.3068ZM161.788 44.4432C160.339 44.4432 159.133 44.2022 158.128 43.7705L156.549 47.4454C158.135 48.1274 159.895 48.4432 161.788 48.4432V44.4432ZM158.148 43.779C157.203 43.3607 156.489 42.7556 155.957 41.9495L152.618 44.1528C153.586 45.6194 154.906 46.7188 156.529 47.4369L158.148 43.779ZM155.969 41.9688C155.487 41.2196 155.18 40.1834 155.18 38.7386H151.18C151.18 40.7484 151.611 42.5872 152.606 44.1335L155.969 41.9688ZM155.18 38.7386C155.18 37.5104 155.396 36.6148 155.727 35.9674L152.166 34.1462C151.474 35.4989 151.18 37.0578 151.18 38.7386H155.18ZM155.727 35.9674C156.093 35.2515 156.582 34.693 157.203 34.2607L154.917 30.9779C153.743 31.7956 152.823 32.8621 152.166 34.1462L155.727 35.9674ZM157.203 34.2607C157.893 33.78 158.714 33.3991 159.687 33.1345L158.638 29.2746C157.27 29.6463 156.023 30.2086 154.917 30.9779L157.203 34.2607ZM159.705 33.1297C160.742 32.8375 161.867 32.6364 163.083 32.5325L162.742 28.547C161.299 28.6704 159.924 28.9125 158.62 29.2794L159.705 33.1297ZM163.095 32.5314C164.605 32.3931 165.856 32.2461 166.83 32.0877L166.188 28.1395C165.344 28.2767 164.197 28.4137 162.73 28.5481L163.095 32.5314ZM166.854 32.0837C167.846 31.9101 168.854 31.6284 169.627 31.0916L167.346 27.8061C167.348 27.8041 167.329 27.818 167.277 27.8425C167.225 27.8669 167.151 27.8978 167.048 27.9324C166.839 28.0026 166.55 28.0762 166.164 28.1436L166.854 32.0837ZM169.636 31.0852C170.614 30.3982 171.117 29.3596 171.117 28.2045H167.117C167.117 28.2068 167.117 28.1868 167.125 28.1501C167.133 28.1125 167.149 28.0644 167.175 28.012C167.234 27.8973 167.307 27.833 167.336 27.8125L169.636 31.0852ZM171.117 28.2045V28.1193H167.117V28.2045H171.117ZM171.117 28.1193C171.117 26.7293 170.607 25.4358 169.456 24.5234L166.971 27.6584C167.025 27.7005 167.117 27.7593 167.117 28.1193H171.117ZM169.456 24.5234C168.399 23.6856 167.101 23.375 165.776 23.375V27.375C166.497 27.375 166.824 27.5417 166.971 27.6584L169.456 24.5234ZM165.776 23.375C164.397 23.375 163.064 23.6735 161.957 24.4616L164.277 27.7202C164.511 27.5538 164.951 27.375 165.776 27.375V23.375ZM161.957 24.4616C160.861 25.242 160.166 26.3417 159.884 27.6455L163.793 28.4908C163.875 28.1129 164.032 27.8943 164.277 27.7202L161.957 24.4616ZM161.91 26.0694L154.222 25.7967L154.08 29.7942L161.768 30.0669L161.91 26.0694ZM156.131 28.0783C156.312 26.813 156.769 25.7115 157.503 24.7387L154.31 22.3295C153.158 23.8567 152.445 25.5961 152.171 27.5126L156.131 28.0783ZM157.502 24.741C158.219 23.7925 159.232 23.0032 160.62 22.4045L159.035 18.7318C157.104 19.5649 155.503 20.753 154.312 22.3272L157.502 24.741ZM160.626 22.4019C161.983 21.8108 163.703 21.4773 165.844 21.4773V17.4773C163.304 17.4773 161.012 17.871 159.029 18.7344L160.626 22.4019ZM165.844 21.4773C167.356 21.4773 168.711 21.6573 169.92 21.9987L171.007 18.1491C169.398 17.695 167.673 17.4773 165.844 17.4773V21.4773ZM169.935 22.0027C171.146 22.3348 172.151 22.8091 172.98 23.4035L175.311 20.1533C174.049 19.2477 172.6 18.5857 170.993 18.1451L169.935 22.0027ZM172.991 23.4119C173.792 23.9776 174.382 24.6508 174.796 25.4372L178.336 23.5742C177.613 22.2015 176.59 21.0565 175.3 20.145L172.991 23.4119ZM174.804 25.4517C175.208 26.2039 175.435 27.1044 175.435 28.2045H179.435C179.435 26.532 179.083 24.9665 178.328 23.5597L174.804 25.4517ZM175.435 28.2045V46H179.435V28.2045H175.435ZM177.435 44H169.594V48H177.435V44ZM171.594 46V42.3523H167.594V46H171.594ZM169.594 40.3523H169.39V44.3523H169.594V40.3523ZM167.619 41.4217C167.267 42.0917 166.83 42.6351 166.31 43.0737L168.89 46.1309C169.825 45.3421 170.58 44.3855 171.16 43.2828L167.619 41.4217ZM166.298 43.0838C165.805 43.5066 165.203 43.8419 164.461 44.0748L165.659 47.8911C166.872 47.5103 167.963 46.9252 168.902 46.1208L166.298 43.0838ZM164.455 44.0768C163.719 44.3105 162.838 44.4432 161.788 44.4432V48.4432C163.169 48.4432 164.469 48.2691 165.666 47.8891L164.455 44.0768ZM164.361 42.9886C165.536 42.9886 166.659 42.7486 167.688 42.2263L165.876 38.66C165.473 38.865 164.982 38.9886 164.361 38.9886V42.9886ZM167.676 42.232C168.692 41.7243 169.54 41.0023 170.175 40.0662L166.866 37.8202C166.637 38.1568 166.327 38.4348 165.887 38.6543L167.676 42.232ZM170.185 40.0526C170.856 39.0453 171.168 37.9013 171.168 36.6932H167.168C167.168 37.1896 167.048 37.5456 166.856 37.8338L170.185 40.0526ZM171.168 36.6932V34.2045H167.168V36.6932H171.168ZM168.24 32.4329C168.144 32.4834 167.979 32.5532 167.724 32.6298L168.874 36.4611C169.3 36.3331 169.715 36.1757 170.096 35.9762L168.24 32.4329ZM167.706 32.6353C167.433 32.7201 167.119 32.804 166.762 32.8855L167.654 36.7849C168.092 36.6847 168.506 36.5753 168.892 36.4556L167.706 32.6353ZM166.762 32.8855C166.408 32.9665 166.041 33.038 165.661 33.0997L166.301 37.0481C166.762 36.9734 167.213 36.8858 167.654 36.7849L166.762 32.8855ZM165.661 33.0997C165.249 33.1664 164.855 33.2274 164.479 33.2826L165.061 37.2401C165.458 37.1817 165.872 37.1177 166.301 37.0481L165.661 33.0997ZM164.456 33.2863C163.537 33.4327 162.677 33.6702 161.909 34.0304L163.609 37.6514C163.955 37.4889 164.436 37.34 165.085 37.2364L164.456 33.2863ZM161.895 34.0373C161.095 34.4204 160.386 34.9668 159.861 35.7137L163.134 38.0135C163.2 37.9195 163.332 37.7841 163.623 37.6445L161.895 34.0373ZM159.855 35.7228C159.307 36.5126 159.072 37.413 159.072 38.3295H163.072C163.072 38.1097 163.121 38.0329 163.14 38.0044L159.855 35.7228ZM159.072 38.3295C159.072 39.7317 159.607 41.0289 160.802 41.9139L163.183 38.6997C163.13 38.6605 163.12 38.6394 163.115 38.6275C163.106 38.6074 163.072 38.5239 163.072 38.3295H159.072ZM160.816 41.9243C161.856 42.6809 163.085 42.9886 164.361 42.9886V38.9886C163.729 38.9886 163.378 38.8419 163.168 38.6893L160.816 41.9243ZM192.333 11.0909L194.332 11.1556L194.399 9.09091H192.333V11.0909ZM191.549 35.3125V37.3125H193.485L193.548 35.3772L191.549 35.3125ZM184.543 35.3125L182.544 35.3772L182.607 37.3125H184.543V35.3125ZM183.759 11.0909V9.09091H181.693L181.76 11.1556L183.759 11.0909ZM184.901 45.1989L183.487 46.6131L183.496 46.6223L184.901 45.1989ZM184.901 38.9773L186.306 40.4008L186.306 40.4007L184.901 38.9773ZM191.123 38.9773L189.727 40.4097L189.736 40.4188L189.746 40.4277L191.123 38.9773ZM191.839 44.2955L190.144 43.2329L190.138 43.2433L190.131 43.2537L191.839 44.2955ZM190.219 45.8977L189.199 44.1776L189.192 44.1815L189.186 44.1854L190.219 45.8977ZM190.334 11.0262L189.55 35.2478L193.548 35.3772L194.332 11.1556L190.334 11.0262ZM191.549 33.3125H184.543V37.3125H191.549V33.3125ZM186.542 35.2478L185.758 11.0262L181.76 11.1556L182.544 35.3772L186.542 35.2478ZM183.759 13.0909H192.333V9.09091H183.759V13.0909ZM188.038 44.4943C187.354 44.4943 186.811 44.2742 186.306 43.7754L183.496 46.6223C184.741 47.8508 186.289 48.4943 188.038 48.4943V44.4943ZM186.315 43.7846C185.829 43.2981 185.606 42.7622 185.606 42.0625H181.606C181.606 43.8173 182.246 45.3723 183.487 46.6131L186.315 43.7846ZM185.606 42.0625C185.606 41.3974 185.82 40.8804 186.306 40.4008L183.496 37.5537C182.255 38.7787 181.606 40.3185 181.606 42.0625H185.606ZM186.306 40.4007C186.811 39.9019 187.354 39.6818 188.038 39.6818V35.6818C186.289 35.6818 184.741 36.3254 183.496 37.5538L186.306 40.4007ZM188.038 39.6818C188.654 39.6818 189.19 39.8869 189.727 40.4097L192.518 37.5448C191.282 36.3404 189.762 35.6818 188.038 35.6818V39.6818ZM189.746 40.4277C190.258 40.9142 190.469 41.4233 190.469 42.0625H194.469C194.469 40.2926 193.783 38.7449 192.5 37.5268L189.746 40.4277ZM190.469 42.0625C190.469 42.5182 190.358 42.892 190.144 43.2329L193.533 45.358C194.16 44.358 194.469 43.2432 194.469 42.0625H190.469ZM190.131 43.2537C189.891 43.6475 189.586 43.9478 189.199 44.1776L191.24 47.6178C192.193 47.0522 192.968 46.2843 193.546 45.3372L190.131 43.2537ZM189.186 44.1854C188.849 44.3884 188.481 44.4943 188.038 44.4943V48.4943C189.184 48.4943 190.271 48.2025 191.253 47.6101L189.186 44.1854Z" fill="black"/>
</svg>
