<svg width="80" height="80" viewBox="0 0 80 80" fill="none" xmlns="http://www.w3.org/2000/svg">
<circle cx="40" cy="40" r="39" fill="#FF8577" stroke="#303030" stroke-width="2"/>
<path d="M37.8632 42.592C37.8632 41.952 37.9379 41.376 38.0872 40.864C38.2579 40.3307 38.5459 39.8293 38.9512 39.36C39.3779 38.8907 39.9645 38.4213 40.7112 37.952C41.4152 37.504 41.9379 37.12 42.2792 36.8C42.6205 36.4587 42.8339 36.1493 42.9192 35.872C43.0259 35.5947 43.0792 35.3173 43.0792 35.04C43.0792 34.6133 42.8765 34.272 42.4712 34.016C42.0872 33.76 41.5752 33.632 40.9352 33.632C40.1459 33.632 39.2925 33.7707 38.3752 34.048C37.4579 34.3253 36.4765 34.7413 35.4312 35.296L33.2552 31.04C34.4285 30.3573 35.6872 29.824 37.0312 29.44C38.3752 29.0347 39.8259 28.832 41.3832 28.832C43.7512 28.832 45.5859 29.3547 46.8872 30.4C48.1885 31.4453 48.8392 32.8213 48.8392 34.528C48.8392 35.3387 48.7112 36.0853 48.4552 36.768C48.2205 37.4507 47.8259 38.0907 47.2712 38.688C46.7379 39.264 46.0232 39.84 45.1272 40.416C44.5085 40.8213 44.0179 41.1627 43.6552 41.44C43.2925 41.7173 43.0365 41.984 42.8872 42.24C42.7379 42.496 42.6632 42.7947 42.6632 43.136V43.936H37.8632V42.592ZM37.1912 49.408C37.1912 48.2987 37.5112 47.52 38.1512 47.072C38.7912 46.624 39.5699 46.4 40.4872 46.4C41.3619 46.4 42.1192 46.624 42.7592 47.072C43.3992 47.52 43.7192 48.2987 43.7192 49.408C43.7192 50.4533 43.3992 51.2107 42.7592 51.68C42.1192 52.1493 41.3619 52.384 40.4872 52.384C39.5699 52.384 38.7912 52.1493 38.1512 51.68C37.5112 51.2107 37.1912 50.4533 37.1912 49.408Z" fill="#303030"/>
</svg>
