<svg width="40" height="37" viewBox="0 0 40 37" fill="none" xmlns="http://www.w3.org/2000/svg">
<path d="M20 0C8.95423 0 0 7.06019 0 15.7692C0 21.3998 3.74346 26.3404 9.37462 29.1302C9.06827 30.1867 7.40596 35.9271 7.33981 36.3781C7.33981 36.3781 7.3 36.7169 7.51942 36.8462C7.73885 36.9754 7.99692 36.875 7.99692 36.875C8.62615 36.7871 15.2937 32.1037 16.4477 31.2904C17.6006 31.4537 18.7877 31.5385 20 31.5385C31.0458 31.5385 40 24.4785 40 15.7692C40 7.06019 31.0458 0 20 0Z" fill="#303030"/>
<path d="M8.94225 21.274C8.30591 21.274 7.78841 20.7797 7.78841 20.172V13.3172H5.98802C5.3636 13.3172 4.85571 12.8103 4.85571 12.1874C4.85571 11.5645 5.36379 11.0576 5.98802 11.0576H11.8965C12.5209 11.0576 13.0288 11.5645 13.0288 12.1874C13.0288 12.8103 12.5207 13.3172 11.8965 13.3172H10.0961V20.172C10.0961 20.7797 9.5786 21.274 8.94225 21.274ZM19.0599 21.259C18.5788 21.259 18.2107 21.0636 18.0998 20.7493L17.5284 19.2536L14.0099 19.2534L13.4382 20.7501C13.3276 21.0638 12.9598 21.259 12.4786 21.259C12.2255 21.2592 11.9753 21.2049 11.7451 21.0997C11.4271 20.953 11.1213 20.5495 11.4717 19.4613L14.2317 12.1967C14.4261 11.6442 15.0167 11.0749 15.7682 11.0578C16.5219 11.0747 17.1124 11.6442 17.3073 12.1978L20.0661 19.4592C20.4173 20.5499 20.1115 20.9536 19.7934 21.0999C19.5632 21.2049 19.313 21.2592 19.0599 21.259ZM16.9217 17.2097L15.7692 13.9357L14.6167 17.2097H16.9217ZM21.923 21.1057C21.3132 21.1057 20.8173 20.6311 20.8173 20.048V12.2115C20.8173 11.5751 21.3457 11.0576 21.9951 11.0576C22.6446 11.0576 23.173 11.5751 23.173 12.2115V18.9903H25.6249C26.2348 18.9903 26.7307 19.4649 26.7307 20.048C26.7307 20.6311 26.2348 21.1057 25.6249 21.1057H21.923ZM28.3334 21.259C27.6971 21.259 27.1796 20.7415 27.1796 20.1051V12.2115C27.1796 11.5751 27.6971 11.0576 28.3334 11.0576C28.9698 11.0576 29.4873 11.5751 29.4873 12.2115V14.6915L32.7065 11.4722C32.8721 11.3067 33.0996 11.2155 33.3465 11.2155C33.6346 11.2155 33.9238 11.3397 34.1405 11.5563C34.3426 11.7582 34.4632 12.018 34.4798 12.2878C34.4965 12.5599 34.4059 12.8093 34.2251 12.9903L31.5957 15.6193L34.4359 19.382C34.5276 19.5027 34.5944 19.6405 34.6324 19.7872C34.6705 19.934 34.679 20.0868 34.6574 20.2368C34.6369 20.387 34.5867 20.5316 34.5099 20.6622C34.433 20.7928 34.331 20.9069 34.2098 20.9978C34.0102 21.1495 33.7663 21.2313 33.5157 21.2307C33.3369 21.2315 33.1604 21.1905 33.0004 21.1108C32.8403 21.0312 32.7011 20.9152 32.594 20.772L29.888 17.1867L29.4876 17.587V20.1045C29.4873 20.4106 29.3656 20.704 29.1492 20.9204C28.9328 21.1368 28.6394 21.2586 28.3334 21.259Z" fill="#FFE812"/>
</svg>
