<?xml version="1.0" encoding="UTF-8"?>
<svg id="Layer_3" data-name="Layer 3" xmlns="http://www.w3.org/2000/svg" viewBox="0 0 314.5 63.7">
  <defs>
    <style>
      .cls-1 {
        fill: #fff;
      }

      .cls-2 {
        fill: #303030;
      }
    </style>
  </defs>
  <g>
    <g>
      <path class="cls-2" d="m47,21.7c-.3-1.2-.8-2.3-1.4-3.2-.6-.9-1.4-1.7-2.3-2.4-.9-.6-2-1.1-3.1-1.5-1.2-.3-2.5-.5-3.9-.5-2.8,0-5.3.7-7.4,2.1s-3.7,3.4-4.8,6-1.7,5.8-1.7,9.5c0,3.8.5,7,1.6,9.6s2.7,4.7,4.7,6.1c2.1,1.4,4.6,2.1,7.5,2.1,2.6,0,4.8-.4,6.6-1.3,1.8-.8,3.2-2.1,4.1-3.6.9-1.6,1.4-3.4,1.4-5.5l2.6.3h-14.2v-10.3h25.2v7.7c0,5.2-1.1,9.7-3.3,13.5s-5.3,6.6-9.1,8.6c-3.9,2-8.3,3-13.4,3-5.6,0-10.5-1.2-14.7-3.6s-7.5-5.9-9.9-10.4-3.5-9.8-3.5-16c0-4.8.7-9.1,2.1-12.8s3.4-6.9,6-9.5,5.5-4.6,8.9-5.9,7-2,10.9-2c3.4,0,6.6.5,9.5,1.5s5.5,2.3,7.8,4.1,4.1,3.9,5.5,6.3,2.3,5.1,2.6,8l-14.3.1h0Z"/>
      <path class="cls-2" d="m36.1,63.7c-5.9,0-11.1-1.3-15.6-3.9s-8.1-6.3-10.6-11.1c-2.4-4.7-3.7-10.4-3.7-16.8,0-5,.8-9.5,2.3-13.4s3.7-7.3,6.4-10.1c2.7-2.8,5.9-4.9,9.5-6.3S31.9,0,36,0C39.6,0,42.9.5,46,1.5s5.9,2.5,8.3,4.4c2.4,1.9,4.4,4.2,5.9,6.8,1.5,2.6,2.5,5.6,2.9,8.7l.2,1.917h-17.6l-.3-1.217c-.3-1-.7-1.9-1.2-2.7-.5-.7-1.1-1.4-1.9-1.9-.7-.5-1.6-.9-2.6-1.2-1-.3-2.2-.4-3.4-.4-2.5,0-4.6.6-6.4,1.8-1.8,1.2-3.2,2.9-4.1,5.2-1,2.4-1.5,5.4-1.5,8.8,0,3.5.5,6.5,1.5,8.9.9,2.3,2.3,4.1,4.1,5.3s3.9,1.8,6.5,1.8c2.3,0,4.3-.4,5.8-1.1,1.5-.7,2.6-1.7,3.3-2.9.5-.8.8-1.6,1-2.6h-11.5v-13.8h28.7v9.5c0,5.5-1.2,10.4-3.6,14.4s-5.7,7.1-9.9,9.3c-4,2.1-8.8,3.2-14.1,3.2h0Zm-.2-60.2c-3.7,0-7.1.6-10.3,1.9-3.1,1.2-5.9,3.1-8.3,5.5s-4.3,5.4-5.6,8.9-2,7.6-2,12.2c0,5.9,1.1,11,3.3,15.2,2.2,4.2,5.3,7.4,9.2,9.7,3.9,2.3,8.6,3.4,13.9,3.4,4.7,0,9-.9,12.6-2.8,3.6-1.8,6.4-4.5,8.4-7.9s3.1-7.7,3.1-12.6v-6h-21.7v6.8h8.1v-.5l4.6.5-.2,3.5h-1c-.2,1.6-.7,3.1-1.5,4.4-1.1,1.9-2.7,3.3-4.9,4.3-2,1-4.5,1.4-7.3,1.4-3.3,0-6.1-.8-8.5-2.4-2.3-1.6-4.1-3.9-5.4-6.8-1.2-2.8-1.8-6.3-1.8-10.3s.6-7.4,1.8-10.2c1.3-2.9,3.1-5.2,5.4-6.8,2.4-1.6,5.2-2.4,8.3-2.4,1.6,0,3,.2,4.4.6s2.6,1,3.7,1.7c1.1.8,2,1.7,2.8,2.8.5.7.9,1.5,1.3,2.4h11c-.4-1.9-1.1-3.7-2.1-5.4-1.3-2.2-3-4.2-5.1-5.8s-4.5-2.9-7.2-3.8c-2.8-1-5.8-1.5-9-1.5h0Z"/>
    </g>
    <g>
      <path class="cls-2" d="m90.5,61.9c-4.6,0-8.6-.9-11.9-2.8s-5.9-4.5-7.6-7.9c-1.8-3.4-2.7-7.4-2.7-11.8s.9-8.5,2.7-11.9c1.8-3.4,4.3-6.1,7.6-7.9,3.3-1.9,7.3-2.8,11.9-2.8s8.6.9,11.9,2.8,5.9,4.5,7.6,7.9c1.8,3.4,2.7,7.4,2.7,11.9s-.9,8.4-2.7,11.8-4.3,6.1-7.6,7.9c-3.4,1.9-7.3,2.8-11.9,2.8Zm.1-10.5c1.7,0,3.1-.5,4.3-1.5,1.2-1,2.1-2.5,2.7-4.3s.9-3.9.9-6.3-.3-4.6-.9-6.4c-.6-1.8-1.5-3.3-2.7-4.3s-2.6-1.5-4.3-1.5-3.2.5-4.4,1.5-2.1,2.5-2.7,4.3-.9,4-.9,6.4.3,4.5.9,6.3,1.5,3.3,2.7,4.3c1.2,1,2.6,1.5,4.4,1.5Z"/>
      <path class="cls-2" d="m90.5,63.7c-4.9,0-9.2-1-12.7-3.1-3.6-2.1-6.4-5-8.3-8.7-1.9-3.6-2.9-7.9-2.9-12.7s1-9.1,2.9-12.7c1.9-3.7,4.7-6.6,8.3-8.7,3.6-2,7.8-3.1,12.7-3.1s9.2,1,12.7,3.1c3.6,2.1,6.4,5,8.3,8.7,1.9,3.6,2.9,7.9,2.9,12.7s-1,9-2.9,12.7-4.7,6.6-8.3,8.7c-3.5,2-7.8,3.1-12.7,3.1h0Zm0-45.3c-4.3,0-8,.9-11,2.6s-5.3,4.2-7,7.2c-1.6,3.2-2.5,6.9-2.5,11.1s.8,7.9,2.5,11c1.6,3.1,4,5.5,7,7.2s6.7,2.6,11,2.6,8-.9,11-2.6c3-1.7,5.3-4.2,7-7.2,1.6-3.1,2.5-6.8,2.5-11s-.8-7.9-2.5-11.1c-1.6-3.1-4-5.5-7-7.2-3-1.8-6.8-2.6-11-2.6h0Zm.1,34.7c-2.2,0-4-.7-5.5-2-1.4-1.2-2.5-2.9-3.2-5.1-.7-2-1-4.3-1-6.9s.3-5,1-7c.7-2.1,1.8-3.8,3.2-5.1,1.5-1.3,3.4-2,5.5-2s3.9.7,5.4,2c1.4,1.2,2.5,2.9,3.2,5,.7,2,1,4.3,1,7,0,2.6-.3,4.9-1,6.9-.7,2.1-1.8,3.8-3.2,5-1.5,1.6-3.3,2.2-5.4,2.2h0Zm0-24.4c-1.3,0-2.4.4-3.2,1.1-.9.8-1.7,2-2.2,3.5-.6,1.6-.8,3.6-.8,5.8s.3,4.1.8,5.8c.5,1.5,1.3,2.7,2.2,3.5.9.8,1.9,1.1,3.2,1.1,1.2,0,2.3-.4,3.1-1.1.9-.8,1.7-2,2.2-3.5.6-1.6.8-3.6.8-5.8s-.3-4.2-.8-5.8c-.5-1.5-1.2-2.7-2.2-3.5-.9-.7-1.9-1.1-3.1-1.1h0Z"/>
    </g>
    <g>
      <path class="cls-2" d="m144.3,17.2v10.3h-27.7v-10.3s27.7,0,27.7,0Zm-21.9-10.5h14v40.6c0,.9.1,1.5.4,2.1.3.5.7.9,1.2,1.1.5.2,1.2.3,1.9.3.5,0,1.1-.1,1.7-.2s1.1-.2,1.4-.3l2.1,10.1c-.7.2-1.6.4-2.8.7-1.2.3-2.7.5-4.3.5-3.3.2-6.1-.2-8.4-1.2-2.3-.9-4.1-2.4-5.3-4.3-1.2-2-1.8-4.4-1.8-7.4l-.1-42h0Z"/>
      <path class="cls-2" d="m136.6,63.5c1.2.1,0,0,0,0-2.9,0-5.5-.4-7.7-1.3-2.7-1.1-4.8-2.8-6.2-5-1.4-2.2-2.1-5.1-2.1-8.4v-19.6h-5.8v-13.8l5.8-.109V4.777h17.5v10.514h7.9l.1,14.009h-7.9l-.1,18c0,.7.1,1.1.2,1.3.1.2.5.4.6.4.2.1,1.2.3,2.3.1.5-.1,1.2-.3,1.2-.3l1.8-.4,2.8,13.5-1.6.4c-.7.2-2.98.739-3.601.843-.683.158-3.099.357-5.199.357Zm-12.5-34.3v19.6c0,2.6.5,4.8,1.5,6.5,1,1.7,2.5,2.8,4.5,3.6,2.1.8,4.7,1.2,7.7,1,1.6-.1,2.9-.2,4-.5.4-.1.8-.2,1.2-.3l-1.4-6.8c-1.7.2-3.1.1-4.3-.3-.9-.4-1.6-1-2.1-1.9-.4-.8-.6-1.7-.6-2.9v-18h-10.5Zm14-3.5h4.4v-6.8h-4.4v6.8Zm-14,0h10.5v-6.8h-10.5s0,6.8,0,6.8Zm-5.8,0h2.3v-6.8h-2.3v6.8Zm5.8-10.3h10.5v-7h-10.5s0,7,0,7Z"/>
    </g>
    <g>
      <path class="cls-2" d="m171.2,61.9c-4.6,0-8.6-1-11.9-2.9-3.3-1.9-5.8-4.6-7.6-8s-2.7-7.3-2.7-11.8.9-8.4,2.7-11.8,4.3-6.1,7.6-8,7.3-2.9,11.9-2.9c4.1,0,7.6.7,10.6,2.2s5.4,3.5,7.1,6.2c1.7,2.7,2.6,5.8,2.7,9.4h-13.1c-.3-2.2-1-4-2.3-5.3-1.2-1.3-2.9-1.9-4.9-1.9-1.6,0-3,.5-4.3,1.4-1.2.9-2.2,2.2-2.8,4s-1,3.9-1,6.5.3,4.8,1,6.6,1.6,3.1,2.8,4,2.6,1.4,4.3,1.4c1.3,0,2.4-.3,3.4-.8,1-.6,1.8-1.4,2.5-2.4.6-1.1,1.1-2.4,1.2-3.9h13.1c-.1,3.6-1,6.8-2.7,9.5s-4,4.8-7,6.3c-3,1.5-6.5,2.2-10.6,2.2h0Z"/>
      <path class="cls-2" d="m171.2,63.7c-4.9,0-9.2-1-12.8-3.1s-6.4-5-8.3-8.7c-1.9-3.6-2.9-7.9-2.9-12.6s1-9,2.9-12.7,4.7-6.6,8.3-8.7,7.8-3.1,12.7-3.1c4.3,0,8.1.8,11.4,2.4,3.3,1.6,5.9,3.9,7.8,6.9,1.9,2.9,2.9,6.4,3,10.3v1.7h-16.4l-.2-1.4c-.2-1.8-.8-3.3-1.8-4.3-.9-.9-2.1-1.4-3.6-1.4-1.2,0-2.3.3-3.2,1s-1.7,1.8-2.3,3.2c-.6,1.6-.9,3.5-.9,5.9s.3,4.4.9,5.9c.6,1.5,1.3,2.5,2.3,3.2.9.7,2,1,3.2,1,1,0,1.9-.2,2.6-.6.7-.4,1.3-1,1.8-1.8.5-.9.8-1.9,1-3.2l.302-1.398h16.4l-.202,1.598c-.1,3.9-1.1,7.4-3,10.3-1.8,3-4.4,5.3-7.7,7-3.1,1.8-7,2.6-11.3,2.6h0Zm-.1-45.3c-4.3,0-8,.9-11,2.6s-5.3,4.2-7,7.3c-1.6,3.1-2.5,6.8-2.5,11s.8,7.9,2.5,11c1.6,3.1,3.9,5.5,6.9,7.3,3,1.7,6.7,2.6,11,2.6,3.8,0,7.2-.7,9.9-2.1,2.7-1.3,4.8-3.2,6.3-5.7,1.2-2,2-4.3,2.3-6.8h-9.7c-.3,1.2-.7,2.2-1.2,3.1-.8,1.3-1.9,2.4-3.1,3.1-1.3.7-2.7,1-4.3,1-2,0-3.8-.6-5.3-1.7-1.5-1.1-2.6-2.7-3.4-4.8-.7-2-1.1-4.4-1.1-7.2s.4-5.2,1.1-7.2c.8-2.1,1.9-3.7,3.4-4.8,1.5-1.1,3.3-1.7,5.3-1.7,2.5,0,4.5.8,6.1,2.4,1.2,1.2,2,2.8,2.5,4.8h9.7c-.3-2.5-1.1-4.8-2.3-6.7-1.5-2.4-3.7-4.3-6.4-5.6-2.6-1.2-5.9-1.9-9.7-1.9h0Z"/>
    </g>
    <g>
      <path class="cls-2" d="m212.4,36.1v25h-14V2.6h13.5v22.7h.5c1-2.7,2.6-4.8,4.9-6.3,2.3-1.5,5-2.3,8.3-2.3,3.1,0,5.8.7,8.1,2,2.3,1.4,4.1,3.3,5.3,5.8s1.9,5.4,1.9,8.7v28h-14v-25.3c0-2.4-.6-4.3-1.8-5.7s-3-2.1-5.2-2.1c-1.5,0-2.8.3-3.9,1s-2,1.5-2.6,2.7-1,2.6-1,4.3h0Z"/>
      <path class="cls-2" d="m242.6,63h-17.5v-27.1c0-2-.4-3.5-1.4-4.5-.9-1-2.2-1.5-3.9-1.5-1.2,0-2.1.2-3,.7-.8.5-1.5,1.1-1.9,2-.5.9-.7,2.1-.8,3.5v26.8h-17.5V.8h17v19c.8-.9,1.6-1.6,2.6-2.3,2.5-1.7,5.7-2.6,9.3-2.6,3.4,0,6.4.8,9,2.3s4.6,3.7,6,6.5c1.4,2.7,2.1,5.9,2.1,9.5v29.8h0Zm-14-3.6h10.5v-26.3c0-3-.5-5.7-1.7-7.9-1.1-2.2-2.7-3.9-4.7-5.1s-4.4-1.8-7.2-1.8c-2.9,0-5.4.7-7.3,2-2,1.3-3.3,3.1-4.2,5.5l-.4,1.1h-3.5V4.3h-10v55h10.5v-23.3c0-1.9.4-3.7,1.2-5.1.8-1.5,1.9-2.6,3.3-3.4,1.4-.8,3-1.2,4.7-1.2,2.8,0,5,.9,6.5,2.6,1.5,1.7,2.3,4,2.3,6.9v23.6h0Z"/>
    </g>
    <g>
      <path class="cls-2" d="m261.6,61.8c-2.8,0-5.3-.5-7.4-1.4-2.2-.9-3.9-2.4-5.1-4.3s-1.9-4.3-1.9-7.2c0-2.4.4-4.5,1.3-6.2s2-3,3.5-4.1c1.5-1,3.2-1.8,5.2-2.4,2-.5,4.1-.9,6.3-1.1,2.5-.2,4.5-.5,6-.7,1.5-.3,2.6-.6,3.3-1.1.7-.5,1-1.2,1-2.1v-.1c0-1.5-.5-2.6-1.5-3.4-1-.8-2.4-1.2-4.1-1.2-1.8,0-3.3.4-4.5,1.2-1.1.8-1.8,1.9-2.1,3.3l-12.9-.5c.4-2.7,1.4-5.1,3-7.2s3.8-3.8,6.6-5c2.8-1.2,6.1-1.8,10.1-1.8,2.8,0,5.4.3,7.7,1,2.4.7,4.4,1.6,6.2,2.9,1.8,1.2,3.1,2.8,4.1,4.6,1,1.8,1.4,3.9,1.4,6.2v29.8h-13.1v-6.1h-.3c-.8,1.5-1.8,2.7-3,3.8-1.2,1-2.6,1.8-4.3,2.3-1.6.6-3.5.8-5.5.8h0Zm4.3-9.1c1.5,0,2.9-.3,4.1-.9,1.2-.6,2.2-1.5,2.9-2.5.7-1.1,1.1-2.3,1.1-3.8v-4.2c-.4.2-.9.4-1.4.6-.6.2-1.2.3-1.8.5-.7.2-1.4.3-2.1.4s-1.4.2-2,.3c-1.3.2-2.4.5-3.4,1-.9.4-1.6,1-2.1,1.7s-.7,1.5-.7,2.5c0,1.4.5,2.6,1.6,3.3.9.7,2.2,1.1,3.8,1.1h0Z"/>
      <path class="cls-2" d="m261.6,63.6c-3,0-5.8-.5-8.1-1.6-2.5-1.1-4.5-2.7-5.9-4.9-1.4-2.2-2.2-4.9-2.2-8.2,0-2.7.5-5.1,1.5-7s2.4-3.5,4.1-4.7c1.7-1.2,3.6-2,5.7-2.6s4.3-1,6.6-1.2c2.4-.2,4.4-.5,5.9-.7,1.7-.3,2.4-.6,2.6-.8.2-.1.3-.3.3-.6v-.1c0-1.2-.5-1.7-.9-2-.7-.5-1.7-.8-3-.8-1.5,0-2.6.3-3.4.9-.8.5-1.2,1.3-1.4,2.3l-.3,1.4h-6.2l-10.1-.6.2-2.1c.4-3,1.5-5.6,3.3-8,1.8-2.3,4.2-4.2,7.3-5.5,3-1.3,6.6-2,10.8-2,2.9,0,5.7.4,8.2,1,2.5.7,4.8,1.8,6.7,3.1,2,1.4,3.5,3.1,4.6,5.2s1.6,4.4,1.6,7v31.798h-16.6v-3.398c-.1.1-.3.3-.4.4-1.4,1.2-3,2.1-4.9,2.7-1.8.7-3.8,1-6,1h0Zm6.7-38.8c2.1,0,3.9.5,5.2,1.6,1.4,1.1,2.2,2.8,2.2,4.8v.1c0,1.5-.6,2.7-1.8,3.5-.9.6-2.2,1.1-4,1.4-1.6.3-3.6.5-6.2.7-2.1.2-4.1.5-6,1-1.8.5-3.3,1.2-4.7,2.1-1.3.9-2.3,2-3,3.4s-1.1,3.2-1.1,5.4c0,2.5.5,4.6,1.6,6.3,1.1,1.6,2.5,2.8,4.4,3.6,1.9.8,4.2,1.3,6.7,1.3,1.9,0,3.5-.2,5-.7,1.4-.4,2.6-1.1,3.7-2,1-.9,1.9-2,2.6-3.3l.5-.9h3.1v6.1h9.6v-27.9c0-2-.4-3.8-1.2-5.4-.8-1.6-2-2.9-3.5-4-1.6-1.1-3.5-2-5.6-2.6-2.2-.6-4.6-.9-7.3-.9-3.7,0-6.8.6-9.4,1.7-2.5,1.1-4.5,2.6-5.9,4.4-1,1.3-1.8,2.8-2.2,4.4l9.5.3c.5-1.2,1.3-2.2,2.4-2.9,1.3-1,3.2-1.5,5.4-1.5h0Zm-2.4,29.6c-2,0-3.7-.5-5-1.5-1.5-1.1-2.3-2.7-2.3-4.7,0-1.3.4-2.5,1-3.5.7-.9,1.6-1.7,2.8-2.3,1.1-.5,2.4-.9,3.8-1.1.7-.1,1.3-.2,2-.3s1.3-.2,1.9-.4c.6-.1,1.2-.3,1.7-.5.5-.1.8-.3,1.1-.4l2.6-1.3v7.1c0,1.8-.5,3.4-1.4,4.7s-2.1,2.4-3.6,3.1c-1.2.8-2.8,1.1-4.6,1.1h0Zm6.3-10.6c-.4.1-.8.2-1.1.3-.7.2-1.4.3-2.2.4-.7.1-1.4.2-2.1.3-1.1.2-2.1.5-2.9.8-.6.3-1.1.7-1.4,1.1-.3.4-.4.9-.4,1.5,0,1.1.5,1.6.8,1.9.7.5,1.7.8,2.9.8s2.3-.2,3.3-.7c.9-.5,1.7-1.1,2.2-1.9.5-.8.8-1.7.8-2.8v-1.7s.1,0,.1,0Z"/>
    </g>
    <g>
      <path class="cls-2" d="m305.3,61.9c-2,0-3.8-.7-5.2-2.2s-2.2-3.2-2.2-5.3c0-2,.7-3.7,2.2-5.2,1.5-1.4,3.2-2.2,5.2-2.2s3.7.7,5.2,2.2c1.5,1.4,2.2,3.2,2.2,5.2,0,1.4-.3,2.6-1,3.7-.7,1.1-1.6,2-2.7,2.7s-2.4,1.1-3.7,1.1h0Zm7.2-59.3l-1.3,40.6h-11.8l-1.3-40.6h14.4Z"/>
      <path class="cls-2" d="m305.3,63.7c-2.5,0-4.7-.9-6.5-2.7-1.8-1.8-2.7-4-2.7-6.5s.9-4.7,2.7-6.4c1.8-1.8,4-2.7,6.5-2.7,2.4,0,4.6.9,6.4,2.6,1.8,1.8,2.8,3.9,2.8,6.5,0,1.7-.4,3.3-1.3,4.7-.8,1.4-2,2.5-3.3,3.3-1.5.8-3,1.2-4.6,1.2h0Zm0-14.8c-1.6,0-2.9.5-4,1.7-1.1,1.1-1.7,2.4-1.7,3.9,0,1.6.5,2.9,1.7,4,1.1,1.1,2.4,1.7,4,1.7,1,0,1.9-.2,2.8-.8.9-.5,1.6-1.2,2.1-2.1.5-.8.8-1.8.8-2.8,0-1.5-.6-2.8-1.7-3.9-1.2-1.2-2.5-1.7-4-1.7h0Zm7.5-3.9h-15.1l-1.4-44.1h18l-1.5,44v.1Zm-11.7-3.6h8.4l1.2-37.1h-10.8l1.2,37.1h0Z"/>
    </g>
  </g>
  <g>
    <g>
      <path class="cls-2" d="m40.8,21.7c-.3-1.2-.8-2.3-1.4-3.2-.6-.9-1.4-1.7-2.3-2.4-.9-.6-2-1.1-3.1-1.5-1.2-.3-2.5-.5-3.9-.5-2.8,0-5.3.7-7.4,2.1s-3.7,3.4-4.8,6-1.7,5.8-1.7,9.5c0,3.8.5,7,1.6,9.6s2.7,4.7,4.7,6.1c2.1,1.4,4.6,2.1,7.5,2.1,2.6,0,4.8-.4,6.6-1.3,1.8-.8,3.2-2.1,4.1-3.6.9-1.6,1.4-3.4,1.4-5.5l2.6.3h-14.2v-10.3h25.2v7.7c0,5.2-1.1,9.7-3.3,13.5s-5.3,6.6-9.1,8.6c-3.9,2-8.3,3-13.4,3-5.6,0-10.5-1.2-14.7-3.6s-7.5-5.9-9.9-10.4-3.5-9.8-3.5-16c0-4.8.7-9.1,2.1-12.8s3.4-6.9,6-9.5,5.5-4.6,8.9-5.9,7-2,10.9-2c3.4,0,6.6.5,9.5,1.5s5.5,2.3,7.8,4.1,4.1,3.9,5.5,6.3,2.3,5.1,2.6,8l-14.3.1h0Z"/>
      <path class="cls-2" d="m29.9,63.6c-5.9,0-11.1-1.3-15.6-3.8-4.4-2.5-8-6.3-10.6-11.1-2.4-4.7-3.7-10.2-3.7-16.8,0-5,.7-9.5,2.2-13.4,1.5-4,3.7-7.4,6.4-10.1,2.9-2.9,6-5,9.5-6.3,3.7-1.4,7.5-2.1,11.5-2.1,3.6,0,7,.5,10.1,1.6,3.3,1.1,6,2.6,8.3,4.4,2.4,1.9,4.4,4.1,5.9,6.8,1.6,2.7,2.5,5.6,2.8,8.7l.3,1.8-17.6.1-.3-1.3c-.2-1-.6-1.9-1.2-2.7-.4-.7-1.1-1.3-1.9-1.9-.7-.4-1.5-.9-2.6-1.2-3.8-.9-7.2-.4-9.8,1.4-1.8,1.2-3.2,2.9-4.2,5.2-.9,2.4-1.4,5.4-1.4,8.8,0,3.7.5,6.6,1.5,8.9,1,2.3,2.4,4.2,4.1,5.3,1.8,1.2,3.9,1.8,6.5,1.8,2.4,0,4.3-.4,5.8-1.1,1.5-.7,2.6-1.7,3.4-2.9.4-.8.8-1.6.9-2.5h-11.4v-13.9h28.7v9.5c0,5.5-1.2,10.3-3.5,14.4-2.3,3.9-5.6,7-9.8,9.3-4.3,2.1-8.9,3.1-14.3,3.1Zm-.2-60.2c-3.6,0-7,.6-10.3,1.9-3,1.2-5.7,3-8.3,5.5-2.4,2.4-4.3,5.4-5.6,8.9s-2,7.6-2,12.2c0,6.1,1.1,11,3.3,15.2,2.3,4.2,5.4,7.5,9.2,9.7,3.9,2.2,8.6,3.4,13.8,3.4,4.8,0,8.9-.9,12.6-2.8,3.7-1.9,6.4-4.5,8.4-7.9,2-3.5,3.1-7.8,3.1-12.6v-6h-21.7v6.8h8.1v-.5l4.6.5-.2,3.5h-1c-.2,1.5-.7,3-1.5,4.3-1.2,1.9-2.9,3.4-4.9,4.3-1.9,1-4.3,1.5-7.3,1.5-3.2,0-6.1-.8-8.5-2.4-2.3-1.6-4.1-4-5.3-6.9-1.2-2.8-1.7-6.1-1.7-10.3,0-3.9.6-7.3,1.8-10.2,1.2-2.9,3.1-5.2,5.4-6.8,2.4-1.6,5.2-2.4,8.4-2.4,1.4,0,2.8.2,4.3.6l.2.1c1.4.5,2.5,1.1,3.5,1.7l.1.1c1.1.9,2,1.8,2.7,2.8.5.7.9,1.6,1.2,2.4l11-.1c-.4-1.9-1.1-3.7-2.1-5.4-1.3-2.3-3-4.2-5.1-5.8-2-1.6-4.4-2.8-7.3-3.8-2.7-1-5.7-1.5-8.9-1.5Z"/>
    </g>
    <g>
      <path class="cls-2" d="m84.3,61.9c-4.6,0-8.6-.9-11.9-2.8s-5.9-4.5-7.6-7.9c-1.8-3.4-2.7-7.4-2.7-11.8s.9-8.5,2.7-11.9c1.8-3.4,4.3-6.1,7.6-7.9,3.3-1.9,7.3-2.8,11.9-2.8s8.6.9,11.9,2.8,5.9,4.5,7.6,7.9c1.8,3.4,2.7,7.4,2.7,11.9s-.9,8.4-2.7,11.8-4.3,6.1-7.6,7.9c-3.3,1.9-7.3,2.8-11.9,2.8Zm.1-10.5c1.7,0,3.1-.5,4.3-1.5,1.2-1,2.1-2.5,2.7-4.3s.9-3.9.9-6.3-.3-4.6-.9-6.4c-.6-1.8-1.5-3.3-2.7-4.3s-2.6-1.5-4.3-1.5-3.2.5-4.4,1.5-2.1,2.5-2.7,4.3-.9,4-.9,6.4.3,4.5.9,6.3,1.5,3.3,2.7,4.3,2.7,1.5,4.4,1.5Z"/>
      <path class="cls-2" d="m84.3,63.6c-5,0-9.3-1-12.8-3-3.7-2.1-6.5-5-8.3-8.6-1.9-3.6-2.9-7.8-2.9-12.6,0-4.7,1-9.1,2.9-12.7,2-3.8,4.8-6.7,8.3-8.6,3.5-2,7.8-3,12.7-3s9.3,1,12.8,3c3.7,2.1,6.5,5,8.3,8.6,1.9,3.6,2.9,7.9,2.9,12.7s-.9,8.9-2.9,12.6c-2,3.8-4.8,6.7-8.3,8.6-3.4,2-7.7,3-12.7,3Zm0-45.1c-4.4,0-8.1.9-11,2.6-2.9,1.6-5.2,4-6.9,7.2-1.6,3.1-2.5,6.9-2.5,11.1s.8,7.9,2.5,11c1.5,3,3.8,5.4,6.9,7.2,3,1.7,6.7,2.6,11,2.6,4.4,0,8.1-.9,11-2.6,2.9-1.6,5.2-4,6.9-7.2,1.7-3.2,2.5-6.8,2.5-11s-.8-8-2.5-11.1c-1.5-3-3.8-5.4-6.9-7.2-2.9-1.7-6.6-2.6-11-2.6Zm.1,34.6c-2.1,0-4-.7-5.5-1.9-1.4-1.2-2.5-2.9-3.2-5.1-.7-2-1-4.3-1-6.9s.3-5,1-7c.7-2.2,1.8-3.9,3.2-5.1,1.5-1.2,3.4-1.9,5.5-1.9s3.9.6,5.4,1.9c1.4,1.2,2.5,2.9,3.2,5.1.7,2,1,4.3,1,7,0,2.6-.3,4.9-1,6.9-.7,2.2-1.8,3.9-3.2,5.1-1.5,1.3-3.3,1.9-5.4,1.9Zm0-24.3c-1.3,0-2.4.4-3.3,1.1-.9.7-1.6,2-2.2,3.5-.5,1.6-.8,3.6-.8,5.8s.3,4.1.8,5.7c.5,1.5,1.3,2.8,2.2,3.5.9.7,2,1.1,3.3,1.1s2.3-.3,3.2-1.1,1.6-2,2.2-3.5c.5-1.6.8-3.5.8-5.7s-.3-4.3-.8-5.8-1.3-2.8-2.2-3.5c-.9-.7-1.9-1.1-3.2-1.1Z"/>
    </g>
    <g>
      <path class="cls-2" d="m138.1,17.2v10.3h-27.7v-10.3h27.7Zm-21.9-10.5h14v40.6c0,.9.1,1.5.4,2.1.3.5.7.9,1.2,1.1.5.2,1.2.3,1.9.3.5,0,1.1-.1,1.7-.2s1.1-.2,1.4-.3l2.1,10.1c-.7.2-1.6.4-2.8.7-1.2.3-2.7.5-4.3.5-3.3.2-6.1-.2-8.4-1.2-2.3-.9-4.1-2.4-5.3-4.3-1.2-2-1.8-4.4-1.8-7.4-.1.1-.1-42-.1-42Z"/>
      <path class="cls-2" d="m130.2,63.4c-2.9,0-5.4-.5-7.5-1.4-2.5-1-4.7-2.7-6.1-5-1.4-2.3-2.1-5-2.1-8.3h0c0-1.1,0-3-.1-6.6v-12.9h-5.8v-13.8h5.8V4.8h17.6v10.5h7.9v14h-7.9v18c0,.7.1,1,.2,1.3.1.2.2.3.3.3.2.1.6.2,1.2.2.4,0,.9-.1,1.4-.2.8-.1,1.1-.2,1.1-.2l1.9-.6,2.8,13.6-1.6.4c-.5.1-1,.3-1.7.4l-1.2.3c-1.4.4-3,.5-4.7.6-.4,0-1,0-1.5,0Zm-12.2-15.9h0v1.2c0,2.6.5,4.8,1.6,6.5,1,1.6,2.5,2.8,4.4,3.6,2.1.9,4.6,1.3,7.7,1.1h.1c1.3,0,2.7-.2,3.9-.4l1.2-.3-1.4-6.7c-.6.1-1.2.2-1.7.2-.6,0-1.6-.1-2.6-.4-.8-.3-1.5-1-2.1-1.8l-.1-.1c-.4-.8-.6-1.7-.6-2.9v-18.2h-10.4v18.2Zm14-21.7h4.4v-6.8h-4.4v6.8Zm-14,0h10.5v-6.8h-10.5v6.8Zm-5.9,0h2.3v-6.8h-2.3v6.8Zm5.9-10.4h10.5v-7h-10.5v7Z"/>
    </g>
    <g>
      <path class="cls-2" d="m165,61.9c-4.6,0-8.6-1-11.9-2.9-3.3-1.9-5.8-4.6-7.6-8s-2.7-7.3-2.7-11.8.9-8.4,2.7-11.8,4.3-6.1,7.6-8,7.3-2.9,11.8-2.9c4.1,0,7.6.7,10.6,2.2s5.4,3.5,7.1,6.2c1.7,2.7,2.6,5.8,2.7,9.4h-13.1c-.3-2.2-1-4-2.3-5.3-1.2-1.3-2.9-1.9-4.9-1.9-1.6,0-3,.5-4.3,1.4-1.2.9-2.2,2.2-2.8,4s-1,3.9-1,6.5.3,4.8,1,6.6,1.6,3.1,2.8,4,2.6,1.4,4.3,1.4c1.3,0,2.4-.3,3.4-.8,1-.6,1.8-1.4,2.5-2.4.6-1.1,1.1-2.4,1.2-3.9h13.1c-.1,3.6-1,6.8-2.7,9.5s-4,4.8-7,6.3c-2.8,1.5-6.4,2.2-10.5,2.2h0Z"/>
      <path class="cls-2" d="m165,63.6c-4.9,0-9.2-1.1-12.8-3.1-3.5-2-6.3-4.9-8.3-8.7-2-3.7-2.9-7.8-2.9-12.6s.9-8.9,2.9-12.6c2-3.8,4.8-6.7,8.3-8.7,3.6-2.1,7.9-3.1,12.7-3.1,4.5,0,8.2.8,11.4,2.4,3.4,1.7,6,4,7.8,6.8,1.9,3,2.9,6.4,3,10.3v1.8h-16.4l-.2-1.5c-.3-1.9-.9-3.4-1.8-4.3-.9-.9-2.1-1.4-3.7-1.4-1.2,0-2.2.3-3.3,1.1-1,.7-1.7,1.8-2.1,3.1-.6,1.8-.9,3.8-.9,5.9,0,2.5.3,4.4.9,6,.6,1.5,1.3,2.5,2.2,3.2,1,.7,2,1.1,3.3,1.1.9,0,1.7-.2,2.6-.6.7-.4,1.3-1,1.9-1.8.6-1.1.9-2.1.9-3.1l.1-1.6h16.4l-.1,1.8c-.1,3.9-1.1,7.4-3,10.4-1.9,3-4.5,5.3-7.7,6.9-2.9,1.5-6.7,2.3-11.2,2.3Zm-.1-45.3c-4.2,0-7.9.9-10.9,2.7-3,1.7-5.2,4.1-6.9,7.3-1.7,3.2-2.5,6.8-2.5,11s.8,7.8,2.5,11,4,5.6,6.9,7.3c3.1,1.8,6.8,2.7,11,2.7,4,0,7.2-.7,9.7-2,2.7-1.4,4.8-3.2,6.3-5.7,1.2-2,2-4.3,2.3-6.8h-9.7c-.2,1-.6,2-1.2,3l-.1.2c-.9,1.2-1.9,2.2-3,2.9l-.1.1c-1.3.7-2.7,1-4.2,1-2,0-3.8-.6-5.4-1.8-1.5-1.1-2.6-2.6-3.4-4.8-.8-1.9-1.1-4.3-1.1-7.2,0-2.5.4-4.9,1.1-7.1.7-2,1.8-3.7,3.4-4.8,1.7-1.2,3.4-1.8,5.3-1.8,2.6,0,4.7.9,6.2,2.5,1.2,1.2,2,2.7,2.5,4.7h9.8c-.3-2.5-1-4.7-2.3-6.7-1.5-2.3-3.6-4.1-6.4-5.6-2.7-1.5-5.9-2.1-9.8-2.1Z"/>
    </g>
    <g>
      <path class="cls-2" d="m206.2,36.1v25h-14V2.6h13.5v22.7h.5c1-2.7,2.6-4.8,4.9-6.3,2.3-1.5,5-2.3,8.3-2.3,3.1,0,5.8.7,8.1,2,2.3,1.4,4.1,3.3,5.3,5.8s1.9,5.4,1.9,8.7v28h-14v-25.3c0-2.4-.6-4.3-1.8-5.7s-3-2.1-5.2-2.1c-1.5,0-2.8.3-3.9,1s-2,1.5-2.6,2.7-1,2.6-1,4.3h0Z"/>
      <path class="cls-2" d="m236.5,63h-17.5v-27.1c0-2-.5-3.5-1.4-4.6-.8-1-2.1-1.5-3.9-1.5-1.2,0-2.2.2-3,.7-1,.6-1.6,1.2-2,2-.5,1.1-.8,2.2-.8,3.5v26.907h-17.5V.8h17v19c.8-.9,1.7-1.6,2.7-2.3,2.7-1.7,5.7-2.6,9.3-2.6,3.3,0,6.3.7,9,2.2,2.7,1.6,4.7,3.8,6,6.6,1.4,2.9,2.1,6,2.1,9.5v29.8h0Zm-14-3.5h10.5v-26.3c0-2.9-.6-5.6-1.7-7.9-1-2.1-2.5-3.8-4.6-5.1-2-1.1-4.5-1.7-7.2-1.7-2.9,0-5.3.7-7.3,2s-3.3,3.1-4.2,5.4l-.4,1.1h-3.6V4.3h-10v55h10.5v-23.2c0-1.8.4-3.5,1.2-5.1.7-1.4,1.7-2.4,3.2-3.4,1.3-.9,2.9-1.3,4.8-1.3,2.8,0,5,.9,6.5,2.7,1.5,1.7,2.2,4,2.2,6.8v23.7h.1Z"/>
    </g>
    <g>
      <path class="cls-2" d="m255.4,61.8c-2.8,0-5.3-.5-7.4-1.4-2.2-.9-3.9-2.4-5.1-4.3s-1.9-4.3-1.9-7.2c0-2.4.4-4.5,1.3-6.2s2-3,3.5-4.1c1.5-1,3.2-1.8,5.2-2.4,2-.5,4.1-.9,6.3-1.1,2.5-.2,4.5-.5,6-.7,1.5-.3,2.6-.6,3.3-1.1.7-.5,1-1.2,1-2.1v-.1c0-1.5-.5-2.6-1.5-3.4-1-.8-2.4-1.2-4.1-1.2-1.8,0-3.3.4-4.5,1.2-1.1.8-1.8,1.9-2.1,3.3l-12.9-.5c.4-2.7,1.4-5.1,3-7.2s3.8-3.8,6.6-5c2.8-1.2,6.1-1.8,10.1-1.8,2.8,0,5.4.3,7.7,1,2.4.7,4.4,1.6,6.2,2.9,1.8,1.2,3.1,2.8,4.1,4.6,1,1.8,1.4,3.9,1.4,6.2v29.8h-13.1v-6.1h-.3c-.8,1.5-1.8,2.7-3,3.8-1.2,1-2.6,1.8-4.3,2.3-1.6.6-3.4.8-5.5.8h0Zm4.3-9.1c1.5,0,2.9-.3,4.1-.9,1.2-.6,2.2-1.5,2.9-2.5.7-1.1,1.1-2.3,1.1-3.8v-4.2c-.4.2-.9.4-1.4.6-.6.2-1.2.3-1.8.5-.7.2-1.4.3-2.1.4s-1.4.2-2,.3c-1.3.2-2.4.5-3.4,1-.9.4-1.6,1-2.1,1.7s-.7,1.5-.7,2.5c0,1.4.5,2.6,1.6,3.3.9.7,2.2,1.1,3.8,1.1h0Z"/>
      <path class="cls-2" d="m255.4,63.5c-3,0-5.7-.5-8.1-1.5-2.5-1-4.4-2.7-5.9-5-1.4-2.3-2.2-5-2.2-8.1,0-2.8.5-5.1,1.5-7,1-2,2.3-3.4,4-4.7,1.8-1.2,3.6-2,5.7-2.7,2.4-.6,4.5-1,6.6-1.2s3.8-.4,5.2-.6l.7-.1c1-.2,2.1-.5,2.6-.8.1-.1.3-.2.3-.7v-.1c0-1.2-.4-1.7-.8-2-.7-.5-1.7-.8-3-.8-1.4,0-2.6.3-3.5.9-.7.5-1.2,1.2-1.4,2.2l-.28,1.579-16.32-.779.3-1.9c.4-3,1.6-5.7,3.3-8,1.8-2.4,4.3-4.2,7.3-5.5s6.6-1.9,10.8-1.9c3.1,0,5.9.4,8.2,1.1,2.7.8,4.8,1.8,6.7,3.2,1.8,1.2,3.4,2.9,4.6,5.2,1.1,2,1.6,4.3,1.6,7v31.6h-16.6v-3.1c-.1.1-.2.2-.4.3-1.5,1.3-3.1,2.1-4.9,2.7-1.6.5-3.5.7-6,.7Zm6.6-38.7c2.1,0,3.9.5,5.2,1.6,1.4,1.1,2.2,2.7,2.2,4.8v.1c0,1.9-.9,3-1.7,3.5-1,.7-2.2,1-4,1.4h-.1l-.7.1c-1.4.2-3.2.4-5.4.6-1.9.2-3.9.5-6,1.1-1.7.5-3.3,1.2-4.7,2.2-1.2.9-2.1,2-2.9,3.5-.7,1.4-1.1,3.2-1.1,5.4,0,2.4.5,4.6,1.6,6.3s2.5,2.9,4.3,3.6c2,.8,4.2,1.3,6.7,1.3,2.1,0,3.6-.2,4.9-.7h.1c1.4-.4,2.6-1,3.7-2s1.9-2.1,2.6-3.3l.5-.9h3.1v5.9h9.6v-28.1c0-2.2-.4-3.9-1.2-5.3-1-1.7-2.1-3.1-3.5-4-1.6-1.2-3.4-2-5.7-2.7-2-.6-4.5-.9-7.2-.9-3.7,0-6.8.5-9.4,1.7-2.5,1.1-4.5,2.6-5.9,4.5-1,1.3-1.8,2.8-2.2,4.5l9.5.4c.5-1.2,1.3-2.1,2.3-2.9,1.4-1.2,3.3-1.7,5.4-1.7Zm-2.3,29.7c-1.9,0-3.6-.5-4.8-1.4-1.5-1-2.3-2.7-2.3-4.7,0-1.4.3-2.5,1-3.5s1.7-1.8,2.8-2.3c1-.5,2.3-.9,3.8-1.1.6-.1,1.3-.2,2-.3s1.3-.2,1.9-.4c.3-.1.6-.2,1-.3.2-.1.5-.1.7-.2.4-.2.9-.3,1.2-.5l2.5-1.3v7c0,1.7-.4,3.3-1.4,4.7s-2.2,2.4-3.6,3.1c-1.4.8-3,1.2-4.8,1.2Zm6.3-10.7h-.1c-.3.1-.5.1-.8.2-.9.3-1.7.4-2.4.5-.7.1-1.4.2-2,.3-1.2.2-2.1.5-2.9.8-.6.3-1.1.7-1.5,1.2-.2.3-.4.6-.4,1.5s.3,1.5.8,1.8l.1.1c.6.5,1.6.7,2.7.7,1.3,0,2.4-.2,3.3-.7.9-.4,1.7-1.1,2.2-1.9.5-.8.8-1.7.8-2.8v-1.7h.2Z"/>
    </g>
    <g>
      <path class="cls-2" d="m299.1,61.9c-2,0-3.8-.7-5.2-2.2s-2.2-3.2-2.2-5.3c0-2,.7-3.7,2.2-5.2,1.5-1.4,3.2-2.2,5.2-2.2s3.7.7,5.2,2.2c1.5,1.4,2.2,3.2,2.2,5.2,0,1.4-.3,2.6-1,3.7-.7,1.1-1.6,2-2.7,2.7s-2.4,1.1-3.7,1.1h0Zm7.1-56.1l-1.2,37.4h-11.8l-1.3-40.6h14.4l-.1,3.2Z"/>
      <path class="cls-2" d="m299.1,63.6c-2.6,0-4.8-1-6.5-2.8-1.8-1.9-2.7-4-2.7-6.5s.9-4.6,2.7-6.4c1.9-1.8,4.1-2.7,6.4-2.7,2.5,0,4.6.9,6.4,2.7,1.8,1.6,2.7,3.9,2.7,6.4,0,1.8-.4,3.3-1.3,4.6-.8,1.3-1.9,2.4-3.2,3.2-1.3,1.1-2.9,1.5-4.5,1.5Zm0-14.8c-1.5,0-2.7.5-4,1.7-1.1,1.1-1.6,2.4-1.6,3.9s.5,2.8,1.7,4.1c1,1.1,2.3,1.6,3.9,1.6.9,0,1.9-.3,2.8-.8.9-.6,1.6-1.3,2.2-2.2.5-.8.7-1.7.7-2.8,0-1.6-.6-2.9-1.6-3.9-1.3-1.1-2.5-1.6-4.1-1.6Zm7.6-3.8h-15.2l-1.4-44.1h18l-1.4,44.1Zm-11.8-3.5h8.4l1.2-37.1h-10.8l1.2,37.1Z"/>
    </g>
  </g>
  <g>
    <path class="cls-1" d="m41.3,21.6c-.3-1.2-.8-2.3-1.4-3.2-.6-.9-1.4-1.7-2.3-2.4-.9-.6-2-1.1-3.1-1.5-1.2-.3-2.5-.5-3.9-.5-2.8,0-5.3.7-7.4,2.1s-3.7,3.4-4.8,6-1.7,5.8-1.7,9.5c0,3.8.5,7,1.6,9.6,1.1,2.6,2.7,4.7,4.7,6.1,2.1,1.4,4.6,2.1,7.5,2.1,2.6,0,4.8-.4,6.6-1.3,1.8-.8,3.2-2.1,4.1-3.6.9-1.6,1.4-3.4,1.4-5.5l2.6.3h-14.2v-10.3h25.2v7.7c0,5.2-1.1,9.7-3.3,13.5s-5.3,6.6-9.1,8.6c-3.9,2-8.3,3-13.4,3-5.6,0-10.5-1.2-14.7-3.6s-7.5-5.9-9.9-10.4-3.5-9.8-3.5-16c0-4.8.7-9.1,2.1-12.8s3.4-6.9,6-9.5,5.5-4.6,8.9-5.9,7-2,10.9-2c3.4,0,6.6.5,9.5,1.5s5.5,2.3,7.8,4.1,4.1,3.9,5.5,6.3,2.3,5.1,2.6,8l-14.3.1h0Z"/>
    <path class="cls-1" d="m84.7,61.8c-4.6,0-8.6-.9-11.9-2.8s-5.9-4.5-7.6-7.9c-1.8-3.4-2.7-7.4-2.7-11.8s.9-8.5,2.7-11.9c1.8-3.4,4.3-6.1,7.6-7.9,3.3-1.9,7.3-2.8,11.9-2.8s8.6.9,11.9,2.8,5.9,4.5,7.6,7.9c1.8,3.4,2.7,7.4,2.7,11.9s-.9,8.4-2.7,11.8-4.3,6.1-7.6,7.9c-3.3,1.9-7.2,2.8-11.9,2.8Zm.1-10.5c1.7,0,3.1-.5,4.3-1.5,1.2-1,2.1-2.5,2.7-4.3s.9-3.9.9-6.3-.3-4.6-.9-6.4c-.6-1.8-1.5-3.3-2.7-4.3s-2.6-1.5-4.3-1.5-3.2.5-4.4,1.5-2.1,2.5-2.7,4.3-.9,4-.9,6.4.3,4.5.9,6.3,1.5,3.3,2.7,4.3,2.7,1.5,4.4,1.5Z"/>
    <path class="cls-1" d="m138.6,17.1v10.3h-27.7v-10.3h27.7Zm-21.9-10.5h14v40.6c0,.9.1,1.5.4,2.1.3.5.7.9,1.2,1.1.5.2,1.2.3,1.9.3.5,0,1.1-.1,1.7-.2s1.1-.2,1.4-.3l2.1,10.1c-.7.2-1.6.4-2.8.7-1.2.3-2.7.5-4.3.5-3.3.2-6.1-.2-8.4-1.2-2.3-.9-4.1-2.4-5.3-4.3-1.2-2-1.8-4.4-1.8-7.4-.1.1-.1-42-.1-42Z"/>
    <path class="cls-1" d="m165.4,61.8c-4.6,0-8.6-1-11.9-2.9-3.3-1.9-5.8-4.6-7.6-8s-2.7-7.3-2.7-11.8.9-8.4,2.7-11.8,4.3-6.1,7.6-8,7.3-2.9,11.9-2.9c4.1,0,7.6.7,10.6,2.2s5.4,3.5,7.1,6.2c1.7,2.7,2.6,5.8,2.7,9.4h-13.1c-.3-2.2-1-4-2.3-5.3-1.2-1.3-2.9-1.9-4.9-1.9-1.6,0-3,.5-4.3,1.4-1.2.9-2.2,2.2-2.8,4s-1,3.9-1,6.5.3,4.8,1,6.6,1.6,3.1,2.8,4,2.6,1.4,4.3,1.4c1.3,0,2.4-.3,3.4-.8,1-.6,1.8-1.4,2.5-2.4.6-1.1,1.1-2.4,1.2-3.9h13.1c-.1,3.6-1,6.8-2.7,9.5s-4,4.8-7,6.3c-2.9,1.5-6.5,2.2-10.6,2.2h0Z"/>
    <path class="cls-1" d="m206.6,35.9v25h-14V2.4h13.5v22.7h0c1-2.7,3.1-4.8,5.4-6.3,2.3-1.5,5-2.3,8.3-2.3,3.1,0,5.8.7,8.1,2,2.3,1.4,4.1,3.3,5.3,5.8s1.9,5.4,1.9,8.7v28h-14v-25.3c0-2.4-.6-4.3-1.8-5.7s-3-2.1-5.2-2.1c-1.5,0-2.8.3-3.9,1s-2,1.5-2.6,2.7-.9,2.7-1,4.3h0Z"/>
    <path class="cls-1" d="m255.9,61.7c-2.8,0-5.3-.5-7.4-1.4-2.2-.9-3.9-2.4-5.1-4.3s-1.9-4.3-1.9-7.2c0-2.4.4-4.5,1.3-6.2s2-3,3.5-4.1c1.5-1,3.2-1.8,5.2-2.4,2-.5,4.1-.9,6.3-1.1,2.5-.2,4.5-.5,6-.7,1.5-.3,2.6-.6,3.3-1.1.7-.5,1-1.2,1-2.1v-.1c0-1.5-.5-2.6-1.5-3.4-1-.8-2.4-1.2-4.1-1.2-1.8,0-3.3.4-4.5,1.2-1.1.8-1.8,1.9-2.1,3.3l-12.9-.5c.4-2.7,1.4-5.1,3-7.2s3.8-3.8,6.6-5c2.8-1.2,6.1-1.8,10.1-1.8,2.8,0,5.4.3,7.7,1,2.4.7,4.4,1.6,6.2,2.9,1.8,1.2,3.1,2.8,4.1,4.6,1,1.8,1.4,3.9,1.4,6.2v29.8h-13.1v-6.1h-.3c-.8,1.5-1.8,2.7-3,3.8-1.2,1-2.6,1.8-4.3,2.3-1.7.6-3.5.8-5.5.8h0Zm4.3-9.1c1.5,0,2.9-.3,4.1-.9,1.2-.6,2.2-1.5,2.9-2.5.7-1.1,1.1-2.3,1.1-3.8v-4.2c-.4.2-.9.4-1.4.6-.6.2-1.2.3-1.8.5-.7.2-1.4.3-2.1.4s-1.4.2-2,.3c-1.3.2-2.4.5-3.4,1-.9.4-1.6,1-2.1,1.7s-.7,1.5-.7,2.5c0,1.4.5,2.6,1.6,3.3.9.7,2.2,1.1,3.8,1.1h0Z"/>
    <path class="cls-1" d="m299.5,61.8c-2,0-3.8-.7-5.2-2.2s-2.2-3.2-2.2-5.3c0-2,.7-3.7,2.2-5.2,1.5-1.4,3.2-2.2,5.2-2.2s3.7.7,5.2,2.2c1.5,1.4,2.2,3.2,2.2,5.2,0,1.4-.3,2.6-1,3.7-.7,1.1-1.6,2-2.7,2.7s-2.3,1.1-3.7,1.1h0Zm7.2-59.4l-1.3,40.6h-11.8l-1.3-40.6h14.4Z"/>
  </g>
</svg>