<svg width="30" height="31" viewBox="0 0 30 31" fill="none" xmlns="http://www.w3.org/2000/svg">
<circle cx="15" cy="15.5" r="14" fill="#FF8577" stroke="#303030" stroke-width="2"/>
<path d="M13.6409 17.586C13.6409 17.19 13.6949 16.836 13.8029 16.524C13.9109 16.212 14.0849 15.918 14.3249 15.642C14.5769 15.366 14.9069 15.084 15.3149 14.796C15.6749 14.532 15.9629 14.298 16.1789 14.094C16.4069 13.89 16.5689 13.686 16.6649 13.482C16.7729 13.278 16.8269 13.05 16.8269 12.798C16.8269 12.414 16.6829 12.126 16.3949 11.934C16.1189 11.73 15.7289 11.628 15.2249 11.628C14.7209 11.628 14.2229 11.706 13.7309 11.862C13.2389 12.018 12.7349 12.228 12.2189 12.492L11.2649 10.566C11.8529 10.242 12.4889 9.978 13.1729 9.774C13.8569 9.57 14.6069 9.468 15.4229 9.468C16.6709 9.468 17.6369 9.768 18.3209 10.368C19.0169 10.968 19.3649 11.73 19.3649 12.654C19.3649 13.146 19.2869 13.572 19.1309 13.932C18.9749 14.292 18.7409 14.628 18.4289 14.94C18.1169 15.24 17.7269 15.564 17.2589 15.912C16.9109 16.164 16.6409 16.38 16.4489 16.56C16.2569 16.74 16.1249 16.914 16.0529 17.082C15.9929 17.25 15.9629 17.46 15.9629 17.712V18.234H13.6409V17.586ZM13.3529 21.24C13.3529 20.688 13.5029 20.304 13.8029 20.088C14.1029 19.86 14.4689 19.746 14.9009 19.746C15.3209 19.746 15.6809 19.86 15.9809 20.088C16.2809 20.304 16.4309 20.688 16.4309 21.24C16.4309 21.768 16.2809 22.152 15.9809 22.392C15.6809 22.62 15.3209 22.734 14.9009 22.734C14.4689 22.734 14.1029 22.62 13.8029 22.392C13.5029 22.152 13.3529 21.768 13.3529 21.24Z" fill="#303030"/>
</svg>
