<svg width="48" height="65" viewBox="0 0 48 65" fill="none" xmlns="http://www.w3.org/2000/svg">
<rect x="7.63698" y="4.09521" width="8" height="24" transform="rotate(-20 7.63698 4.09521)" fill="#699BF7" stroke="#303030"/>
<rect x="30.8455" y="1.35963" width="8" height="24" transform="rotate(20 30.8455 1.35963)" fill="#699BF7" stroke="#303030"/>
<g filter="url(#filter0_d_186_295)">
<circle cx="23.5" cy="40.0034" r="22.5" fill="#E8E8E8"/>
<circle cx="23.5" cy="40.0034" r="23" stroke="#303030"/>
</g>
<path d="M29.5688 48.5034H17.5928V45.9834L21.8888 41.6394C22.7528 40.7434 23.4488 39.9994 23.9768 39.4074C24.5048 38.7994 24.8888 38.2554 25.1288 37.7754C25.3688 37.2794 25.4888 36.7514 25.4888 36.1914C25.4888 35.5034 25.2968 34.9914 24.9128 34.6554C24.5448 34.3194 24.0408 34.1514 23.4008 34.1514C22.7448 34.1514 22.1048 34.3034 21.4808 34.6074C20.8568 34.9114 20.2008 35.3434 19.5128 35.9034L17.5448 33.5754C18.0408 33.1434 18.5608 32.7434 19.1048 32.3754C19.6648 32.0074 20.3048 31.7114 21.0248 31.4874C21.7608 31.2474 22.6408 31.1274 23.6648 31.1274C24.7848 31.1274 25.7448 31.3354 26.5448 31.7514C27.3608 32.1514 27.9848 32.7034 28.4168 33.4074C28.8648 34.0954 29.0888 34.8794 29.0888 35.7594C29.0888 36.4794 28.9768 37.1434 28.7528 37.7514C28.5448 38.3594 28.2328 38.9514 27.8168 39.5274C27.4168 40.0874 26.9208 40.6714 26.3288 41.2794C25.7368 41.8714 25.0648 42.5194 24.3128 43.2234L22.1048 45.2874V45.4554H29.5688V48.5034Z" fill="black"/>
<defs>
<filter id="filter0_d_186_295" x="0" y="16.5034" width="48" height="48" filterUnits="userSpaceOnUse" color-interpolation-filters="sRGB">
<feFlood flood-opacity="0" result="BackgroundImageFix"/>
<feColorMatrix in="SourceAlpha" type="matrix" values="0 0 0 0 0 0 0 0 0 0 0 0 0 0 0 0 0 0 127 0" result="hardAlpha"/>
<feOffset dx="1" dy="1"/>
<feComposite in2="hardAlpha" operator="out"/>
<feColorMatrix type="matrix" values="0 0 0 0 0.188235 0 0 0 0 0.188235 0 0 0 0 0.188235 0 0 0 1 0"/>
<feBlend mode="normal" in2="BackgroundImageFix" result="effect1_dropShadow_186_295"/>
<feBlend mode="normal" in="SourceGraphic" in2="effect1_dropShadow_186_295" result="shape"/>
</filter>
</defs>
</svg>
