<svg width="1728" height="1117" viewBox="0 0 1728 1117" fill="none" xmlns="http://www.w3.org/2000/svg">
<g clip-path="url(#clip0_200_50)">
<rect width="1728" height="1117" fill="#5551FF"/>
<circle cx="207" cy="249" r="8.5" fill="#37A954" stroke="black" stroke-width="3"/>
<circle cx="1398" cy="716" r="13.5" fill="#C7B9FF" stroke="black" stroke-width="3"/>
<rect x="301.994" y="470.781" width="42" height="10" rx="5" transform="rotate(-25.0551 301.994 470.781)" fill="#A259FF" stroke="#303030" stroke-width="3"/>
<rect x="1525.9" y="320.783" width="42" height="10" rx="5" transform="rotate(12.1948 1525.9 320.783)" fill="#FF8577" stroke="#303030" stroke-width="3"/>
<rect x="1625.36" y="786.067" width="42" height="10" rx="5" transform="rotate(31.9551 1625.36 786.067)" fill="#DFF93E" stroke="#303030" stroke-width="3"/>
<rect x="219.017" y="773.071" width="42" height="10" rx="5" transform="rotate(-26.9782 219.017 773.071)" fill="#699BF7" stroke="#303030" stroke-width="3"/>
<path d="M1359.43 421.416L1362.91 432.318C1363.3 433.562 1364.22 434.571 1365.42 435.086L1375.99 439.622C1377.2 440.141 1377.2 441.859 1375.99 442.378L1365.42 446.914C1364.22 447.429 1363.3 448.438 1362.91 449.682L1359.43 460.584C1358.98 461.977 1357.02 461.977 1356.57 460.584L1353.09 449.682C1352.7 448.438 1351.78 447.429 1350.58 446.914L1340.01 442.378C1338.8 441.859 1338.8 440.141 1340.01 439.622L1350.58 435.086C1351.78 434.571 1352.7 433.562 1353.09 432.318L1356.57 421.416C1357.02 420.023 1358.98 420.023 1359.43 421.416Z" fill="#CFE2FF" stroke="#303030" stroke-width="3"/>
<path d="M119.429 595.416L122.907 606.318C123.304 607.562 124.22 608.571 125.419 609.086L135.986 613.622C137.197 614.141 137.197 615.859 135.986 616.378L125.419 620.914C124.22 621.429 123.304 622.438 122.907 623.682L119.429 634.584C118.985 635.977 117.015 635.977 116.571 634.584L113.093 623.682C112.696 622.438 111.78 621.429 110.581 620.914L100.014 616.378C98.803 615.859 98.803 614.141 100.014 613.622L110.581 609.086C111.78 608.571 112.696 607.562 113.093 606.318L116.571 595.416C117.015 594.023 118.985 594.023 119.429 595.416Z" fill="#37A954" stroke="#303030" stroke-width="3"/>
<circle cx="1640.64" cy="1005" r="8.5" fill="#37A954" stroke="black" stroke-width="3"/>
<circle cx="1050.64" cy="887" r="13.5" fill="#C7B9FF" stroke="black" stroke-width="3"/>
<rect x="73.9941" y="947.864" width="42" height="10" rx="5" transform="rotate(-25.0551 73.9941 947.864)" fill="#A259FF" stroke="#303030" stroke-width="3"/>
<rect x="459.531" y="938.783" width="42" height="10" rx="5" transform="rotate(12.1948 459.531 938.783)" fill="#FF8577" stroke="#303030" stroke-width="3"/>
<rect x="1174.99" y="904.067" width="42" height="10" rx="5" transform="rotate(31.9551 1174.99 904.067)" fill="#DFF93E" stroke="#303030" stroke-width="3"/>
<rect x="1521.65" y="946.071" width="42" height="10" rx="5" transform="rotate(-26.9782 1521.65 946.071)" fill="#699BF7" stroke="#303030" stroke-width="3"/>
<path d="M610.064 917.416L613.542 928.318C613.939 929.562 614.855 930.571 616.054 931.086L626.621 935.622C627.832 936.141 627.832 937.859 626.621 938.378L616.054 942.914C614.855 943.429 613.939 944.438 613.542 945.682L610.064 956.584C609.62 957.977 607.65 957.977 607.206 956.584L603.728 945.682C603.332 944.438 602.415 943.429 601.216 942.914L590.649 938.378C589.438 937.859 589.438 936.141 590.649 935.622L601.216 931.086C602.415 930.571 603.332 929.562 603.728 928.318L607.206 917.416C607.65 916.023 609.62 916.023 610.064 917.416Z" fill="#CFE2FF" stroke="#303030" stroke-width="3"/>
<path d="M1359.06 908.416L1362.54 919.318C1362.94 920.562 1363.86 921.571 1365.05 922.086L1375.62 926.622C1376.83 927.141 1376.83 928.859 1375.62 929.378L1365.05 933.914C1363.86 934.429 1362.94 935.438 1362.54 936.682L1359.06 947.584C1358.62 948.977 1356.65 948.977 1356.21 947.584L1352.73 936.682C1352.33 935.438 1351.42 934.429 1350.22 933.914L1339.65 929.378C1338.44 928.859 1338.44 927.141 1339.65 926.622L1350.22 922.086C1351.42 921.571 1352.33 920.562 1352.73 919.318L1356.21 908.416C1356.65 907.023 1358.62 907.023 1359.06 908.416Z" fill="#37A954" stroke="#303030" stroke-width="3"/>
<circle cx="1641" cy="144" r="8.5" fill="#37A954" stroke="black" stroke-width="3"/>
<circle cx="1051" cy="26" r="13.5" fill="#C7B9FF" stroke="black" stroke-width="3"/>
<rect x="74.3588" y="86.8638" width="42" height="10" rx="5" transform="rotate(-25.0551 74.3588 86.8638)" fill="#A259FF" stroke="#303030" stroke-width="3"/>
<rect x="459.895" y="77.783" width="42" height="10" rx="5" transform="rotate(12.1948 459.895 77.783)" fill="#FF8577" stroke="#303030" stroke-width="3"/>
<rect x="1175.36" y="43.0666" width="42" height="10" rx="5" transform="rotate(31.9551 1175.36 43.0666)" fill="#DFF93E" stroke="#303030" stroke-width="3"/>
<rect x="1522.02" y="85.0706" width="42" height="10" rx="5" transform="rotate(-26.9782 1522.02 85.0706)" fill="#699BF7" stroke="#303030" stroke-width="3"/>
<path d="M610.429 56.4156L613.907 67.3184C614.304 68.5615 615.22 69.5713 616.419 70.086L626.986 74.6216C628.197 75.1415 628.197 76.8585 626.986 77.3784L616.419 81.914C615.22 82.4287 614.304 83.4385 613.907 84.6816L610.429 95.5844C609.985 96.9766 608.015 96.9766 607.571 95.5844L604.093 84.6816C603.696 83.4385 602.78 82.4287 601.581 81.914L591.014 77.3784C589.803 76.8585 589.803 75.1415 591.014 74.6216L601.581 70.086C602.78 69.5713 603.696 68.5615 604.093 67.3184L607.571 56.4156C608.015 55.0234 609.985 55.0234 610.429 56.4156Z" fill="#CFE2FF" stroke="#303030" stroke-width="3"/>
<path d="M1359.43 47.4156L1362.91 58.3184C1363.3 59.5615 1364.22 60.5713 1365.42 61.086L1375.99 65.6216C1377.2 66.1415 1377.2 67.8585 1375.99 68.3784L1365.42 72.914C1364.22 73.4287 1363.3 74.4385 1362.91 75.6816L1359.43 86.5844C1358.98 87.9766 1357.02 87.9766 1356.57 86.5844L1353.09 75.6816C1352.7 74.4385 1351.78 73.4287 1350.58 72.914L1340.01 68.3784C1338.8 67.8585 1338.8 66.1415 1340.01 65.6216L1350.58 61.086C1351.78 60.5713 1352.7 59.5615 1353.09 58.3184L1356.57 47.4156C1357.02 46.0234 1358.98 46.0234 1359.43 47.4156Z" fill="#37A954" stroke="#303030" stroke-width="3"/>
<circle cx="1493.64" cy="647" r="8.5" fill="#37A954" stroke="black" stroke-width="3"/>
<circle cx="903.635" cy="529" r="13.5" fill="#C7B9FF" stroke="black" stroke-width="3"/>
<rect x="312.531" y="580.783" width="42" height="10" rx="5" transform="rotate(12.1948 312.531 580.783)" fill="#FF8577" stroke="#303030" stroke-width="3"/>
<rect x="1027.99" y="546.067" width="42" height="10" rx="5" transform="rotate(31.9551 1027.99 546.067)" fill="#DFF93E" stroke="#303030" stroke-width="3"/>
<rect x="1374.65" y="588.071" width="42" height="10" rx="5" transform="rotate(-26.9782 1374.65 588.071)" fill="#699BF7" stroke="#303030" stroke-width="3"/>
<path d="M463.064 559.416L466.542 570.318C466.939 571.562 467.855 572.571 469.054 573.086L479.621 577.622C480.832 578.141 480.832 579.859 479.621 580.378L469.054 584.914C467.855 585.429 466.939 586.438 466.542 587.682L463.064 598.584C462.62 599.977 460.65 599.977 460.206 598.584L456.728 587.682C456.332 586.438 455.415 585.429 454.216 584.914L443.649 580.378C442.438 579.859 442.438 578.141 443.649 577.622L454.216 573.086C455.415 572.571 456.332 571.562 456.728 570.318L460.206 559.416C460.65 558.023 462.62 558.023 463.064 559.416Z" fill="#CFE2FF" stroke="#303030" stroke-width="3"/>
<path d="M1212.06 550.416L1215.54 561.318C1215.94 562.562 1216.86 563.571 1218.05 564.086L1228.62 568.622C1229.83 569.141 1229.83 570.859 1228.62 571.378L1218.05 575.914C1216.86 576.429 1215.94 577.438 1215.54 578.682L1212.06 589.584C1211.62 590.977 1209.65 590.977 1209.21 589.584L1205.73 578.682C1205.33 577.438 1204.42 576.429 1203.22 575.914L1192.65 571.378C1191.44 570.859 1191.44 569.141 1192.65 568.622L1203.22 564.086C1204.42 563.571 1205.33 562.562 1205.73 561.318L1209.21 550.416C1209.65 549.023 1211.62 549.023 1212.06 550.416Z" fill="#37A954" stroke="#303030" stroke-width="3"/>
<circle cx="1585.64" cy="264" r="13.5" fill="#C7B9FF" stroke="black" stroke-width="3"/>
<rect x="608.994" y="324.864" width="42" height="10" rx="5" transform="rotate(-25.0551 608.994 324.864)" fill="#A259FF" stroke="#303030" stroke-width="3"/>
<rect x="994.531" y="315.783" width="42" height="10" rx="5" transform="rotate(12.1948 994.531 315.783)" fill="#FF8577" stroke="#303030" stroke-width="3"/>
<rect x="1709.99" y="281.067" width="42" height="10" rx="5" transform="rotate(31.9551 1709.99 281.067)" fill="#DFF93E" stroke="#303030" stroke-width="3"/>
<path d="M1145.06 294.416L1148.54 305.318C1148.94 306.562 1149.86 307.571 1151.05 308.086L1161.62 312.622C1162.83 313.141 1162.83 314.859 1161.62 315.378L1151.05 319.914C1149.86 320.429 1148.94 321.438 1148.54 322.682L1145.06 333.584C1144.62 334.977 1142.65 334.977 1142.21 333.584L1138.73 322.682C1138.33 321.438 1137.42 320.429 1136.22 319.914L1125.65 315.378C1124.44 314.859 1124.44 313.141 1125.65 312.622L1136.22 308.086C1137.42 307.571 1138.33 306.562 1138.73 305.318L1142.21 294.416C1142.65 293.023 1144.62 293.023 1145.06 294.416Z" fill="#CFE2FF" stroke="#303030" stroke-width="3"/>
</g>
<defs>
<clipPath id="clip0_200_50">
<rect width="1728" height="1117" fill="white"/>
</clipPath>
</defs>
</svg>
