<svg width="1728" height="150" viewBox="0 0 1728 150" fill="none" xmlns="http://www.w3.org/2000/svg">
<rect width="1728" height="150" fill="#5551FF"/>
<path d="M1650.5 120.67C1650.5 124.943 1646.33 128.55 1641 128.55C1635.67 128.55 1631.5 124.943 1631.5 120.67C1631.5 116.397 1635.67 112.79 1641 112.79C1646.33 112.79 1650.5 116.397 1650.5 120.67Z" fill="#37A954" stroke="black"/>
<path d="M1065.5 21.7876C1065.5 28.3744 1059.09 33.8574 1051 33.8574C1042.91 33.8574 1036.5 28.3744 1036.5 21.7876C1036.5 15.2008 1042.91 9.71777 1051 9.71777C1059.09 9.71777 1065.5 15.2008 1065.5 21.7876Z" fill="#C7B9FF" stroke="black"/>
<rect x="0.709142" y="0.254275" width="42.7819" height="10.3005" rx="5.15025" transform="matrix(0.931104 -0.364753 0.487179 0.873302 72.2897 72.4754)" fill="#A259FF" stroke="#303030"/>
<rect x="0.367136" y="0.573259" width="43.7" height="9.99643" rx="4.99822" transform="matrix(0.983994 0.178201 -0.249723 0.968317 458.895 63.6402)" fill="#FF8577" stroke="#303030"/>
<rect x="0.144558" y="0.632705" width="42.0824" height="10.5227" rx="5.26134" transform="matrix(0.886227 0.46325 -0.59711 0.802159 1175.27 34.4156)" fill="#DFF93E" stroke="#303030"/>
<rect x="0.719493" y="0.23115" width="42.5994" height="10.3593" rx="5.17963" transform="matrix(0.919809 -0.392367 0.519177 0.854667 1519.94 71.0542)" fill="#699BF7" stroke="#303030"/>
<path d="M611.336 46.9289L614.794 56.0128C615.158 56.9672 615.92 57.7154 616.881 58.061L625.983 61.335C628.188 62.1281 628.188 65.2467 625.983 66.0399L616.881 69.3138C615.92 69.6595 615.158 70.4076 614.794 71.3621L611.336 80.4459C610.519 82.5934 607.481 82.5934 606.664 80.4459L603.206 71.3621C602.842 70.4076 602.08 69.6595 601.119 69.3138L592.017 66.0399C589.812 65.2467 589.812 62.1281 592.017 61.335L601.119 58.061C602.08 57.7154 602.842 56.9672 603.206 56.0128L606.664 46.9289C607.481 44.7815 610.519 44.7815 611.336 46.9289Z" fill="#CFE2FF" stroke="#303030"/>
<path d="M1360.34 39.3869L1363.79 48.4708C1364.16 49.4252 1364.92 50.1734 1365.88 50.519L1374.98 53.793C1377.19 54.5862 1377.19 57.7047 1374.98 58.4979L1365.88 61.7718C1364.92 62.1175 1364.16 62.8656 1363.79 63.8201L1360.34 72.9039C1359.52 75.0514 1356.48 75.0514 1355.66 72.9039L1352.21 63.8201C1351.84 62.8656 1351.08 62.1175 1350.12 61.7718L1341.02 58.4979C1338.81 57.7047 1338.81 54.5862 1341.02 53.793L1350.12 50.519C1351.08 50.1734 1351.84 49.4252 1352.21 48.4708L1355.66 39.3869C1356.48 37.2395 1359.52 37.2395 1360.34 39.3869Z" fill="#37A954" stroke="#303030"/>
</svg>
