<svg width="1728" height="140" viewBox="0 0 1728 140" fill="none" xmlns="http://www.w3.org/2000/svg">
<mask id="path-1-inside-1_146_298" fill="white">
<path d="M0 0H1728V140H0V0Z"/>
</mask>
<path d="M0 0H1728V140H0V0Z" fill="#5551FF"/>
<path d="M1728 137H0V143H1728V137Z" fill="#303030" mask="url(#path-1-inside-1_146_298)"/>
<circle cx="1215.5" cy="111.5" r="6" fill="#37A954" stroke="black" stroke-width="3"/>
<circle cx="1365.5" cy="71.5" r="6" fill="#37A954" stroke="black" stroke-width="3"/>
<circle cx="776" cy="23" r="9.5" fill="#C7B9FF" stroke="black" stroke-width="3"/>
<rect x="48.3588" y="68.7295" width="30.5407" height="6.68955" rx="3.34477" transform="rotate(-25.0551 48.3588 68.7295)" fill="#A259FF" stroke="#303030" stroke-width="3"/>
<rect x="1461.06" y="93.761" width="30.5407" height="6.68955" rx="3.34477" transform="rotate(30 1461.06 93.761)" fill="#A259FF" stroke="#303030" stroke-width="3"/>
<rect x="335.503" y="62.2308" width="30.5407" height="6.68955" rx="3.34477" transform="rotate(12.1948 335.503 62.2308)" fill="#FF8577" stroke="#303030" stroke-width="3"/>
<rect x="868.603" y="36.4269" width="30.5407" height="6.68955" rx="3.34477" transform="rotate(31.9551 868.603 36.4269)" fill="#DFF93E" stroke="#303030" stroke-width="3"/>
<rect x="1127.38" y="67.3755" width="30.5407" height="6.68955" rx="3.34477" transform="rotate(-26.9782 1127.38 67.3755)" fill="#699BF7" stroke="#303030" stroke-width="3"/>
<path d="M447.929 48.4331L449.652 53.8433C450.048 55.0864 450.964 56.0966 452.162 56.612L457.999 59.122C459.209 59.6423 459.209 61.3577 457.999 61.878L452.162 64.388C450.964 64.9034 450.048 65.9136 449.652 67.1567L447.929 72.5669C447.486 73.9601 445.514 73.9601 445.071 72.5669L443.348 67.1567C442.952 65.9136 442.036 64.9034 440.838 64.388L435.001 61.878C433.791 61.3577 433.791 59.6423 435.001 59.122L440.838 56.612C442.036 56.0966 442.952 55.0864 443.348 53.8433L445.071 48.4331C445.514 47.0399 447.486 47.0399 447.929 48.4331Z" fill="#CFE2FF" stroke="#303030" stroke-width="3"/>
<path d="M1577.93 28.4331L1579.65 33.8433C1580.05 35.0864 1580.96 36.0966 1582.16 36.612L1588 39.122C1589.21 39.6423 1589.21 41.3577 1588 41.878L1582.16 44.388C1580.96 44.9034 1580.05 45.9136 1579.65 47.1567L1577.93 52.5669C1577.49 53.9601 1575.51 53.9601 1575.07 52.5669L1573.35 47.1567C1572.95 45.9136 1572.04 44.9034 1570.84 44.388L1565 41.878C1563.79 41.3577 1563.79 39.6423 1565 39.122L1570.84 36.612C1572.04 36.0966 1572.95 35.0864 1573.35 33.8433L1575.07 28.4331C1575.51 27.0399 1577.49 27.0399 1577.93 28.4331Z" fill="#CFE2FF" stroke="#303030" stroke-width="3"/>
<path d="M1005.93 41.4331L1007.65 46.8433C1008.05 48.0864 1008.96 49.0966 1010.16 49.612L1016 52.122C1017.21 52.6423 1017.21 54.3577 1016 54.878L1010.16 57.388C1008.96 57.9034 1008.05 58.9136 1007.65 60.1567L1005.93 65.5669C1005.49 66.9601 1003.51 66.9601 1003.07 65.5669L1001.35 60.1567C1000.95 58.9136 1000.04 57.9034 998.838 57.388L993.001 54.878C991.791 54.3577 991.791 52.6423 993.001 52.122L998.838 49.612C1000.04 49.0966 1000.95 48.0864 1001.35 46.8433L1003.07 41.4331C1003.51 40.0399 1005.49 40.0399 1005.93 41.4331Z" fill="#37A954" stroke="#303030" stroke-width="3"/>
</svg>
