<svg width="1728" height="140" viewBox="0 0 1728 140" fill="none" xmlns="http://www.w3.org/2000/svg">
<rect x="0.5" y="0.5" width="1727" height="139" stroke="#303030"/>
<circle cx="1215.5" cy="111.5" r="7" fill="#37A954" stroke="black"/>
<circle cx="1365.5" cy="71.5" r="7" fill="#37A954" stroke="black"/>
<circle cx="776" cy="23" r="10.5" fill="#C7B9FF" stroke="black"/>
<rect x="47.0294" y="68.2471" width="32.5407" height="8.68955" rx="4.34477" transform="rotate(-25.0551 47.0294 68.2471)" fill="#A259FF" stroke="#303030"/>
<rect x="1460.69" y="92.3949" width="32.5407" height="8.68955" rx="4.34477" transform="rotate(30 1460.69 92.3949)" fill="#A259FF" stroke="#303030"/>
<rect x="334.737" y="61.0416" width="32.5407" height="8.68955" rx="4.34477" transform="rotate(12.1948 334.737 61.0416)" fill="#FF8577" stroke="#303030"/>
<rect x="868.284" y="35.0492" width="32.5407" height="8.68955" rx="4.34477" transform="rotate(31.9551 868.284 35.0492)" fill="#DFF93E" stroke="#303030"/>
<rect x="1126.03" y="66.9375" width="32.5407" height="8.68955" rx="4.34477" transform="rotate(-26.9782 1126.03 66.9375)" fill="#699BF7" stroke="#303030"/>
<path d="M444.118 48.1297C444.857 45.8077 448.143 45.8077 448.882 48.1297L450.605 53.5399C450.913 54.5068 451.625 55.2925 452.557 55.6934L458.394 58.2034C460.41 59.0705 460.41 61.9295 458.394 62.7966L452.557 65.3066C451.625 65.7075 450.913 66.4932 450.605 67.4601L448.882 72.8703C448.143 75.1923 444.857 75.1923 444.118 72.8703L442.395 67.4601C442.087 66.4932 441.375 65.7075 440.443 65.3066L434.606 62.7966C432.59 61.9295 432.59 59.0705 434.606 58.2034L440.443 55.6934C441.375 55.2925 442.087 54.5068 442.395 53.5399L444.118 48.1297Z" fill="#CFE2FF" stroke="#303030"/>
<path d="M1574.12 28.1297C1574.86 25.8077 1578.14 25.8077 1578.88 28.1297L1580.6 33.5399C1580.91 34.5068 1581.62 35.2925 1582.56 35.6934L1588.39 38.2034C1590.41 39.0705 1590.41 41.9295 1588.39 42.7966L1582.56 45.3066C1581.62 45.7075 1580.91 46.4932 1580.6 47.4601L1578.88 52.8703C1578.14 55.1923 1574.86 55.1923 1574.12 52.8703L1572.4 47.4601C1572.09 46.4932 1571.38 45.7075 1570.44 45.3066L1564.61 42.7966C1562.59 41.9295 1562.59 39.0705 1564.61 38.2034L1570.44 35.6934C1571.38 35.2925 1572.09 34.5068 1572.4 33.5399L1574.12 28.1297Z" fill="#CFE2FF" stroke="#303030"/>
<path d="M1002.12 41.1297C1002.86 38.8077 1006.14 38.8077 1006.88 41.1297L1008.6 46.5399C1008.91 47.5068 1009.62 48.2925 1010.56 48.6934L1016.39 51.2034C1018.41 52.0705 1018.41 54.9295 1016.39 55.7966L1010.56 58.3066C1009.62 58.7075 1008.91 59.4932 1008.6 60.4601L1006.88 65.8703C1006.14 68.1923 1002.86 68.1923 1002.12 65.8703L1000.4 60.4601C1000.09 59.4932 999.375 58.7075 998.443 58.3066L992.606 55.7966C990.59 54.9295 990.59 52.0705 992.606 51.2034L998.443 48.6934C999.375 48.2925 1000.09 47.5068 1000.4 46.5399L1002.12 41.1297Z" fill="#37A954" stroke="#303030"/>
</svg>
